<?xml version="1.0" encoding="UTF-8"?>
<svg xmlns="http://www.w3.org/2000/svg" xmlns:xlink="http://www.w3.org/1999/xlink" viewBox="0 0 602.61 445.6">
  <defs>
    <style>
      .cls-1 {
        fill: url(#linear-gradient-4);
      }

      .cls-1, .cls-2, .cls-3, .cls-4, .cls-5, .cls-6, .cls-7, .cls-8, .cls-9, .cls-10, .cls-11, .cls-12, .cls-13, .cls-14, .cls-15, .cls-16, .cls-17, .cls-18, .cls-19, .cls-20, .cls-21, .cls-22, .cls-23, .cls-24, .cls-25, .cls-26, .cls-27, .cls-28, .cls-29, .cls-30, .cls-31, .cls-32, .cls-33, .cls-34, .cls-35, .cls-36, .cls-37, .cls-38, .cls-39, .cls-40, .cls-41, .cls-42, .cls-43, .cls-44, .cls-45, .cls-46, .cls-47, .cls-48, .cls-49, .cls-50, .cls-51 {
        fill-rule: evenodd;
      }

      .cls-2 {
        fill: url(#Earthtone_18-10);
      }

      .cls-3 {
        fill: url(#Earthtone_18-7);
      }

      .cls-4 {
        fill: url(#Earthtone_18);
      }

      .cls-5 {
        fill: url(#linear-gradient-12);
      }

      .cls-52 {
        fill: #404041;
      }

      .cls-53 {
        fill: url(#Earthtone_20-8);
      }

      .cls-6 {
        fill: #d0d2d3;
      }

      .cls-7 {
        fill: #f3bc80;
      }

      .cls-8 {
        fill: #fff;
      }

      .cls-54 {
        mix-blend-mode: multiply;
      }

      .cls-54, .cls-55 {
        fill: none;
      }

      .cls-9 {
        fill: url(#Earthtone_18-12);
      }

      .cls-10 {
        fill: url(#linear-gradient-38);
      }

      .cls-11 {
        fill: url(#linear-gradient-21);
      }

      .cls-56 {
        fill: #841618;
      }

      .cls-57 {
        fill: url(#linear-gradient-6);
      }

      .cls-58 {
        fill: url(#Earthtone_20-13);
      }

      .cls-59 {
        fill: #541900;
      }

      .cls-12 {
        fill: url(#linear-gradient-35);
      }

      .cls-60 {
        fill: url(#Earthtone_20-9);
      }

      .cls-13 {
        fill: url(#linear-gradient-36);
      }

      .cls-61 {
        fill: #8d785d;
      }

      .cls-14 {
        fill: url(#linear-gradient-2);
      }

      .cls-62 {
        fill: url(#Earthtone_20-5);
      }

      .cls-15 {
        fill: url(#linear-gradient-15);
      }

      .cls-16 {
        fill: url(#Earthtone_18-9);
      }

      .cls-17 {
        fill: url(#linear-gradient-9);
      }

      .cls-18 {
        fill: url(#Earthtone_18-4);
      }

      .cls-63 {
        fill: url(#Earthtone_20-11);
      }

      .cls-19 {
        fill: url(#linear-gradient-25);
      }

      .cls-64 {
        fill: url(#Earthtone_20-12);
      }

      .cls-20 {
        fill: url(#linear-gradient-34);
      }

      .cls-65 {
        fill: url(#Earthtone_20-10);
      }

      .cls-21 {
        fill: url(#linear-gradient-16);
      }

      .cls-66 {
        fill: #603913;
      }

      .cls-22 {
        fill: url(#linear-gradient-29);
      }

      .cls-23 {
        fill: url(#linear-gradient-39);
      }

      .cls-24 {
        fill: url(#linear-gradient-26);
      }

      .cls-25 {
        fill: url(#linear-gradient-14);
      }

      .cls-26 {
        fill: url(#linear-gradient-37);
      }

      .cls-27 {
        fill: url(#linear-gradient-5);
      }

      .cls-28 {
        fill: url(#Earthtone_18-11);
      }

      .cls-29 {
        fill: url(#linear-gradient-23);
      }

      .cls-30 {
        fill: url(#linear-gradient-28);
      }

      .cls-67 {
        fill: #806a50;
      }

      .cls-68 {
        fill: #3c2415;
      }

      .cls-69 {
        fill: #bbbdbf;
      }

      .cls-31 {
        fill: #fdcf9d;
      }

      .cls-70 {
        fill: url(#Earthtone_20-6);
      }

      .cls-55 {
        isolation: isolate;
      }

      .cls-71 {
        fill: url(#Earthtone_20-3);
      }

      .cls-32 {
        fill: url(#linear-gradient-10);
      }

      .cls-33 {
        fill: url(#linear-gradient-18);
      }

      .cls-72 {
        fill: url(#Earthtone_20-2);
      }

      .cls-34 {
        fill: url(#linear-gradient-32);
      }

      .cls-73 {
        fill: url(#Earthtone_17-2);
      }

      .cls-35 {
        fill: url(#linear-gradient-11);
      }

      .cls-36 {
        fill: url(#linear-gradient-30);
      }

      .cls-37 {
        fill: url(#Earthtone_18-8);
      }

      .cls-38 {
        fill: url(#linear-gradient-19);
      }

      .cls-39 {
        fill: url(#Earthtone_18-6);
      }

      .cls-40 {
        fill: url(#linear-gradient-20);
      }

      .cls-74 {
        fill: #d1d3d4;
        mix-blend-mode: soft-light;
        opacity: .38;
      }

      .cls-41 {
        fill: url(#linear-gradient-31);
      }

      .cls-75 {
        fill: url(#linear-gradient-24);
      }

      .cls-42 {
        fill: url(#Earthtone_18-3);
      }

      .cls-76 {
        fill: #670607;
      }

      .cls-43 {
        fill: url(#Earthtone_18-2);
      }

      .cls-77 {
        fill: url(#Earthtone_17);
      }

      .cls-78 {
        fill: url(#linear-gradient);
      }

      .cls-79 {
        fill: url(#linear-gradient-27);
      }

      .cls-44 {
        fill: url(#linear-gradient-22);
      }

      .cls-45 {
        fill: url(#linear-gradient-7);
      }

      .cls-46 {
        fill: url(#linear-gradient-8);
      }

      .cls-80 {
        fill: url(#Earthtone_20-4);
      }

      .cls-81 {
        fill: url(#Earthtone_20-7);
      }

      .cls-47 {
        fill: url(#linear-gradient-3);
      }

      .cls-48 {
        fill: url(#linear-gradient-33);
      }

      .cls-49 {
        fill: url(#linear-gradient-17);
      }

      .cls-82 {
        fill: url(#Earthtone_20);
      }

      .cls-50 {
        fill: url(#Earthtone_18-5);
      }

      .cls-83 {
        fill: url(#linear-gradient-13);
      }

      .cls-51 {
        fill: url(#Earthtone_18-13);
      }
    </style>
    <linearGradient id="linear-gradient" x1="301.3" y1="90.51" x2="301.3" y2="-355.09" gradientUnits="userSpaceOnUse">
      <stop offset="0" stopColor="#eec6b6"/>
      <stop offset=".5" stopColor="#e4b988"/>
      <stop offset="1" stopColor="#e5ba8b"/>
    </linearGradient>
    <linearGradient id="Earthtone_20" data-name="Earthtone 20" x1="301.3" y1="114.98" x2="301.3" y2="472.6" gradientUnits="userSpaceOnUse">
      <stop offset="0" stopColor="#9a6046"/>
      <stop offset=".5" stopColor="#6e2405"/>
      <stop offset="1" stopColor="#4e0000"/>
    </linearGradient>
    <linearGradient id="linear-gradient-2" x1="349.72" y1="211.18" x2="349.72" y2="303.86" gradientUnits="userSpaceOnUse">
      <stop offset="0" stopColor="#9a6046"/>
      <stop offset=".5" stopColor="#933a24"/>
      <stop offset="1" stopColor="#511818"/>
    </linearGradient>
    <linearGradient id="linear-gradient-3" x1="8.14" x2="8.14" xlink:href="#linear-gradient-2"/>
    <linearGradient id="linear-gradient-4" x1="139.29" y1="211.18" x2="139.29" y2="303.86" xlink:href="#linear-gradient-2"/>
    <linearGradient id="linear-gradient-5" x1="218.83" y1="211.18" x2="218.83" y2="303.86" xlink:href="#linear-gradient-2"/>
    <linearGradient id="linear-gradient-6" x1="168.64" y1="355.26" x2="189.69" y2="355.26" gradientUnits="userSpaceOnUse">
      <stop offset="0" stopColor="#231f20"/>
      <stop offset=".5" stopColor="#747477"/>
      <stop offset="1" stopColor="#231f20"/>
    </linearGradient>
    <linearGradient id="Earthtone_17" data-name="Earthtone 17" x1="178.81" y1="340.64" x2="178.81" y2="274.55" gradientUnits="userSpaceOnUse">
      <stop offset="0" stopColor="#b18b75"/>
      <stop offset=".5" stopColor="#94644a"/>
      <stop offset="1" stopColor="#87503a"/>
    </linearGradient>
    <linearGradient id="Earthtone_18" data-name="Earthtone 18" x1="97.24" y1="319.66" x2="82.85" y2="319.66" gradientUnits="userSpaceOnUse">
      <stop offset="0" stopColor="#d0937a"/>
      <stop offset=".5" stopColor="#b25538"/>
      <stop offset="1" stopColor="#a2311a"/>
    </linearGradient>
    <linearGradient id="Earthtone_18-2" data-name="Earthtone 18" x1="118.71" y1="357.5" x2="118.71" y2="322.1" xlink:href="#Earthtone_18"/>
    <linearGradient id="linear-gradient-7" x1="110.11" y1="309.07" x2="110.11" y2="423.8" gradientUnits="userSpaceOnUse">
      <stop offset="0" stopColor="#ac7a6c"/>
      <stop offset=".51" stopColor="#945748"/>
      <stop offset="1" stopColor="#562d22"/>
    </linearGradient>
    <linearGradient id="linear-gradient-8" x1="82.88" y1="263.36" x2="82.88" y2="315.92" xlink:href="#linear-gradient-2"/>
    <linearGradient id="linear-gradient-9" x1="372.92" y1="214.1" x2="372.92" y2="306.79" xlink:href="#linear-gradient-2"/>
    <linearGradient id="linear-gradient-10" x1="452.47" y1="214.1" x2="452.47" y2="306.79" xlink:href="#linear-gradient-2"/>
    <linearGradient id="Earthtone_18-3" data-name="Earthtone 18" x1="260.38" y1="319.66" x2="274.77" y2="319.66" xlink:href="#Earthtone_18"/>
    <linearGradient id="Earthtone_18-4" data-name="Earthtone 18" x1="238.92" y1="352.25" x2="238.92" y2="332.68" xlink:href="#Earthtone_18"/>
    <linearGradient id="linear-gradient-11" x1="247.51" y1="304.38" x2="247.51" y2="419.1" xlink:href="#linear-gradient-7"/>
    <linearGradient id="linear-gradient-12" x1="274.74" y1="260.24" x2="274.74" y2="306.71" xlink:href="#linear-gradient-2"/>
    <linearGradient id="linear-gradient-13" x1="63.9" y1="263.36" x2="63.9" y2="315.92" xlink:href="#linear-gradient-2"/>
    <linearGradient id="Earthtone_18-5" data-name="Earthtone 18" x1="30.47" y1="319.66" x2="44.86" y2="319.66" xlink:href="#Earthtone_18"/>
    <linearGradient id="linear-gradient-14" x1="17.59" y1="358.62" x2="17.59" y2="323.45" gradientUnits="userSpaceOnUse">
      <stop offset="0" stopColor="#d0937a"/>
      <stop offset=".5" stopColor="#b25538"/>
      <stop offset=".8" stopColor="#a83f26"/>
      <stop offset="1" stopColor="#a2311a"/>
    </linearGradient>
    <linearGradient id="linear-gradient-15" x1="26.41" y1="306.39" x2="26.41" y2="421.12" xlink:href="#linear-gradient-7"/>
    <linearGradient id="linear-gradient-16" x1="44.83" y1="263.36" x2="44.83" y2="315.92" xlink:href="#linear-gradient-2"/>
    <linearGradient id="linear-gradient-17" x1="73.17" y1="256.77" x2="73.17" y2="417.14" xlink:href="#linear-gradient-2"/>
    <linearGradient id="Earthtone_18-6" data-name="Earthtone 18" x1="327.25" x2="312.85" xlink:href="#Earthtone_18"/>
    <linearGradient id="Earthtone_18-7" data-name="Earthtone 18" x1="340.08" y1="354.59" x2="340.08" y2="319.52" xlink:href="#Earthtone_18"/>
    <linearGradient id="Earthtone_18-8" data-name="Earthtone 18" x1="327.21" y1="319.42" x2="312.82" y2="319.42" xlink:href="#Earthtone_18"/>
    <linearGradient id="Earthtone_18-9" data-name="Earthtone 18" x1="348.69" y1="357.27" x2="348.69" y2="321.87" xlink:href="#Earthtone_18"/>
    <linearGradient id="linear-gradient-18" x1="340.08" y1="308.84" x2="340.08" y2="423.56" xlink:href="#linear-gradient-7"/>
    <linearGradient id="linear-gradient-19" x1="312.85" y1="263.13" x2="312.85" y2="315.68" xlink:href="#linear-gradient-2"/>
    <linearGradient id="linear-gradient-20" x1="312.89" y1="260.24" x2="312.89" y2="306.71" xlink:href="#linear-gradient-2"/>
    <linearGradient id="linear-gradient-21" x1="331.26" y1="307.06" x2="331.26" y2="421.79" xlink:href="#linear-gradient-7"/>
    <linearGradient id="linear-gradient-22" x1="284.45" y1="256.77" x2="284.45" y2="417.14" xlink:href="#linear-gradient-2"/>
    <linearGradient id="linear-gradient-23" x1="293.7" y1="260.24" x2="293.7" y2="306.71" xlink:href="#linear-gradient-2"/>
    <linearGradient id="linear-gradient-24" x1="301.3" y1="436.66" x2="301.3" y2="373.08" gradientUnits="userSpaceOnUse">
      <stop offset="0" stopColor="#ac7a6c"/>
      <stop offset=".78" stopColor="#b46a5a"/>
      <stop offset="1" stopColor="#562d22"/>
    </linearGradient>
    <linearGradient id="Earthtone_20-2" data-name="Earthtone 20" x1="37.26" y1="232.63" x2="37.26" y2="266.96" xlink:href="#Earthtone_20"/>
    <linearGradient id="Earthtone_20-3" data-name="Earthtone 20" x1="93.88" y1="232.63" x2="93.88" y2="266.96" xlink:href="#Earthtone_20"/>
    <linearGradient id="Earthtone_20-4" data-name="Earthtone 20" x1="150.5" y1="232.63" x2="150.5" y2="266.96" xlink:href="#Earthtone_20"/>
    <linearGradient id="Earthtone_20-5" data-name="Earthtone 20" x1="207.12" y1="232.63" x2="207.12" y2="266.96" xlink:href="#Earthtone_20"/>
    <linearGradient id="Earthtone_20-6" data-name="Earthtone 20" x1="263.74" y1="232.63" x2="263.74" y2="266.96" xlink:href="#Earthtone_20"/>
    <linearGradient id="Earthtone_20-7" data-name="Earthtone 20" x1="320.36" y1="232.63" x2="320.36" y2="266.96" xlink:href="#Earthtone_20"/>
    <linearGradient id="linear-gradient-25" x1="193.55" y1="311.13" x2="94.91" y2="212.49" gradientUnits="userSpaceOnUse">
      <stop offset="0" stopColor="#fff"/>
      <stop offset="1" stopColor="#000"/>
    </linearGradient>
    <linearGradient id="linear-gradient-26" x1="248.11" y1="288.76" x2="149.46" y2="190.11" xlink:href="#linear-gradient-25"/>
    <linearGradient id="linear-gradient-27" x1="395.11" x2="416.17" xlink:href="#linear-gradient-6"/>
    <linearGradient id="Earthtone_17-2" data-name="Earthtone 17" x1="405.28" x2="405.28" xlink:href="#Earthtone_17"/>
    <linearGradient id="Earthtone_18-10" data-name="Earthtone 18" x1="486.85" y1="319.66" x2="501.25" y2="319.66" xlink:href="#Earthtone_18"/>
    <linearGradient id="linear-gradient-28" x1="207.2" y1="214.1" x2="207.2" y2="306.79" gradientTransform="translate(801.67) rotate(-180) scale(1 -1)" xlink:href="#linear-gradient-2"/>
    <linearGradient id="Earthtone_18-11" data-name="Earthtone 18" x1="554.52" y1="319.7" x2="540.13" y2="319.7" xlink:href="#Earthtone_18"/>
    <linearGradient id="Earthtone_18-12" data-name="Earthtone 18" x1="575.99" y1="357.55" x2="575.99" y2="322.15" xlink:href="#Earthtone_18"/>
    <linearGradient id="linear-gradient-29" x1="567.39" y1="309.12" x2="567.39" y2="423.85" xlink:href="#linear-gradient-7"/>
    <linearGradient id="linear-gradient-30" x1="540.19" y1="260.53" x2="540.19" y2="306.99" xlink:href="#linear-gradient-2"/>
    <linearGradient id="linear-gradient-31" x1="558.57" y1="307.34" x2="558.57" y2="422.07" xlink:href="#linear-gradient-7"/>
    <linearGradient id="Earthtone_18-13" data-name="Earthtone 18" x1="465.39" y1="352.25" x2="465.39" y2="332.68" xlink:href="#Earthtone_18"/>
    <linearGradient id="linear-gradient-32" x1="473.98" y1="304.38" x2="473.98" y2="419.1" xlink:href="#linear-gradient-7"/>
    <linearGradient id="linear-gradient-33" x1="501.21" y1="260.24" x2="501.21" y2="306.71" xlink:href="#linear-gradient-2"/>
    <linearGradient id="linear-gradient-34" x1="510.93" y1="256.77" x2="510.93" y2="417.14" xlink:href="#linear-gradient-2"/>
    <linearGradient id="Earthtone_20-8" data-name="Earthtone 20" x1="263.74" y1="232.63" x2="263.74" y2="266.96" xlink:href="#Earthtone_20"/>
    <linearGradient id="Earthtone_20-9" data-name="Earthtone 20" x1="320.36" y1="232.63" x2="320.36" y2="266.96" xlink:href="#Earthtone_20"/>
    <linearGradient id="Earthtone_20-10" data-name="Earthtone 20" x1="376.97" y1="232.63" x2="376.97" y2="266.96" xlink:href="#Earthtone_20"/>
    <linearGradient id="Earthtone_20-11" data-name="Earthtone 20" x1="433.59" y1="232.63" x2="433.59" y2="266.96" xlink:href="#Earthtone_20"/>
    <linearGradient id="Earthtone_20-12" data-name="Earthtone 20" x1="490.21" y1="232.63" x2="490.21" y2="266.96" xlink:href="#Earthtone_20"/>
    <linearGradient id="Earthtone_20-13" data-name="Earthtone 20" x1="546.83" y1="232.63" x2="546.83" y2="266.96" xlink:href="#Earthtone_20"/>
    <linearGradient id="linear-gradient-35" x1="420.03" x2="321.38" xlink:href="#linear-gradient-25"/>
    <linearGradient id="linear-gradient-36" x1="474.58" y1="288.76" x2="375.94" y2="190.11" xlink:href="#linear-gradient-25"/>
    <linearGradient id="linear-gradient-37" x1="303.16" y1="256.67" x2="303.16" y2="417.03" xlink:href="#linear-gradient-2"/>
    <linearGradient id="linear-gradient-38" x1="529.44" y1="256.77" x2="529.44" y2="417.14" xlink:href="#linear-gradient-2"/>
    <linearGradient id="linear-gradient-39" x1="400.83" y1="161.48" x2="400.83" y2="254.16" xlink:href="#linear-gradient-2"/>
  </defs>
  <g class="cls-55">
    <g id="Layer_2" data-name="Layer 2">
      <g id="OBJECTS">
        <rect class="cls-78" width="602.61" height="445.6"/>
        <rect class="cls-82" y="236.82" width="602.61" height="145.2"/>
        <path class="cls-14" d="m357.62,281.62s-.05,0-.08,0h-10.27c-3.01,0-5.44,2.37-5.44,5.29v76.6c0,2.92,2.44,5.29,5.44,5.29h10.27s.05,0,.08,0v-87.17Z"/>
        <path class="cls-47" d="m10.84,281.61H.57c-.19,0-.39.01-.57.03v87.12c.19.02.38.03.57.03h10.27c3.01,0,5.44-2.37,5.44-5.29v-76.6c0-2.92-2.44-5.29-5.44-5.29Z"/>
        <rect class="cls-68" y="376.24" width="357.62" height="6.07"/>
        <path class="cls-1" d="m112.93,368.79h52.71c3.01,0,5.44-2.37,5.44-5.29v-76.6c0-2.92-2.44-5.29-5.44-5.29h-52.71c-3.01,0-5.44,2.37-5.44,5.29v76.6c0,2.92,2.44,5.29,5.44,5.29Z"/>
        <path class="cls-27" d="m192.47,368.79h52.71c3.01,0,5.44-2.37,5.44-5.29v-76.6c0-2.92-2.44-5.29-5.44-5.29h-52.71c-3.01,0-5.44,2.37-5.44,5.29v76.6c0,2.92,2.44,5.29,5.44,5.29Z"/>
        <rect class="cls-57" x="174.6" y="328.49" width="8.43" height="53.53"/>
        <g>
          <path class="cls-76" d="m197.86,325.39h-27.81c-.39,0-.71-.32-.71-.71h0c0-.39.32-.71.71-.71h27.81c.39,0,.71.32.71.71h0c0,.39-.32.71-.71.71Z"/>
          <path class="cls-56" d="m198.12,323.97h-28.32c-.25,0-.45.32-.45.71h29.23c0-.39-.2-.71-.45-.71Z"/>
        </g>
        <rect class="cls-77" x="145.76" y="325.2" width="66.1" height="5.84" rx=".7" ry=".7"/>
        <rect class="cls-52" x="172.49" y="381.1" width="12.64" height=".93" rx=".46" ry=".46"/>
        <path class="cls-4" d="m85.65,294.43l5.4-.34c1.65-.1,3.09,1.16,3.2,2.81l2.99,44.79c.11,1.65-1.15,3.08-2.8,3.18l-5.4.34c-1.65.1-3.09-1.16-3.2-2.81l-2.99-44.79c-.11-1.65,1.15-3.08,2.8-3.18Z"/>
        <path class="cls-43" d="m94.74,343.3h47.95c1.21,0,2.2,1,2.2,2.22v5.2c0,1.22-.99,2.22-2.2,2.22h-47.95c-1.21,0-2.2-1-2.2-2.22v-5.2c0-1.22.99-2.22,2.2-2.22Z"/>
        <polygon class="cls-45" points="93.04 350.47 90.11 291.81 74.89 291.81 74.89 382.02 92.62 382.02 94.61 382.02 145.32 382.02 145.32 350.47 93.04 350.47"/>
        <path class="cls-46" d="m74.89,287.64h15.13c.47,0,.85.38.85.85v2.99c0,.47-.38.85-.85.85h-15.13v-4.69Z"/>
        <path class="cls-17" d="m346.57,371.72h52.71c3.01,0,5.44-2.37,5.44-5.29v-76.6c0-2.92-2.44-5.29-5.44-5.29h-52.71c-3.01,0-5.44,2.37-5.44,5.29v76.6c0,2.92,2.44,5.29,5.44,5.29Z"/>
        <path class="cls-32" d="m426.11,371.72h52.71c3.01,0,5.44-2.37,5.44-5.29v-76.6c0-2.92-2.44-5.29-5.44-5.29h-52.71c-3.01,0-5.44,2.37-5.44,5.29v76.6c0,2.92,2.44,5.29,5.44,5.29Z"/>
        <path class="cls-42" d="m271.97,294.43l-5.4-.34c-1.65-.1-3.09,1.16-3.2,2.81l-2.99,44.79c-.11,1.65,1.15,3.08,2.8,3.18l5.4.34c1.65.1,3.09-1.16,3.2-2.81l2.99-44.79c.11-1.65-1.15-3.08-2.8-3.18Z"/>
        <path class="cls-18" d="m262.88,343.3h-47.93c-1.21,0-2.2,1-2.2,2.22v5.2c0,1.22.99,2.22,2.2,2.22h47.93c1.21,0,2.2-1,2.2-2.22v-5.2c0-1.22-.99-2.22-2.2-2.22Z"/>
        <polygon class="cls-35" points="267.51 291.81 264.58 350.47 212.29 350.47 212.29 382.02 263 382.02 265 382.02 282.73 382.02 282.73 291.81 267.51 291.81"/>
        <path class="cls-5" d="m282.73,287.64h-15.13c-.47,0-.85.38-.85.85v2.99c0,.47.38.85.85.85h15.13v-4.69Z"/>
        <path class="cls-83" d="m52.03,267.67h23.75c.26,0,.48.21.48.48v1c0,.26-.21.48-.48.48h-23.75c-.26,0-.48-.21-.48-.48v-1c0-.26.21-.48.48-.48Z"/>
        <path class="cls-50" d="m42.06,294.43l-5.4-.34c-1.65-.1-3.09,1.16-3.2,2.81l-2.99,44.79c-.11,1.65,1.15,3.08,2.8,3.18l5.4.34c1.65.1,3.09-1.16,3.2-2.81l2.99-44.79c.11-1.65-1.15-3.08-2.8-3.18Z"/>
        <path class="cls-25" d="m32.95,343.3H0v9.64h32.95c1.22,0,2.22-1,2.22-2.22v-5.2c0-1.22-1-2.22-2.22-2.22Z"/>
        <polygon class="cls-15" points="37.6 291.81 34.67 350.47 0 350.47 0 382.02 33.09 382.02 35.09 382.02 52.82 382.02 52.82 291.81 37.6 291.81"/>
        <path class="cls-21" d="m52.82,287.64h-15.13c-.47,0-.85.38-.85.85v2.99c0,.47.38.85.85.85h15.13v-4.69Z"/>
        <polygon class="cls-49" points="75.47 367.99 75.47 269.38 52.33 269.38 52.33 367.99 0 367.99 0 382.02 52.33 382.02 52.82 382.02 74.89 382.02 75.47 382.02 146.33 382.02 146.33 367.99 75.47 367.99"/>
        <path class="cls-39" d="m315.66,294.43l5.4-.34c1.65-.1,3.09,1.16,3.2,2.81l2.99,44.79c.11,1.65-1.15,3.08-2.8,3.18l-5.4.34c-1.65.1-3.09-1.16-3.2-2.81l-2.99-44.79c-.11-1.65,1.15-3.08,2.8-3.18Z"/>
        <path class="cls-3" d="m324.76,343.3h32.86v9.64h-32.86c-1.22,0-2.22-1-2.22-2.22v-5.2c0-1.22,1-2.22,2.22-2.22Z"/>
        <path class="cls-37" d="m315.62,294.2l5.4-.34c1.65-.1,3.09,1.16,3.2,2.81l2.99,44.79c.11,1.65-1.15,3.08-2.8,3.18l-5.4.34c-1.65.1-3.09-1.16-3.2-2.81l-2.99-44.79c-.11-1.65,1.15-3.08,2.8-3.18Z"/>
        <path class="cls-16" d="m324.71,343.06h47.95c1.21,0,2.2,1,2.2,2.22v5.2c0,1.22-.99,2.22-2.2,2.22h-47.95c-1.21,0-2.2-1-2.2-2.22v-5.2c0-1.22.99-2.22,2.2-2.22Z"/>
        <polygon class="cls-33" points="323.01 350.23 320.08 291.58 304.86 291.58 304.86 381.79 322.6 381.79 324.59 381.79 375.3 381.79 375.3 350.23 323.01 350.23"/>
        <path class="cls-38" d="m304.86,287.41h15.13c.47,0,.85.38.85.85v2.99c0,.47-.38.85-.85.85h-15.13v-4.69Z"/>
        <path class="cls-40" d="m304.9,287.64h15.13c.47,0,.85.38.85.85v2.99c0,.47-.38.85-.85.85h-15.13v-4.69Z"/>
        <polygon class="cls-11" points="323.05 350.47 320.12 291.81 304.9 291.81 304.9 382.02 322.63 382.02 324.62 382.02 357.62 382.02 357.62 350.47 323.05 350.47"/>
        <path class="cls-44" d="m305.38,367.99v-98.37h.3c.26,0,.48-.22.48-.48v-1c0-.26-.22-.48-.48-.48h-23.75c-.26,0-.48.22-.48.48v1c0,.26.22.48.48.48h.3v98.37h-70.96v14.03h146.33v-14.03h-52.23Z"/>
        <path class="cls-29" d="m281.72,267.67h23.96c.27,0,.48.22.48.48v1c0,.26-.22.48-.48.48h-23.96c-.27,0-.48-.22-.48-.48v-1c0-.26.22-.48.48-.48Z"/>
        <rect class="cls-75" y="382.02" width="602.61" height="63.57"/>
        <rect class="cls-66" y="230.75" width="602.61" height="6.07"/>
        <g>
          <rect class="cls-72" x="16.7" y="244.57" width="41.12" height="13.14" rx="1.6" ry="1.6"/>
          <rect class="cls-71" x="73.32" y="244.57" width="41.12" height="13.14" rx="1.6" ry="1.6"/>
          <rect class="cls-80" x="129.94" y="244.57" width="41.12" height="13.14" rx="1.6" ry="1.6"/>
          <rect class="cls-62" x="186.56" y="244.57" width="41.12" height="13.14" rx="1.6" ry="1.6"/>
          <rect class="cls-70" x="243.18" y="244.57" width="41.12" height="13.14" rx="1.6" ry="1.6"/>
          <rect class="cls-81" x="299.8" y="244.57" width="41.12" height="13.14" rx="1.6" ry="1.6"/>
        </g>
        <rect class="cls-59" y="261.42" width="357.62" height="2.44"/>
        <g class="cls-54">
          <polygon class="cls-19" points="257.82 351.16 257.76 350.72 257.37 350.72 257.31 350.27 256.93 350.27 256.87 349.82 256.48 349.82 256.42 349.38 256.03 349.38 255.97 348.93 255.59 348.93 255.53 348.48 255.14 348.48 255.08 348.03 254.69 348.03 254.63 347.59 254.24 347.59 254.18 347.14 253.8 347.14 253.74 346.69 253.35 346.69 253.29 346.25 252.9 346.25 252.84 345.8 252.46 345.8 252.4 345.35 252.01 345.35 251.95 344.9 251.56 344.9 251.5 344.46 251.12 344.46 251.06 344.01 250.67 344.01 250.61 343.56 250.22 343.56 250.16 343.12 249.77 343.12 249.71 342.67 249.33 342.67 249.27 342.22 248.88 342.22 248.82 341.78 248.43 341.78 248.37 341.33 247.99 341.33 247.93 340.88 247.54 340.88 247.48 340.43 247.09 340.43 247.03 339.99 246.65 339.99 246.58 339.54 246.2 339.54 246.14 339.09 245.75 339.09 245.69 338.65 245.3 338.65 245.24 338.2 244.86 338.2 244.8 337.75 244.41 337.75 244.35 337.31 243.96 337.31 243.9 336.86 243.52 336.86 243.46 336.41 243.07 336.41 243.01 335.96 242.62 335.96 242.56 335.52 242.18 335.52 242.11 335.07 241.73 335.07 241.67 334.62 241.28 334.62 241.22 334.18 240.83 334.18 240.77 333.73 240.39 333.73 240.33 333.28 239.94 333.28 239.88 332.84 239.49 332.84 239.43 332.39 239.05 332.39 238.99 331.94 238.6 331.94 238.54 331.49 238.15 331.49 238.09 331.05 237.7 331.05 237.64 330.6 237.26 330.6 237.2 330.15 236.81 330.15 236.75 329.71 236.36 329.71 236.3 329.26 235.92 329.26 235.86 328.81 235.47 328.81 235.41 328.36 235.02 328.36 234.96 327.92 234.58 327.92 234.52 327.47 234.13 327.47 234.07 327.02 233.68 327.02 233.62 326.58 233.23 326.58 233.17 326.13 232.79 326.13 232.73 325.68 232.34 325.68 232.28 325.24 231.89 325.24 231.83 324.79 231.45 324.79 231.39 324.34 231 324.34 230.94 323.89 230.55 323.89 230.49 323.45 230.11 323.45 230.05 323 229.66 323 229.6 322.55 229.21 322.55 229.15 322.11 228.76 322.11 228.7 321.66 228.32 321.66 228.26 321.21 227.87 321.21 227.81 320.77 227.42 320.77 227.36 320.32 226.98 320.32 226.92 319.87 226.53 319.87 226.47 319.42 226.08 319.42 226.02 318.98 225.64 318.98 225.57 318.53 225.19 318.53 225.13 318.08 224.74 318.08 224.68 317.64 224.29 317.64 224.23 317.19 223.85 317.19 223.79 316.74 223.4 316.74 223.34 316.3 222.95 316.3 222.89 315.85 222.51 315.85 222.45 315.4 222.06 315.4 222 314.95 221.61 314.95 221.55 314.51 221.17 314.51 221.1 314.06 220.72 314.06 220.66 313.61 220.27 313.61 220.21 313.17 219.82 313.17 219.76 312.72 219.38 312.72 219.32 312.27 218.93 312.27 218.87 311.83 218.48 311.83 218.42 311.38 218.04 311.38 217.98 310.93 217.59 310.93 217.53 310.48 217.14 310.48 217.08 310.04 216.69 310.04 216.63 309.59 216.25 309.59 216.19 309.14 215.8 309.14 215.74 308.7 215.35 308.7 215.29 308.25 214.91 308.25 214.85 307.8 214.46 307.8 214.4 307.35 214.01 307.35 213.95 306.91 213.57 306.91 213.51 306.46 213.12 306.46 213.06 306.01 212.67 306.01 212.61 305.57 212.22 305.57 212.16 305.12 211.78 305.12 211.72 304.67 211.33 304.67 211.27 304.23 210.88 304.23 210.82 303.78 210.44 303.78 210.38 303.33 209.99 303.33 209.93 302.88 209.54 302.88 209.48 302.44 209.1 302.44 209.04 301.99 208.65 301.99 208.59 301.54 208.2 301.54 208.14 301.1 207.75 301.1 207.69 300.65 207.31 300.65 207.25 300.2 206.86 300.2 206.8 299.76 206.41 299.76 206.35 299.31 205.97 299.31 205.91 298.86 205.52 298.86 205.46 298.41 205.07 298.41 205.01 297.97 204.63 297.97 204.56 297.52 204.18 297.52 204.12 297.07 203.73 297.07 203.67 296.63 203.28 296.63 203.22 296.18 202.84 296.18 202.78 295.73 202.39 295.73 202.33 295.29 201.94 295.29 201.88 294.84 201.5 294.84 201.44 294.39 201.05 294.39 200.99 293.94 200.6 293.94 200.54 293.5 200.16 293.5 200.09 293.05 199.71 293.05 199.65 292.6 199.26 292.6 199.2 292.16 198.81 292.16 198.75 291.71 198.37 291.71 198.31 291.26 197.92 291.26 197.86 290.82 197.47 290.82 197.41 290.37 197.03 290.37 196.97 289.92 196.58 289.92 196.52 289.47 196.13 289.47 196.07 289.03 195.68 289.03 195.62 288.58 195.24 288.58 195.18 288.13 194.79 288.13 194.73 287.69 194.34 287.69 194.28 287.24 193.9 287.24 193.84 286.79 193.45 286.79 193.39 286.34 193 286.34 192.94 285.9 192.56 285.9 192.5 285.45 192.11 285.45 192.05 285 191.66 285 191.6 284.56 191.21 284.56 191.15 284.11 190.77 284.11 190.71 283.66 190.32 283.66 190.26 283.22 189.87 283.22 189.81 282.77 189.43 282.77 189.37 282.32 188.98 282.32 188.92 281.87 188.53 281.87 188.47 281.43 188.09 281.43 188.03 280.98 187.64 280.98 187.58 280.53 187.19 280.53 187.13 280.09 186.74 280.09 186.68 279.64 186.3 279.64 186.24 279.19 185.85 279.19 185.79 278.75 185.4 278.75 185.34 278.3 184.96 278.3 184.9 277.85 184.51 277.85 184.45 277.4 184.06 277.4 184 276.96 183.62 276.96 183.55 276.51 183.17 276.51 183.11 276.06 182.72 276.06 182.66 275.62 182.27 275.62 182.21 275.17 181.83 275.17 181.77 274.72 181.38 274.72 181.32 274.28 180.93 274.28 180.87 273.83 180.49 273.83 180.43 273.38 180.04 273.38 179.98 272.93 179.59 272.93 179.53 272.49 179.15 272.49 179.08 272.04 178.7 272.04 178.64 271.59 178.25 271.59 178.19 271.15 177.8 271.15 177.74 270.7 177.36 270.7 177.3 270.25 176.91 270.25 176.85 269.81 176.46 269.81 176.4 269.36 176.02 269.36 175.96 268.91 175.57 268.91 175.51 268.46 175.12 268.46 175.06 268.02 174.67 268.02 174.61 267.57 174.23 267.57 174.17 267.12 173.78 267.12 173.72 266.68 173.33 266.68 173.27 266.23 172.89 266.23 172.83 265.78 172.44 265.78 172.38 265.33 171.99 265.33 171.93 264.89 171.55 264.89 171.49 264.44 171.1 264.44 171.04 263.99 170.65 263.99 170.59 263.55 170.2 263.55 170.14 263.1 169.76 263.1 169.7 262.65 169.31 262.65 169.25 262.21 168.86 262.21 168.8 261.76 168.42 261.76 168.36 261.31 167.97 261.31 167.91 260.86 167.52 260.86 167.46 260.42 167.08 260.42 167.02 259.97 166.63 259.97 166.57 259.52 166.18 259.52 166.12 259.08 165.73 259.08 165.67 258.63 165.29 258.63 165.23 258.18 164.84 258.18 164.78 257.74 164.39 257.74 164.33 257.29 163.95 257.29 163.89 256.84 163.5 256.84 163.44 256.39 163.05 256.39 162.99 255.95 162.61 255.95 162.54 255.5 162.16 255.5 162.1 255.05 161.71 255.05 161.65 254.61 161.26 254.61 161.2 254.16 160.82 254.16 160.76 253.71 160.37 253.71 160.31 253.27 159.92 253.27 159.86 252.82 159.48 252.82 159.42 252.37 159.03 252.37 158.97 251.92 158.58 251.92 158.52 251.48 158.14 251.48 158.07 251.03 157.69 251.03 157.63 250.58 157.24 250.58 157.18 250.14 156.79 250.14 156.73 249.69 156.35 249.69 156.29 249.24 155.9 249.24 155.84 248.8 155.45 248.8 155.39 248.35 155.01 248.35 154.95 247.9 154.56 247.9 154.5 247.45 154.11 247.45 154.05 247.01 153.66 247.01 153.6 246.56 153.22 246.56 153.16 246.11 152.77 246.11 152.71 245.67 152.32 245.67 152.26 245.22 151.88 245.22 151.82 244.77 151.43 244.77 151.37 244.32 150.98 244.32 150.92 243.88 150.54 243.88 150.48 243.43 150.09 243.43 150.03 242.98 149.64 242.98 149.58 242.54 149.19 242.54 149.13 242.09 148.75 242.09 148.69 241.64 148.3 241.64 148.24 241.2 147.85 241.2 147.79 240.75 147.41 240.75 147.35 240.3 146.96 240.3 146.9 239.85 146.51 239.85 146.45 239.41 145.92 239.41 145.04 239.41 144.78 239.41 143.9 239.41 143.65 239.41 142.77 239.41 142.52 239.41 141.63 239.41 141.38 239.41 140.5 239.41 140.4 239.41 140.25 239.41 139.36 239.41 139.11 239.41 138.23 239.41 137.98 239.41 137.09 239.41 136.84 239.41 135.96 239.41 135.71 239.41 134.82 239.41 134.35 239.41 130.95 264.57 131.45 264.57 131.39 265.02 131.9 265.02 131.84 265.46 132.35 265.46 132.29 265.91 132.8 265.91 132.74 266.36 133.24 266.36 133.18 266.8 133.69 266.8 133.63 267.25 134.14 267.25 134.08 267.7 134.58 267.7 134.52 268.14 135.03 268.14 134.97 268.59 135.48 268.59 135.42 269.04 135.93 269.04 135.88 269.38 135.61 269.38 135.61 277.81 136.05 277.81 136.05 278.26 136.5 278.26 136.5 278.71 136.95 278.71 136.95 279.15 137.39 279.15 137.39 279.6 137.84 279.6 137.84 280.05 138.29 280.05 138.29 280.49 138.73 280.49 138.73 280.94 139.18 280.94 139.18 281.39 139.63 281.39 139.63 281.84 140.08 281.84 140.08 282.28 140.52 282.28 140.52 282.73 140.97 282.73 140.97 283.18 141.42 283.18 141.42 283.62 141.86 283.62 141.86 284.07 142.31 284.07 142.31 284.52 142.76 284.52 142.76 284.96 143.2 284.96 143.2 285.41 143.65 285.41 143.65 285.86 144.1 285.86 144.1 286.31 144.55 286.31 144.55 286.75 144.99 286.75 144.99 287.2 145.44 287.2 145.44 287.65 145.89 287.65 145.89 288.09 146.33 288.09 146.33 288.54 146.78 288.54 146.78 288.99 147.23 288.99 147.23 289.43 147.67 289.43 147.67 289.88 148.12 289.88 148.12 290.33 148.57 290.33 148.57 290.78 149.02 290.78 149.02 291.22 149.46 291.22 149.46 291.67 149.91 291.67 149.91 292.12 150.36 292.12 150.36 292.56 150.8 292.56 150.8 293.01 151.25 293.01 151.25 293.46 151.7 293.46 151.7 293.9 152.15 293.9 152.15 294.35 152.59 294.35 152.59 294.8 153.04 294.8 153.04 295.25 153.49 295.25 153.49 295.69 153.93 295.69 153.93 296.14 154.38 296.14 154.38 296.59 154.83 296.59 154.83 297.03 155.27 297.03 155.27 297.48 155.72 297.48 155.72 297.93 156.17 297.93 156.17 298.37 156.62 298.37 156.62 298.82 157.06 298.82 157.06 299.27 157.51 299.27 157.51 299.72 157.96 299.72 157.96 300.16 158.4 300.16 158.4 300.61 158.85 300.61 158.85 301.06 159.3 301.06 159.3 301.5 159.74 301.5 159.74 301.95 160.19 301.95 160.19 302.4 160.64 302.4 160.64 302.85 161.09 302.85 161.09 303.29 161.53 303.29 161.53 303.74 161.98 303.74 161.98 304.19 162.43 304.19 162.43 304.63 162.87 304.63 162.87 305.08 163.32 305.08 163.32 305.53 163.77 305.53 163.77 305.97 164.21 305.97 164.21 306.42 164.66 306.42 164.66 306.87 165.11 306.87 165.11 307.32 165.56 307.32 165.56 307.76 166 307.76 166 308.21 166.45 308.21 166.45 308.66 166.9 308.66 166.9 309.1 167.34 309.1 167.34 309.55 167.79 309.55 167.79 310 168.24 310 168.24 310.44 168.68 310.44 168.68 310.89 169.13 310.89 169.13 311.34 169.58 311.34 169.58 311.79 170.03 311.79 170.03 312.23 170.47 312.23 170.47 312.68 170.92 312.68 170.92 313.13 171.37 313.13 171.37 313.57 171.81 313.57 171.81 314.02 172.26 314.02 172.26 314.47 172.71 314.47 172.71 314.91 173.16 314.91 173.16 315.36 173.6 315.36 173.6 315.81 174.05 315.81 174.05 316.26 174.5 316.26 174.5 316.7 174.94 316.7 174.94 317.15 175.39 317.15 175.39 317.6 175.84 317.6 175.84 318.04 176.28 318.04 176.28 318.49 176.73 318.49 176.73 318.94 177.18 318.94 177.18 319.38 177.63 319.38 177.63 319.83 178.07 319.83 178.07 320.28 178.52 320.28 178.52 320.73 178.97 320.73 178.97 321.17 179.41 321.17 179.41 321.62 179.86 321.62 179.86 322.07 180.31 322.07 180.31 322.51 180.75 322.51 180.75 322.96 181.2 322.96 181.2 323.41 181.65 323.41 181.65 323.86 182.1 323.86 182.1 324.3 182.54 324.3 182.54 324.75 182.99 324.75 182.99 325.2 183.44 325.2 183.44 325.64 183.88 325.64 183.88 326.09 184.33 326.09 184.33 326.54 184.78 326.54 184.78 326.98 185.22 326.98 185.22 327.43 185.67 327.43 185.67 327.88 186.12 327.88 186.12 328.33 186.57 328.33 186.57 328.77 187.01 328.77 187.01 329.22 187.46 329.22 187.46 329.67 187.91 329.67 187.91 330.11 188.35 330.11 188.35 330.56 188.8 330.56 188.8 331.01 189.25 331.01 189.25 331.45 189.7 331.45 189.7 331.9 190.14 331.9 190.14 332.35 190.59 332.35 190.59 332.8 191.04 332.8 191.04 333.24 191.48 333.24 191.48 333.69 191.93 333.69 191.93 334.14 192.38 334.14 192.38 334.58 192.82 334.58 192.82 335.03 193.27 335.03 193.27 335.48 193.72 335.48 193.72 335.92 194.17 335.92 194.17 336.37 194.61 336.37 194.61 336.82 195.06 336.82 195.06 337.27 195.51 337.27 195.51 337.71 195.95 337.71 195.95 338.16 196.4 338.16 196.4 338.61 196.85 338.61 196.85 339.05 197.29 339.05 197.29 339.5 197.74 339.5 197.74 339.95 198.19 339.95 198.19 340.39 198.64 340.39 198.64 340.84 199.08 340.84 199.08 341.29 199.53 341.29 199.53 341.74 199.98 341.74 199.98 342.18 200.42 342.18 200.42 342.63 200.87 342.63 200.87 343.08 201.32 343.08 201.32 343.52 201.76 343.52 201.76 343.97 202.21 343.97 202.21 344.42 202.66 344.42 202.66 344.87 203.11 344.87 203.11 345.31 203.55 345.31 203.55 345.76 204 345.76 204 346.21 204.45 346.21 204.45 346.65 204.89 346.65 204.89 347.1 205.34 347.1 205.34 347.55 205.79 347.55 205.79 347.99 206.23 347.99 206.23 348.44 206.68 348.44 206.68 348.89 207.13 348.89 207.13 349.34 207.58 349.34 207.58 349.78 208.02 349.78 208.02 350.23 208.47 350.23 208.47 350.68 208.92 350.68 208.92 351.12 209.36 351.12 209.36 351.57 209.81 351.57 209.81 352.02 210.26 352.02 210.26 352.46 210.71 352.46 210.71 352.91 211.15 352.91 211.15 353.36 211.6 353.36 211.6 353.81 212.05 353.81 212.05 354.25 212.49 354.25 212.49 354.7 212.94 354.7 212.94 355.15 213.39 355.15 213.39 355.59 213.83 355.59 213.83 356.04 214.28 356.04 214.28 356.49 214.73 356.49 214.73 356.93 215.18 356.93 215.18 357.38 215.62 357.38 215.62 357.83 216.07 357.83 216.07 358.28 216.52 358.28 216.52 358.72 216.96 358.72 216.96 359.17 217.41 359.17 217.41 359.62 217.86 359.62 217.86 360.06 218.3 360.06 218.3 360.51 218.75 360.51 218.75 360.96 219.2 360.96 219.2 361.4 219.65 361.4 219.65 361.85 220.09 361.85 220.09 362.3 220.54 362.3 220.54 362.75 220.99 362.75 220.99 363.19 221.43 363.19 221.43 363.64 221.88 363.64 221.88 364.09 222.33 364.09 222.33 364.53 222.77 364.53 222.77 364.98 223.22 364.98 223.22 365.43 223.67 365.43 223.67 365.88 224.12 365.88 224.12 366.32 224.56 366.32 224.56 366.77 225.01 366.77 225.01 367.22 225.46 367.22 225.46 367.66 225.9 367.66 225.9 368.11 226.35 368.11 226.35 368.56 226.8 368.56 226.8 369 227.24 369 227.24 369.45 227.69 369.45 227.69 369.9 228.14 369.9 228.14 370.35 228.59 370.35 228.59 370.79 229.03 370.79 229.03 371.24 229.48 371.24 229.48 371.69 229.93 371.69 229.93 372.13 230.37 372.13 230.37 372.58 230.82 372.58 230.82 373.03 231.27 373.03 231.27 373.47 231.72 373.47 231.72 373.92 232.16 373.92 232.16 374.37 232.61 374.37 232.61 374.82 233.06 374.82 233.06 375.26 233.5 375.26 233.5 375.71 233.95 375.71 233.95 376.16 234.4 376.16 234.4 376.6 234.84 376.6 234.84 377.05 235.29 377.05 235.29 377.5 235.74 377.5 235.74 377.94 236.19 377.94 236.19 378.39 236.63 378.39 236.63 378.84 237.08 378.84 237.08 379.29 237.53 379.29 237.53 379.73 237.97 379.73 237.97 380.18 238.42 380.18 238.42 380.63 238.87 380.63 238.87 381.07 239.31 381.07 239.31 381.52 239.76 381.52 239.76 381.97 240.21 381.97 240.21 382.41 240.66 382.41 240.66 382.86 241.1 382.86 241.1 383.31 241.55 383.31 241.55 383.76 242 383.76 242 384.2 242.44 384.2 242.44 384.65 242.89 384.65 242.89 385.1 243.34 385.1 243.34 385.54 243.78 385.54 243.78 385.99 244.23 385.99 244.23 386.44 244.68 386.44 244.68 386.89 245.13 386.89 245.13 387.33 245.57 387.33 245.57 387.78 246.02 387.78 246.02 388.23 246.47 388.23 246.47 388.67 246.91 388.67 246.91 389.12 247.36 389.12 247.36 389.57 256.95 389.57 256.95 381.13 256.5 381.13 256.5 380.69 256.06 380.69 256.06 380.24 255.61 380.24 255.61 379.79 255.16 379.79 255.16 379.35 254.71 379.35 254.71 378.9 254.27 378.9 254.27 378.45 253.82 378.45 253.82 378.01 253.37 378.01 253.37 377.56 252.93 377.56 252.93 377.11 252.85 377.11 252.85 376.32 253.81 376.32 254.21 376.32 255.62 376.32 256.02 376.32 257.43 376.32 257.83 376.32 259.24 376.32 259.64 376.32 261.06 376.32 261.61 376.32 258.21 351.16 257.82 351.16"/>
          <polygon class="cls-24" points="335.14 351.16 334.75 351.16 334.69 350.72 334.31 350.72 334.25 350.27 333.86 350.27 333.8 349.82 333.41 349.82 333.35 349.38 332.96 349.38 332.9 348.93 332.52 348.93 332.46 348.48 332.07 348.48 332.01 348.03 331.62 348.03 331.56 347.59 331.18 347.59 331.12 347.14 330.73 347.14 330.67 346.69 330.28 346.69 330.22 346.25 329.84 346.25 329.78 345.8 329.39 345.8 329.33 345.35 328.94 345.35 328.88 344.9 328.49 344.9 328.43 344.46 328.05 344.46 327.99 344.01 327.6 344.01 327.54 343.56 327.15 343.56 327.09 343.12 326.71 343.12 326.65 342.67 326.26 342.67 326.2 342.22 325.81 342.22 325.75 341.78 325.37 341.78 325.31 341.33 324.92 341.33 324.86 340.88 324.47 340.88 324.41 340.43 324.02 340.43 323.96 339.99 323.58 339.99 323.52 339.54 323.13 339.54 323.07 339.09 322.68 339.09 322.62 338.65 322.24 338.65 322.18 338.2 321.79 338.2 321.73 337.75 321.34 337.75 321.28 337.31 320.9 337.31 320.83 336.86 320.45 336.86 320.39 336.41 320 336.41 319.94 335.96 319.55 335.96 319.49 335.52 319.11 335.52 319.05 335.07 318.66 335.07 318.6 334.62 318.21 334.62 318.15 334.18 317.77 334.18 317.71 333.73 317.32 333.73 317.26 333.28 316.87 333.28 316.81 332.84 316.43 332.84 316.36 332.39 315.98 332.39 315.92 331.94 315.53 331.94 315.47 331.49 315.08 331.49 315.02 331.05 314.64 331.05 314.58 330.6 314.19 330.6 314.13 330.15 313.74 330.15 313.68 329.71 313.3 329.71 313.24 329.26 312.85 329.26 312.79 328.81 312.4 328.81 312.34 328.36 311.95 328.36 311.89 327.92 311.51 327.92 311.45 327.47 311.06 327.47 311 327.02 310.61 327.02 310.55 326.58 310.17 326.58 310.11 326.13 309.72 326.13 309.66 325.68 309.27 325.68 309.21 325.24 308.83 325.24 308.77 324.79 308.38 324.79 308.32 324.34 307.93 324.34 307.87 323.89 307.48 323.89 307.42 323.45 307.04 323.45 306.98 323 306.59 323 306.53 322.55 306.14 322.55 306.08 322.11 305.7 322.11 305.64 321.66 305.25 321.66 305.19 321.21 304.8 321.21 304.74 320.77 304.36 320.77 304.3 320.32 303.91 320.32 303.85 319.87 303.46 319.87 303.4 319.42 303.01 319.42 302.95 318.98 302.57 318.98 302.51 318.53 302.12 318.53 302.06 318.08 301.67 318.08 301.61 317.64 301.23 317.64 301.17 317.19 300.78 317.19 300.72 316.74 300.33 316.74 300.27 316.3 299.89 316.3 299.82 315.85 299.44 315.85 299.38 315.4 298.99 315.4 298.93 314.95 298.54 314.95 298.48 314.51 298.1 314.51 298.04 314.06 297.65 314.06 297.59 313.61 297.2 313.61 297.14 313.17 296.76 313.17 296.7 312.72 296.31 312.72 296.25 312.27 295.86 312.27 295.8 311.83 295.42 311.83 295.35 311.38 294.97 311.38 294.91 310.93 294.52 310.93 294.46 310.48 294.07 310.48 294.01 310.04 293.63 310.04 293.57 309.59 293.18 309.59 293.12 309.14 292.73 309.14 292.67 308.7 292.29 308.7 292.23 308.25 291.84 308.25 291.78 307.8 291.39 307.8 291.33 307.35 290.94 307.35 290.88 306.91 290.5 306.91 290.44 306.46 290.05 306.46 289.99 306.01 289.6 306.01 289.54 305.57 289.16 305.57 289.1 305.12 288.71 305.12 288.65 304.67 288.26 304.67 288.2 304.23 287.82 304.23 287.76 303.78 287.37 303.78 287.31 303.33 286.92 303.33 286.86 302.88 286.47 302.88 286.41 302.44 286.03 302.44 285.97 301.99 285.58 301.99 285.52 301.54 285.13 301.54 285.07 301.1 284.69 301.1 284.63 300.65 284.24 300.65 284.18 300.2 283.79 300.2 283.73 299.76 283.35 299.76 283.29 299.31 282.9 299.31 282.84 298.86 282.45 298.86 282.39 298.41 282 298.41 281.94 297.97 281.56 297.97 281.5 297.52 281.11 297.52 281.05 297.07 280.66 297.07 280.6 296.63 280.22 296.63 280.16 296.18 279.77 296.18 279.71 295.73 279.32 295.73 279.26 295.29 278.88 295.29 278.81 294.84 278.43 294.84 278.37 294.39 277.98 294.39 277.92 293.94 277.53 293.94 277.47 293.5 277.09 293.5 277.03 293.05 276.64 293.05 276.58 292.6 276.19 292.6 276.13 292.16 275.75 292.16 275.69 291.71 275.3 291.71 275.24 291.26 274.85 291.26 274.79 290.82 274.41 290.82 274.34 290.37 273.96 290.37 273.9 289.92 273.51 289.92 273.45 289.47 273.06 289.47 273 289.03 272.62 289.03 272.56 288.58 272.17 288.58 272.11 288.13 271.72 288.13 271.66 287.69 271.28 287.69 271.22 287.24 270.83 287.24 270.77 286.79 270.38 286.79 270.32 286.34 269.93 286.34 269.87 285.9 269.49 285.9 269.43 285.45 269.04 285.45 268.98 285 268.59 285 268.53 284.56 268.15 284.56 268.09 284.11 267.7 284.11 267.64 283.66 267.25 283.66 267.19 283.22 266.81 283.22 266.75 282.77 266.36 282.77 266.3 282.32 265.91 282.32 265.85 281.87 265.46 281.87 265.4 281.43 265.02 281.43 264.96 280.98 264.57 280.98 264.51 280.53 264.12 280.53 264.06 280.09 263.68 280.09 263.62 279.64 263.23 279.64 263.17 279.19 262.78 279.19 262.72 278.75 262.34 278.75 262.28 278.3 261.89 278.3 261.83 277.85 261.44 277.85 261.38 277.4 260.99 277.4 260.93 276.96 260.55 276.96 260.49 276.51 260.1 276.51 260.04 276.06 259.65 276.06 259.59 275.62 259.21 275.62 259.15 275.17 258.76 275.17 258.7 274.72 258.31 274.72 258.25 274.28 257.87 274.28 257.8 273.83 257.42 273.83 257.36 273.38 256.97 273.38 256.91 272.93 256.52 272.93 256.46 272.49 256.08 272.49 256.02 272.04 255.63 272.04 255.57 271.59 255.18 271.59 255.12 271.15 254.74 271.15 254.68 270.7 254.29 270.7 254.23 270.25 253.84 270.25 253.78 269.81 253.4 269.81 253.33 269.36 252.95 269.36 252.89 268.91 252.5 268.91 252.44 268.46 252.05 268.46 251.99 268.02 251.61 268.02 251.55 267.57 251.16 267.57 251.1 267.12 250.71 267.12 250.65 266.68 250.27 266.68 250.21 266.23 249.82 266.23 249.76 265.78 249.37 265.78 249.31 265.33 248.92 265.33 248.86 264.89 248.48 264.89 248.42 264.44 248.03 264.44 247.97 263.99 247.58 263.99 247.52 263.55 247.14 263.55 247.08 263.1 246.69 263.1 246.63 262.65 246.24 262.65 246.18 262.21 245.8 262.21 245.74 261.76 245.35 261.76 245.29 261.31 244.9 261.31 244.84 260.86 244.45 260.86 244.39 260.42 244.01 260.42 243.95 259.97 243.56 259.97 243.5 259.52 243.11 259.52 243.05 259.08 242.67 259.08 242.61 258.63 242.22 258.63 242.16 258.18 241.77 258.18 241.71 257.74 241.33 257.74 241.27 257.29 240.88 257.29 240.82 256.84 240.43 256.84 240.37 256.39 239.98 256.39 239.92 255.95 239.54 255.95 239.48 255.5 239.09 255.5 239.03 255.05 238.64 255.05 238.58 254.61 238.2 254.61 238.14 254.16 237.75 254.16 237.69 253.71 237.3 253.71 237.24 253.27 236.86 253.27 236.79 252.82 236.41 252.82 236.35 252.37 235.96 252.37 235.9 251.92 235.51 251.92 235.45 251.48 235.07 251.48 235.01 251.03 234.62 251.03 234.56 250.58 234.17 250.58 234.11 250.14 233.73 250.14 233.67 249.69 233.28 249.69 233.22 249.24 232.83 249.24 232.77 248.8 232.39 248.8 232.32 248.35 231.94 248.35 231.88 247.9 231.49 247.9 231.43 247.45 231.04 247.45 230.98 247.01 230.6 247.01 230.54 246.56 230.15 246.56 230.09 246.11 229.7 246.11 229.64 245.67 229.26 245.67 229.2 245.22 228.81 245.22 228.75 244.77 228.36 244.77 228.3 244.32 227.91 244.32 227.85 243.88 227.47 243.88 227.41 243.43 227.02 243.43 226.96 242.98 226.57 242.98 226.51 242.54 226.13 242.54 226.07 242.09 225.68 242.09 225.62 241.64 225.23 241.64 225.17 241.2 224.79 241.2 224.73 240.75 224.34 240.75 224.28 240.3 223.89 240.3 223.83 239.85 223.44 239.85 223.38 239.41 222.85 239.41 221.97 239.41 221.72 239.41 220.83 239.41 220.58 239.41 219.7 239.41 219.45 239.41 218.56 239.41 218.31 239.41 217.43 239.41 217.33 239.41 217.18 239.41 216.29 239.41 216.04 239.41 215.16 239.41 214.91 239.41 214.02 239.41 213.77 239.41 212.89 239.41 212.64 239.41 211.76 239.41 211.28 239.41 207.88 264.57 208.39 264.57 208.33 265.02 208.83 265.02 208.77 265.46 209.28 265.46 209.22 265.91 209.73 265.91 209.67 266.36 210.17 266.36 210.11 266.8 210.62 266.8 210.56 267.25 211.07 267.25 211.01 267.7 211.52 267.7 211.46 268.14 211.96 268.14 211.9 268.59 212.41 268.59 212.35 269.04 212.86 269.04 212.81 269.38 212.54 269.38 212.54 277.81 212.98 277.81 212.98 278.26 213.43 278.26 213.43 278.71 213.88 278.71 213.88 279.15 214.33 279.15 214.33 279.6 214.77 279.6 214.77 280.05 215.22 280.05 215.22 280.49 215.67 280.49 215.67 280.94 216.11 280.94 216.11 281.39 216.56 281.39 216.56 281.84 217.01 281.84 217.01 282.28 217.45 282.28 217.45 282.73 217.9 282.73 217.9 283.18 218.35 283.18 218.35 283.62 218.8 283.62 218.8 284.07 219.24 284.07 219.24 284.52 219.69 284.52 219.69 284.96 220.14 284.96 220.14 285.41 220.58 285.41 220.58 285.86 221.03 285.86 221.03 286.31 221.48 286.31 221.48 286.75 221.93 286.75 221.93 287.2 222.37 287.2 222.37 287.65 222.82 287.65 222.82 288.09 223.27 288.09 223.27 288.54 223.71 288.54 223.71 288.99 224.16 288.99 224.16 289.43 224.61 289.43 224.61 289.88 225.05 289.88 225.05 290.33 225.5 290.33 225.5 290.78 225.95 290.78 225.95 291.22 226.4 291.22 226.4 291.67 226.84 291.67 226.84 292.12 227.29 292.12 227.29 292.56 227.74 292.56 227.74 293.01 228.18 293.01 228.18 293.46 228.63 293.46 228.63 293.9 229.08 293.9 229.08 294.35 229.52 294.35 229.52 294.8 229.97 294.8 229.97 295.25 230.42 295.25 230.42 295.69 230.87 295.69 230.87 296.14 231.31 296.14 231.31 296.59 231.76 296.59 231.76 297.03 232.21 297.03 232.21 297.48 232.65 297.48 232.65 297.93 233.1 297.93 233.1 298.37 233.55 298.37 233.55 298.82 233.99 298.82 233.99 299.27 234.44 299.27 234.44 299.72 234.89 299.72 234.89 300.16 235.34 300.16 235.34 300.61 235.78 300.61 235.78 301.06 236.23 301.06 236.23 301.5 236.68 301.5 236.68 301.95 237.12 301.95 237.12 302.4 237.57 302.4 237.57 302.85 238.02 302.85 238.02 303.29 238.46 303.29 238.46 303.74 238.91 303.74 238.91 304.19 239.36 304.19 239.36 304.63 239.81 304.63 239.81 305.08 240.25 305.08 240.25 305.53 240.7 305.53 240.7 305.97 241.15 305.97 241.15 306.42 241.59 306.42 241.59 306.87 242.04 306.87 242.04 307.32 242.49 307.32 242.49 307.76 242.94 307.76 242.94 308.21 243.38 308.21 243.38 308.66 243.83 308.66 243.83 309.1 244.28 309.1 244.28 309.55 244.72 309.55 244.72 310 245.17 310 245.17 310.44 245.62 310.44 245.62 310.89 246.06 310.89 246.06 311.34 246.51 311.34 246.51 311.79 246.96 311.79 246.96 312.23 247.41 312.23 247.41 312.68 247.85 312.68 247.85 313.13 248.3 313.13 248.3 313.57 248.75 313.57 248.75 314.02 249.19 314.02 249.19 314.47 249.64 314.47 249.64 314.91 250.09 314.91 250.09 315.36 250.53 315.36 250.53 315.81 250.98 315.81 250.98 316.26 251.43 316.26 251.43 316.7 251.88 316.7 251.88 317.15 252.32 317.15 252.32 317.6 252.77 317.6 252.77 318.04 253.22 318.04 253.22 318.49 253.66 318.49 253.66 318.94 254.11 318.94 254.11 319.38 254.56 319.38 254.56 319.83 255 319.83 255 320.28 255.45 320.28 255.45 320.73 255.9 320.73 255.9 321.17 256.35 321.17 256.35 321.62 256.79 321.62 256.79 322.07 257.24 322.07 257.24 322.51 257.69 322.51 257.69 322.96 258.13 322.96 258.13 323.41 258.58 323.41 258.58 323.86 259.03 323.86 259.03 324.3 259.47 324.3 259.47 324.75 259.92 324.75 259.92 325.2 260.37 325.2 260.37 325.64 260.82 325.64 260.82 326.09 261.26 326.09 261.26 326.54 261.71 326.54 261.71 326.98 262.16 326.98 262.16 327.43 262.6 327.43 262.6 327.88 263.05 327.88 263.05 328.33 263.5 328.33 263.5 328.77 263.95 328.77 263.95 329.22 264.39 329.22 264.39 329.67 264.84 329.67 264.84 330.11 265.29 330.11 265.29 330.56 265.73 330.56 265.73 331.01 266.18 331.01 266.18 331.45 266.63 331.45 266.63 331.9 267.07 331.9 267.07 332.35 267.52 332.35 267.52 332.8 267.97 332.8 267.97 333.24 268.42 333.24 268.42 333.69 268.86 333.69 268.86 334.14 269.31 334.14 269.31 334.58 269.76 334.58 269.76 335.03 270.2 335.03 270.2 335.48 270.65 335.48 270.65 335.92 271.1 335.92 271.1 336.37 271.54 336.37 271.54 336.82 271.99 336.82 271.99 337.27 272.44 337.27 272.44 337.71 272.89 337.71 272.89 338.16 273.33 338.16 273.33 338.61 273.78 338.61 273.78 339.05 274.23 339.05 274.23 339.5 274.67 339.5 274.67 339.95 275.12 339.95 275.12 340.39 275.57 340.39 275.57 340.84 276.01 340.84 276.01 341.29 276.46 341.29 276.46 341.74 276.91 341.74 276.91 342.18 277.36 342.18 277.36 342.63 277.8 342.63 277.8 343.08 278.25 343.08 278.25 343.52 278.7 343.52 278.7 343.97 279.14 343.97 279.14 344.42 279.59 344.42 279.59 344.87 280.04 344.87 280.04 345.31 280.48 345.31 280.48 345.76 280.93 345.76 280.93 346.21 281.38 346.21 281.38 346.65 281.83 346.65 281.83 347.1 282.27 347.1 282.27 347.55 282.72 347.55 282.72 347.99 283.17 347.99 283.17 348.44 283.61 348.44 283.61 348.89 284.06 348.89 284.06 349.34 284.51 349.34 284.51 349.78 284.96 349.78 284.96 350.23 285.4 350.23 285.4 350.68 285.85 350.68 285.85 351.12 286.3 351.12 286.3 351.57 286.74 351.57 286.74 352.02 287.19 352.02 287.19 352.46 287.64 352.46 287.64 352.91 288.08 352.91 288.08 353.36 288.53 353.36 288.53 353.81 288.98 353.81 288.98 354.25 289.43 354.25 289.43 354.7 289.87 354.7 289.87 355.15 290.32 355.15 290.32 355.59 290.77 355.59 290.77 356.04 291.21 356.04 291.21 356.49 291.66 356.49 291.66 356.93 292.11 356.93 292.11 357.38 292.55 357.38 292.55 357.83 293 357.83 293 358.28 293.45 358.28 293.45 358.72 293.9 358.72 293.9 359.17 294.34 359.17 294.34 359.62 294.79 359.62 294.79 360.06 295.24 360.06 295.24 360.51 295.68 360.51 295.68 360.96 296.13 360.96 296.13 361.4 296.58 361.4 296.58 361.85 297.02 361.85 297.02 362.3 297.47 362.3 297.47 362.75 297.92 362.75 297.92 363.19 298.37 363.19 298.37 363.64 298.81 363.64 298.81 364.09 299.26 364.09 299.26 364.53 299.71 364.53 299.71 364.98 300.15 364.98 300.15 365.43 300.6 365.43 300.6 365.88 301.05 365.88 301.05 366.32 301.49 366.32 301.49 366.77 301.94 366.77 301.94 367.22 302.39 367.22 302.39 367.66 302.84 367.66 302.84 368.11 303.28 368.11 303.28 368.56 303.73 368.56 303.73 369 304.18 369 304.18 369.45 304.62 369.45 304.62 369.9 305.07 369.9 305.07 370.35 305.52 370.35 305.52 370.79 305.97 370.79 305.97 371.24 306.41 371.24 306.41 371.69 306.86 371.69 306.86 372.13 307.31 372.13 307.31 372.58 307.75 372.58 307.75 373.03 308.2 373.03 308.2 373.47 308.65 373.47 308.65 373.92 309.09 373.92 309.09 374.37 309.54 374.37 309.54 374.82 309.99 374.82 309.99 375.26 310.44 375.26 310.44 375.71 310.88 375.71 310.88 376.16 311.33 376.16 311.33 376.6 311.78 376.6 311.78 377.05 312.22 377.05 312.22 377.5 312.67 377.5 312.67 377.94 313.12 377.94 313.12 378.39 313.56 378.39 313.56 378.84 314.01 378.84 314.01 379.29 314.46 379.29 314.46 379.73 314.91 379.73 314.91 380.18 315.35 380.18 315.35 380.63 315.8 380.63 315.8 381.07 316.25 381.07 316.25 381.52 316.69 381.52 316.69 381.97 317.14 381.97 317.14 382.41 317.59 382.41 317.59 382.86 318.03 382.86 318.03 383.31 318.48 383.31 318.48 383.76 318.93 383.76 318.93 384.2 319.38 384.2 319.38 384.65 319.82 384.65 319.82 385.1 320.27 385.1 320.27 385.54 320.72 385.54 320.72 385.99 321.16 385.99 321.16 386.44 321.61 386.44 321.61 386.89 322.06 386.89 322.06 387.33 322.5 387.33 322.5 387.78 322.95 387.78 322.95 388.23 323.4 388.23 323.4 388.67 323.85 388.67 323.85 389.12 324.29 389.12 324.29 389.57 333.88 389.57 333.88 381.13 333.43 381.13 333.43 380.69 332.99 380.69 332.99 380.24 332.54 380.24 332.54 379.79 332.09 379.79 332.09 379.35 331.65 379.35 331.65 378.9 331.2 378.9 331.2 378.45 330.75 378.45 330.75 378.01 330.31 378.01 330.31 377.56 329.86 377.56 329.86 377.11 329.78 377.11 329.78 376.32 330.74 376.32 331.14 376.32 332.55 376.32 332.95 376.32 334.36 376.32 334.76 376.32 336.17 376.32 336.57 376.32 337.99 376.32 338.54 376.32 335.14 351.16"/>
        </g>
        <g>
          <g>
            <g>
              <rect class="cls-67" x="135.61" y="269.38" width="9.59" height="8.43"/>
              <rect class="cls-61" x="136.01" y="269.79" width="8.77" height="7.62"/>
              <rect class="cls-69" x="139.7" y="261.22" width="1.39" height="12.37"/>
            </g>
            <g>
              <polygon class="cls-31" points="134.35 239.41 140.4 239.41 146.45 239.41 149.85 264.57 140.4 264.57 130.95 264.57 134.35 239.41"/>
              <g>
                <path class="cls-7" d="m135.71,239.41h-.88c-.36,2.81-.77,6.01-1.25,9.69-.55,4.31-1.21,9.39-1.99,15.47h1.41c.66-6.08,1.2-11.16,1.67-15.46.4-3.69.74-6.89,1.04-9.7Z"/>
                <path class="cls-7" d="m136.84,239.41h-.88c-.29,2.81-.61,6.01-.99,9.7-.44,4.3-.96,9.39-1.58,15.46h1.41c.49-6.08.9-11.16,1.25-15.46.3-3.69.56-6.89.78-9.7Z"/>
                <path class="cls-7" d="m137.98,239.41h-.88c-.21,2.81-.45,6.01-.73,9.7-.32,4.3-.7,9.39-1.16,15.46h1.41c.33-6.08.6-11.16.84-15.46.2-3.69.37-6.89.52-9.7Z"/>
                <path class="cls-7" d="m139.11,239.41h-.88c-.13,2.81-.29,6.01-.47,9.7-.21,4.3-.45,9.39-.74,15.46h1.41c.16-6.08.3-11.16.42-15.46.1-3.69.19-6.89.26-9.7Z"/>
                <path class="cls-7" d="m140.25,239.41h-.88c-.06,2.81-.13,6.01-.21,9.7-.09,4.3-.2,9.39-.33,15.46h1.41c0-6.08,0-11.16,0-15.46,0-3.69,0-6.89,0-9.7Z"/>
                <path class="cls-7" d="m141.38,239.41h-.88c.02,2.81.03,6.01.06,9.7.02,4.3.05,9.39.09,15.46h1.41c-.16-6.08-.3-11.16-.41-15.46-.1-3.69-.18-6.89-.26-9.7Z"/>
                <path class="cls-7" d="m142.52,239.41h-.88c.09,2.81.2,6.01.32,9.7.14,4.3.31,9.39.5,15.46h1.41c-.33-6.08-.6-11.16-.83-15.46-.2-3.69-.37-6.89-.52-9.7Z"/>
                <path class="cls-7" d="m143.65,239.41h-.88c.17,2.81.36,6.01.58,9.7.26,4.3.56,9.38.92,15.46h1.41c-.49-6.08-.9-11.16-1.24-15.46-.3-3.69-.55-6.89-.78-9.7Z"/>
                <path class="cls-7" d="m144.78,239.41h-.88c.24,2.81.52,6.01.84,9.7.37,4.3.81,9.38,1.34,15.46h1.41c-.65-6.08-1.2-11.16-1.66-15.46-.4-3.69-.74-6.89-1.04-9.7Z"/>
                <path class="cls-7" d="m145.92,239.41h-.89c.32,2.81.68,6.01,1.1,9.7.49,4.3,1.06,9.38,1.75,15.46h1.41c-.82-6.08-1.5-11.16-2.08-15.46-.5-3.69-.93-6.89-1.3-9.7Z"/>
              </g>
            </g>
          </g>
          <g>
            <g>
              <rect class="cls-67" x="212.54" y="269.38" width="9.59" height="8.43"/>
              <rect class="cls-61" x="212.95" y="269.79" width="8.77" height="7.62"/>
              <rect class="cls-69" x="216.64" y="261.22" width="1.39" height="12.37"/>
            </g>
            <g>
              <polygon class="cls-31" points="211.28 239.41 217.33 239.41 223.38 239.41 226.78 264.57 217.33 264.57 207.88 264.57 211.28 239.41"/>
              <g>
                <path class="cls-7" d="m212.64,239.41h-.88c-.36,2.81-.77,6.01-1.25,9.69-.55,4.31-1.21,9.39-1.99,15.47h1.41c.66-6.08,1.2-11.16,1.67-15.46.4-3.69.74-6.89,1.04-9.7Z"/>
                <path class="cls-7" d="m213.77,239.41h-.88c-.29,2.81-.61,6.01-.99,9.7-.44,4.3-.96,9.39-1.58,15.46h1.41c.49-6.08.9-11.16,1.25-15.46.3-3.69.56-6.89.78-9.7Z"/>
                <path class="cls-7" d="m214.91,239.41h-.88c-.21,2.81-.45,6.01-.73,9.7-.32,4.3-.7,9.39-1.16,15.46h1.41c.33-6.08.6-11.16.84-15.46.2-3.69.37-6.89.52-9.7Z"/>
                <path class="cls-7" d="m216.04,239.41h-.88c-.13,2.81-.29,6.01-.47,9.7-.21,4.3-.45,9.39-.74,15.46h1.41c.16-6.08.3-11.16.42-15.46.1-3.69.19-6.89.26-9.7Z"/>
                <path class="cls-7" d="m217.18,239.41h-.88c-.06,2.81-.13,6.01-.2,9.7-.09,4.3-.2,9.39-.33,15.46h1.41c0-6.08,0-11.16,0-15.46,0-3.69,0-6.89,0-9.7Z"/>
                <path class="cls-7" d="m218.31,239.41h-.88c.02,2.81.03,6.01.06,9.7.02,4.3.05,9.39.09,15.46h1.41c-.16-6.08-.3-11.16-.41-15.46-.1-3.69-.18-6.89-.26-9.7Z"/>
                <path class="cls-7" d="m219.45,239.41h-.88c.09,2.81.2,6.01.32,9.7.14,4.3.31,9.39.5,15.46h1.41c-.33-6.08-.6-11.16-.83-15.46-.2-3.69-.37-6.89-.52-9.7Z"/>
                <path class="cls-7" d="m220.58,239.41h-.88c.17,2.81.36,6.01.58,9.7.26,4.3.56,9.38.92,15.46h1.41c-.49-6.08-.9-11.16-1.24-15.46-.3-3.69-.55-6.89-.78-9.7Z"/>
                <path class="cls-7" d="m221.72,239.41h-.88c.24,2.81.52,6.01.84,9.7.37,4.3.81,9.38,1.34,15.46h1.41c-.65-6.08-1.2-11.16-1.66-15.46-.4-3.69-.74-6.89-1.04-9.7Z"/>
                <path class="cls-7" d="m222.85,239.41h-.89c.32,2.81.68,6.01,1.1,9.7.49,4.3,1.06,9.38,1.75,15.46h1.41c-.82-6.08-1.5-11.16-2.08-15.46-.49-3.69-.93-6.89-1.3-9.7Z"/>
              </g>
            </g>
          </g>
        </g>
        <g>
          <path class="cls-6" d="m157.5,317.93c-.06.28-.11.57-.14.86h-1.26c-.58,0-1.05.47-1.05,1.05v2.62c0,.58.47,1.05,1.05,1.05h1.95c.18,0,.35-.05.5-.13.38.52.83.96,1.34,1.3h4.9c1.52-1.02,2.56-2.97,2.56-5.2h0c0-.54-.06-1.06-.17-1.55h-9.68Zm-.17,1.32c0,.08,0,.15,0,.23h0c0,1.31.36,2.53.96,3.51-.07.03-.16.05-.24.05h-1.95c-.32,0-.59-.26-.59-.59v-2.62c0-.32.26-.59.59-.59h1.23Z"/>
          <path class="cls-8" d="m155.91,324.31s0,.04,0,.06h0c0,.46.22.83.49.83h11.31c.27,0,.49-.37.49-.83h0s0-.04,0-.06h-12.29Z"/>
        </g>
        <g>
          <path class="cls-6" d="m199.36,317.93c.06.28.11.57.14.86h1.26c.58,0,1.05.47,1.05,1.05v2.62c0,.58-.47,1.05-1.05,1.05h-1.95c-.18,0-.35-.05-.5-.13-.38.52-.83.96-1.34,1.3h-4.9c-1.52-1.02-2.56-2.97-2.56-5.2h0c0-.54.06-1.06.17-1.55h9.68Zm.17,1.32c0,.08,0,.15,0,.23h0c0,1.31-.36,2.53-.96,3.51.07.03.16.05.24.05h1.95c.32,0,.59-.26.59-.59v-2.62c0-.32-.26-.59-.59-.59h-1.23Z"/>
          <path class="cls-8" d="m200.96,324.31s0,.04,0,.06h0c0,.46-.22.83-.49.83h-11.31c-.27,0-.49-.37-.49-.83h0s0-.04,0-.06h12.29Z"/>
        </g>
        <rect class="cls-74" x="175.32" y="332.96" width="3.49" height="46.31" rx="1.74" ry="1.74"/>
        <rect class="cls-79" x="401.07" y="328.49" width="8.43" height="53.53"/>
        <g>
          <path class="cls-76" d="m424.34,325.39h-27.81c-.39,0-.71-.32-.71-.71h0c0-.39.32-.71.71-.71h27.81c.39,0,.71.32.71.71h0c0,.39-.32.71-.71.71Z"/>
          <path class="cls-56" d="m424.59,323.97h-28.32c-.25,0-.45.32-.45.71h29.23c0-.39-.2-.71-.45-.71Z"/>
        </g>
        <rect class="cls-73" x="372.24" y="325.2" width="66.1" height="5.84" rx=".7" ry=".7"/>
        <rect class="cls-52" x="398.96" y="381.1" width="12.64" height=".93" rx=".46" ry=".46"/>
        <path class="cls-2" d="m498.44,294.43l-5.4-.34c-1.65-.1-3.09,1.16-3.2,2.81l-2.99,44.79c-.11,1.65,1.15,3.08,2.8,3.18l5.4.34c1.65.1,3.09-1.16,3.2-2.81l2.99-44.79c.11-1.65-1.15-3.08-2.8-3.18Z"/>
        <path class="cls-30" d="m591.76,284.54h10.27c.19,0,.39.01.57.03v87.12c-.19.02-.38.03-.57.03h-10.27c-3.01,0-5.44-2.37-5.44-5.29v-76.6c0-2.92,2.44-5.29,5.44-5.29Z"/>
        <path class="cls-28" d="m542.93,294.48l5.4-.34c1.65-.1,3.09,1.16,3.2,2.81l2.99,44.79c.11,1.65-1.15,3.08-2.8,3.18l-5.4.34c-1.65.1-3.09-1.16-3.2-2.81l-2.99-44.79c-.11-1.65,1.15-3.08,2.8-3.18Z"/>
        <path class="cls-9" d="m552.02,343.34h47.95c1.21,0,2.2,1,2.2,2.22v5.2c0,1.22-.99,2.22-2.2,2.22h-47.95c-1.21,0-2.2-1-2.2-2.22v-5.2c0-1.22.99-2.22,2.2-2.22Z"/>
        <polygon class="cls-22" points="550.32 350.52 547.39 291.86 532.17 291.86 532.17 382.07 549.9 382.07 551.9 382.07 602.61 382.07 602.61 350.52 550.32 350.52"/>
        <path class="cls-36" d="m532.21,287.92h15.13c.47,0,.85.38.85.85v2.99c0,.47-.38.85-.85.85h-15.13v-4.69Z"/>
        <polygon class="cls-41" points="550.35 350.75 547.42 292.09 532.21 292.09 532.21 382.31 549.94 382.31 551.93 382.31 584.93 382.31 584.93 350.75 550.35 350.75"/>
        <path class="cls-51" d="m489.36,343.3h-47.93c-1.21,0-2.2,1-2.2,2.22v5.2c0,1.22.99,2.22,2.2,2.22h47.93c1.21,0,2.2-1,2.2-2.22v-5.2c0-1.22-.99-2.22-2.2-2.22Z"/>
        <polygon class="cls-34" points="493.98 291.81 491.05 350.47 438.77 350.47 438.77 382.02 489.48 382.02 491.47 382.02 509.2 382.02 509.2 291.81 493.98 291.81"/>
        <path class="cls-48" d="m509.2,287.64h-15.13c-.47,0-.85.38-.85.85v2.99c0,.47.38.85.85.85h15.13v-4.69Z"/>
        <path class="cls-20" d="m531.86,367.99v-98.37h.3c.26,0,.48-.22.48-.48v-1c0-.26-.22-.48-.48-.48h-23.75c-.26,0-.48.22-.48.48v1c0,.26.22.48.48.48h.3v98.37h-70.96v14.03h146.33v-14.03h-52.23Z"/>
        <g>
          <rect class="cls-53" x="243.18" y="244.57" width="41.12" height="13.14" rx="1.6" ry="1.6"/>
          <rect class="cls-60" x="299.8" y="244.57" width="41.12" height="13.14" rx="1.6" ry="1.6"/>
          <rect class="cls-65" x="356.42" y="244.57" width="41.12" height="13.14" rx="1.6" ry="1.6"/>
          <rect class="cls-63" x="413.04" y="244.57" width="41.12" height="13.14" rx="1.6" ry="1.6"/>
          <rect class="cls-64" x="469.65" y="244.57" width="41.12" height="13.14" rx="1.6" ry="1.6"/>
          <rect class="cls-58" x="526.27" y="244.57" width="41.12" height="13.14" rx="1.6" ry="1.6"/>
        </g>
        <g class="cls-54">
          <polygon class="cls-12" points="484.3 351.16 484.24 350.72 483.85 350.72 483.79 350.27 483.4 350.27 483.34 349.82 482.95 349.82 482.89 349.38 482.51 349.38 482.45 348.93 482.06 348.93 482 348.48 481.61 348.48 481.55 348.03 481.17 348.03 481.11 347.59 480.72 347.59 480.66 347.14 480.27 347.14 480.21 346.69 479.83 346.69 479.77 346.25 479.38 346.25 479.32 345.8 478.93 345.8 478.87 345.35 478.48 345.35 478.42 344.9 478.04 344.9 477.98 344.46 477.59 344.46 477.53 344.01 477.14 344.01 477.08 343.56 476.7 343.56 476.64 343.12 476.25 343.12 476.19 342.67 475.8 342.67 475.74 342.22 475.36 342.22 475.3 341.78 474.91 341.78 474.85 341.33 474.46 341.33 474.4 340.88 474.01 340.88 473.95 340.43 473.57 340.43 473.51 339.99 473.12 339.99 473.06 339.54 472.67 339.54 472.61 339.09 472.23 339.09 472.17 338.65 471.78 338.65 471.72 338.2 471.33 338.2 471.27 337.75 470.89 337.75 470.82 337.31 470.44 337.31 470.38 336.86 469.99 336.86 469.93 336.41 469.54 336.41 469.48 335.96 469.1 335.96 469.04 335.52 468.65 335.52 468.59 335.07 468.2 335.07 468.14 334.62 467.76 334.62 467.7 334.18 467.31 334.18 467.25 333.73 466.86 333.73 466.8 333.28 466.42 333.28 466.35 332.84 465.97 332.84 465.91 332.39 465.52 332.39 465.46 331.94 465.07 331.94 465.01 331.49 464.63 331.49 464.57 331.05 464.18 331.05 464.12 330.6 463.73 330.6 463.67 330.15 463.29 330.15 463.23 329.71 462.84 329.71 462.78 329.26 462.39 329.26 462.33 328.81 461.94 328.81 461.88 328.36 461.5 328.36 461.44 327.92 461.05 327.92 460.99 327.47 460.6 327.47 460.54 327.02 460.16 327.02 460.1 326.58 459.71 326.58 459.65 326.13 459.26 326.13 459.2 325.68 458.82 325.68 458.76 325.24 458.37 325.24 458.31 324.79 457.92 324.79 457.86 324.34 457.47 324.34 457.41 323.89 457.03 323.89 456.97 323.45 456.58 323.45 456.52 323 456.13 323 456.07 322.55 455.69 322.55 455.63 322.11 455.24 322.11 455.18 321.66 454.79 321.66 454.73 321.21 454.35 321.21 454.29 320.77 453.9 320.77 453.84 320.32 453.45 320.32 453.39 319.87 453 319.87 452.94 319.42 452.56 319.42 452.5 318.98 452.11 318.98 452.05 318.53 451.66 318.53 451.6 318.08 451.22 318.08 451.16 317.64 450.77 317.64 450.71 317.19 450.32 317.19 450.26 316.74 449.88 316.74 449.81 316.3 449.43 316.3 449.37 315.85 448.98 315.85 448.92 315.4 448.53 315.4 448.47 314.95 448.09 314.95 448.03 314.51 447.64 314.51 447.58 314.06 447.19 314.06 447.13 313.61 446.75 313.61 446.69 313.17 446.3 313.17 446.24 312.72 445.85 312.72 445.79 312.27 445.41 312.27 445.34 311.83 444.96 311.83 444.9 311.38 444.51 311.38 444.45 310.93 444.06 310.93 444 310.48 443.62 310.48 443.56 310.04 443.17 310.04 443.11 309.59 442.72 309.59 442.66 309.14 442.28 309.14 442.22 308.7 441.83 308.7 441.77 308.25 441.38 308.25 441.32 307.8 440.93 307.8 440.87 307.35 440.49 307.35 440.43 306.91 440.04 306.91 439.98 306.46 439.59 306.46 439.53 306.01 439.15 306.01 439.09 305.57 438.7 305.57 438.64 305.12 438.25 305.12 438.19 304.67 437.81 304.67 437.75 304.23 437.36 304.23 437.3 303.78 436.91 303.78 436.85 303.33 436.46 303.33 436.4 302.88 436.02 302.88 435.96 302.44 435.57 302.44 435.51 301.99 435.12 301.99 435.06 301.54 434.68 301.54 434.62 301.1 434.23 301.1 434.17 300.65 433.78 300.65 433.72 300.2 433.34 300.2 433.28 299.76 432.89 299.76 432.83 299.31 432.44 299.31 432.38 298.86 431.99 298.86 431.93 298.41 431.55 298.41 431.49 297.97 431.1 297.97 431.04 297.52 430.65 297.52 430.59 297.07 430.21 297.07 430.15 296.63 429.76 296.63 429.7 296.18 429.31 296.18 429.25 295.73 428.87 295.73 428.8 295.29 428.42 295.29 428.36 294.84 427.97 294.84 427.91 294.39 427.52 294.39 427.46 293.94 427.08 293.94 427.02 293.5 426.63 293.5 426.57 293.05 426.18 293.05 426.12 292.6 425.74 292.6 425.68 292.16 425.29 292.16 425.23 291.71 424.84 291.71 424.78 291.26 424.4 291.26 424.33 290.82 423.95 290.82 423.89 290.37 423.5 290.37 423.44 289.92 423.05 289.92 422.99 289.47 422.61 289.47 422.55 289.03 422.16 289.03 422.1 288.58 421.71 288.58 421.65 288.13 421.27 288.13 421.21 287.69 420.82 287.69 420.76 287.24 420.37 287.24 420.31 286.79 419.92 286.79 419.86 286.34 419.48 286.34 419.42 285.9 419.03 285.9 418.97 285.45 418.58 285.45 418.52 285 418.14 285 418.08 284.56 417.69 284.56 417.63 284.11 417.24 284.11 417.18 283.66 416.8 283.66 416.74 283.22 416.35 283.22 416.29 282.77 415.9 282.77 415.84 282.32 415.45 282.32 415.39 281.87 415.01 281.87 414.95 281.43 414.56 281.43 414.5 280.98 414.11 280.98 414.05 280.53 413.67 280.53 413.61 280.09 413.22 280.09 413.16 279.64 412.77 279.64 412.71 279.19 412.33 279.19 412.27 278.75 411.88 278.75 411.82 278.3 411.43 278.3 411.37 277.85 410.98 277.85 410.92 277.4 410.54 277.4 410.48 276.96 410.09 276.96 410.03 276.51 409.64 276.51 409.58 276.06 409.2 276.06 409.14 275.62 408.75 275.62 408.69 275.17 408.3 275.17 408.24 274.72 407.86 274.72 407.79 274.28 407.41 274.28 407.35 273.83 406.96 273.83 406.9 273.38 406.51 273.38 406.45 272.93 406.07 272.93 406.01 272.49 405.62 272.49 405.56 272.04 405.17 272.04 405.11 271.59 404.73 271.59 404.67 271.15 404.28 271.15 404.22 270.7 403.83 270.7 403.77 270.25 403.39 270.25 403.32 269.81 402.94 269.81 402.88 269.36 402.49 269.36 402.43 268.91 402.04 268.91 401.98 268.46 401.6 268.46 401.54 268.02 401.15 268.02 401.09 267.57 400.7 267.57 400.64 267.12 400.26 267.12 400.2 266.68 399.81 266.68 399.75 266.23 399.36 266.23 399.3 265.78 398.91 265.78 398.85 265.33 398.47 265.33 398.41 264.89 398.02 264.89 397.96 264.44 397.57 264.44 397.51 263.99 397.13 263.99 397.07 263.55 396.68 263.55 396.62 263.1 396.23 263.1 396.17 262.65 395.79 262.65 395.73 262.21 395.34 262.21 395.28 261.76 394.89 261.76 394.83 261.31 394.44 261.31 394.38 260.86 394 260.86 393.94 260.42 393.55 260.42 393.49 259.97 393.1 259.97 393.04 259.52 392.66 259.52 392.6 259.08 392.21 259.08 392.15 258.63 391.76 258.63 391.7 258.18 391.32 258.18 391.26 257.74 390.87 257.74 390.81 257.29 390.42 257.29 390.36 256.84 389.97 256.84 389.91 256.39 389.53 256.39 389.47 255.95 389.08 255.95 389.02 255.5 388.63 255.5 388.57 255.05 388.19 255.05 388.13 254.61 387.74 254.61 387.68 254.16 387.29 254.16 387.23 253.71 386.85 253.71 386.78 253.27 386.4 253.27 386.34 252.82 385.95 252.82 385.89 252.37 385.5 252.37 385.44 251.92 385.06 251.92 385 251.48 384.61 251.48 384.55 251.03 384.16 251.03 384.1 250.58 383.72 250.58 383.66 250.14 383.27 250.14 383.21 249.69 382.82 249.69 382.76 249.24 382.38 249.24 382.31 248.8 381.93 248.8 381.87 248.35 381.48 248.35 381.42 247.9 381.03 247.9 380.97 247.45 380.59 247.45 380.53 247.01 380.14 247.01 380.08 246.56 379.69 246.56 379.63 246.11 379.25 246.11 379.19 245.67 378.8 245.67 378.74 245.22 378.35 245.22 378.29 244.77 377.9 244.77 377.84 244.32 377.46 244.32 377.4 243.88 377.01 243.88 376.95 243.43 376.56 243.43 376.5 242.98 376.12 242.98 376.06 242.54 375.67 242.54 375.61 242.09 375.22 242.09 375.16 241.64 374.78 241.64 374.72 241.2 374.33 241.2 374.27 240.75 373.88 240.75 373.82 240.3 373.43 240.3 373.37 239.85 372.99 239.85 372.93 239.41 372.4 239.41 371.51 239.41 371.26 239.41 370.38 239.41 370.12 239.41 369.24 239.41 368.99 239.41 368.11 239.41 367.86 239.41 366.97 239.41 366.88 239.41 366.72 239.41 365.84 239.41 365.59 239.41 364.7 239.41 364.45 239.41 363.57 239.41 363.32 239.41 362.43 239.41 362.18 239.41 361.3 239.41 360.82 239.41 357.42 264.57 357.93 264.57 357.87 265.02 358.38 265.02 358.32 265.46 358.82 265.46 358.76 265.91 359.27 265.91 359.21 266.36 359.72 266.36 359.66 266.8 360.17 266.8 360.1 267.25 360.61 267.25 360.55 267.7 361.06 267.7 361 268.14 361.51 268.14 361.45 268.59 361.95 268.59 361.89 269.04 362.4 269.04 362.35 269.38 362.08 269.38 362.08 277.81 362.53 277.81 362.53 278.26 362.97 278.26 362.97 278.71 363.42 278.71 363.42 279.15 363.87 279.15 363.87 279.6 364.32 279.6 364.32 280.05 364.76 280.05 364.76 280.49 365.21 280.49 365.21 280.94 365.66 280.94 365.66 281.39 366.1 281.39 366.1 281.84 366.55 281.84 366.55 282.28 367 282.28 367 282.73 367.44 282.73 367.44 283.18 367.89 283.18 367.89 283.62 368.34 283.62 368.34 284.07 368.79 284.07 368.79 284.52 369.23 284.52 369.23 284.96 369.68 284.96 369.68 285.41 370.13 285.41 370.13 285.86 370.57 285.86 370.57 286.31 371.02 286.31 371.02 286.75 371.47 286.75 371.47 287.2 371.91 287.2 371.91 287.65 372.36 287.65 372.36 288.09 372.81 288.09 372.81 288.54 373.26 288.54 373.26 288.99 373.7 288.99 373.7 289.43 374.15 289.43 374.15 289.88 374.6 289.88 374.6 290.33 375.04 290.33 375.04 290.78 375.49 290.78 375.49 291.22 375.94 291.22 375.94 291.67 376.39 291.67 376.39 292.12 376.83 292.12 376.83 292.56 377.28 292.56 377.28 293.01 377.73 293.01 377.73 293.46 378.17 293.46 378.17 293.9 378.62 293.9 378.62 294.35 379.07 294.35 379.07 294.8 379.51 294.8 379.51 295.25 379.96 295.25 379.96 295.69 380.41 295.69 380.41 296.14 380.86 296.14 380.86 296.59 381.3 296.59 381.3 297.03 381.75 297.03 381.75 297.48 382.2 297.48 382.2 297.93 382.64 297.93 382.64 298.37 383.09 298.37 383.09 298.82 383.54 298.82 383.54 299.27 383.98 299.27 383.98 299.72 384.43 299.72 384.43 300.16 384.88 300.16 384.88 300.61 385.33 300.61 385.33 301.06 385.77 301.06 385.77 301.5 386.22 301.5 386.22 301.95 386.67 301.95 386.67 302.4 387.11 302.4 387.11 302.85 387.56 302.85 387.56 303.29 388.01 303.29 388.01 303.74 388.45 303.74 388.45 304.19 388.9 304.19 388.9 304.63 389.35 304.63 389.35 305.08 389.8 305.08 389.8 305.53 390.24 305.53 390.24 305.97 390.69 305.97 390.69 306.42 391.14 306.42 391.14 306.87 391.58 306.87 391.58 307.32 392.03 307.32 392.03 307.76 392.48 307.76 392.48 308.21 392.92 308.21 392.92 308.66 393.37 308.66 393.37 309.1 393.82 309.1 393.82 309.55 394.27 309.55 394.27 310 394.71 310 394.71 310.44 395.16 310.44 395.16 310.89 395.61 310.89 395.61 311.34 396.05 311.34 396.05 311.79 396.5 311.79 396.5 312.23 396.95 312.23 396.95 312.68 397.4 312.68 397.4 313.13 397.84 313.13 397.84 313.57 398.29 313.57 398.29 314.02 398.74 314.02 398.74 314.47 399.18 314.47 399.18 314.91 399.63 314.91 399.63 315.36 400.08 315.36 400.08 315.81 400.52 315.81 400.52 316.26 400.97 316.26 400.97 316.7 401.42 316.7 401.42 317.15 401.87 317.15 401.87 317.6 402.31 317.6 402.31 318.04 402.76 318.04 402.76 318.49 403.21 318.49 403.21 318.94 403.65 318.94 403.65 319.38 404.1 319.38 404.1 319.83 404.55 319.83 404.55 320.28 404.99 320.28 404.99 320.73 405.44 320.73 405.44 321.17 405.89 321.17 405.89 321.62 406.34 321.62 406.34 322.07 406.78 322.07 406.78 322.51 407.23 322.51 407.23 322.96 407.68 322.96 407.68 323.41 408.12 323.41 408.12 323.86 408.57 323.86 408.57 324.3 409.02 324.3 409.02 324.75 409.46 324.75 409.46 325.2 409.91 325.2 409.91 325.64 410.36 325.64 410.36 326.09 410.81 326.09 410.81 326.54 411.25 326.54 411.25 326.98 411.7 326.98 411.7 327.43 412.15 327.43 412.15 327.88 412.59 327.88 412.59 328.33 413.04 328.33 413.04 328.77 413.49 328.77 413.49 329.22 413.94 329.22 413.94 329.67 414.38 329.67 414.38 330.11 414.83 330.11 414.83 330.56 415.28 330.56 415.28 331.01 415.72 331.01 415.72 331.45 416.17 331.45 416.17 331.9 416.62 331.9 416.62 332.35 417.06 332.35 417.06 332.8 417.51 332.8 417.51 333.24 417.96 333.24 417.96 333.69 418.41 333.69 418.41 334.14 418.85 334.14 418.85 334.58 419.3 334.58 419.3 335.03 419.75 335.03 419.75 335.48 420.19 335.48 420.19 335.92 420.64 335.92 420.64 336.37 421.09 336.37 421.09 336.82 421.53 336.82 421.53 337.27 421.98 337.27 421.98 337.71 422.43 337.71 422.43 338.16 422.88 338.16 422.88 338.61 423.32 338.61 423.32 339.05 423.77 339.05 423.77 339.5 424.22 339.5 424.22 339.95 424.66 339.95 424.66 340.39 425.11 340.39 425.11 340.84 425.56 340.84 425.56 341.29 426 341.29 426 341.74 426.45 341.74 426.45 342.18 426.9 342.18 426.9 342.63 427.35 342.63 427.35 343.08 427.79 343.08 427.79 343.52 428.24 343.52 428.24 343.97 428.69 343.97 428.69 344.42 429.13 344.42 429.13 344.87 429.58 344.87 429.58 345.31 430.03 345.31 430.03 345.76 430.47 345.76 430.47 346.21 430.92 346.21 430.92 346.65 431.37 346.65 431.37 347.1 431.82 347.1 431.82 347.55 432.26 347.55 432.26 347.99 432.71 347.99 432.71 348.44 433.16 348.44 433.16 348.89 433.6 348.89 433.6 349.34 434.05 349.34 434.05 349.78 434.5 349.78 434.5 350.23 434.95 350.23 434.95 350.68 435.39 350.68 435.39 351.12 435.84 351.12 435.84 351.57 436.29 351.57 436.29 352.02 436.73 352.02 436.73 352.46 437.18 352.46 437.18 352.91 437.63 352.91 437.63 353.36 438.07 353.36 438.07 353.81 438.52 353.81 438.52 354.25 438.97 354.25 438.97 354.7 439.42 354.7 439.42 355.15 439.86 355.15 439.86 355.59 440.31 355.59 440.31 356.04 440.76 356.04 440.76 356.49 441.2 356.49 441.2 356.93 441.65 356.93 441.65 357.38 442.1 357.38 442.1 357.83 442.54 357.83 442.54 358.28 442.99 358.28 442.99 358.72 443.44 358.72 443.44 359.17 443.89 359.17 443.89 359.62 444.33 359.62 444.33 360.06 444.78 360.06 444.78 360.51 445.23 360.51 445.23 360.96 445.67 360.96 445.67 361.4 446.12 361.4 446.12 361.85 446.57 361.85 446.57 362.3 447.01 362.3 447.01 362.75 447.46 362.75 447.46 363.19 447.91 363.19 447.91 363.64 448.36 363.64 448.36 364.09 448.8 364.09 448.8 364.53 449.25 364.53 449.25 364.98 449.7 364.98 449.7 365.43 450.14 365.43 450.14 365.88 450.59 365.88 450.59 366.32 451.04 366.32 451.04 366.77 451.48 366.77 451.48 367.22 451.93 367.22 451.93 367.66 452.38 367.66 452.38 368.11 452.83 368.11 452.83 368.56 453.27 368.56 453.27 369 453.72 369 453.72 369.45 454.17 369.45 454.17 369.9 454.61 369.9 454.61 370.35 455.06 370.35 455.06 370.79 455.51 370.79 455.51 371.24 455.96 371.24 455.96 371.69 456.4 371.69 456.4 372.13 456.85 372.13 456.85 372.58 457.3 372.58 457.3 373.03 457.74 373.03 457.74 373.47 458.19 373.47 458.19 373.92 458.64 373.92 458.64 374.37 459.08 374.37 459.08 374.82 459.53 374.82 459.53 375.26 459.98 375.26 459.98 375.71 460.43 375.71 460.43 376.16 460.87 376.16 460.87 376.6 461.32 376.6 461.32 377.05 461.77 377.05 461.77 377.5 462.21 377.5 462.21 377.94 462.66 377.94 462.66 378.39 463.11 378.39 463.11 378.84 463.55 378.84 463.55 379.29 464 379.29 464 379.73 464.45 379.73 464.45 380.18 464.9 380.18 464.9 380.63 465.34 380.63 465.34 381.07 465.79 381.07 465.79 381.52 466.24 381.52 466.24 381.97 466.68 381.97 466.68 382.41 467.13 382.41 467.13 382.86 467.58 382.86 467.58 383.31 468.02 383.31 468.02 383.76 468.47 383.76 468.47 384.2 468.92 384.2 468.92 384.65 469.37 384.65 469.37 385.1 469.81 385.1 469.81 385.54 470.26 385.54 470.26 385.99 470.71 385.99 470.71 386.44 471.15 386.44 471.15 386.89 471.6 386.89 471.6 387.33 472.05 387.33 472.05 387.78 472.49 387.78 472.49 388.23 472.94 388.23 472.94 388.67 473.39 388.67 473.39 389.12 473.84 389.12 473.84 389.57 483.42 389.57 483.42 381.13 482.98 381.13 482.98 380.69 482.53 380.69 482.53 380.24 482.08 380.24 482.08 379.79 481.64 379.79 481.64 379.35 481.19 379.35 481.19 378.9 480.74 378.9 480.74 378.45 480.3 378.45 480.3 378.01 479.85 378.01 479.85 377.56 479.4 377.56 479.4 377.11 479.33 377.11 479.33 376.32 480.28 376.32 480.68 376.32 482.09 376.32 482.49 376.32 483.9 376.32 484.31 376.32 485.72 376.32 486.12 376.32 487.53 376.32 488.08 376.32 484.68 351.16 484.3 351.16"/>
          <polygon class="cls-13" points="561.61 351.16 561.23 351.16 561.17 350.72 560.78 350.72 560.72 350.27 560.33 350.27 560.27 349.82 559.89 349.82 559.83 349.38 559.44 349.38 559.38 348.93 558.99 348.93 558.93 348.48 558.55 348.48 558.49 348.03 558.1 348.03 558.04 347.59 557.65 347.59 557.59 347.14 557.2 347.14 557.14 346.69 556.76 346.69 556.7 346.25 556.31 346.25 556.25 345.8 555.86 345.8 555.8 345.35 555.42 345.35 555.36 344.9 554.97 344.9 554.91 344.46 554.52 344.46 554.46 344.01 554.08 344.01 554.02 343.56 553.63 343.56 553.57 343.12 553.18 343.12 553.12 342.67 552.73 342.67 552.67 342.22 552.29 342.22 552.23 341.78 551.84 341.78 551.78 341.33 551.39 341.33 551.33 340.88 550.95 340.88 550.89 340.43 550.5 340.43 550.44 339.99 550.05 339.99 549.99 339.54 549.61 339.54 549.55 339.09 549.16 339.09 549.1 338.65 548.71 338.65 548.65 338.2 548.26 338.2 548.2 337.75 547.82 337.75 547.76 337.31 547.37 337.31 547.31 336.86 546.92 336.86 546.86 336.41 546.48 336.41 546.42 335.96 546.03 335.96 545.97 335.52 545.58 335.52 545.52 335.07 545.14 335.07 545.07 334.62 544.69 334.62 544.63 334.18 544.24 334.18 544.18 333.73 543.79 333.73 543.73 333.28 543.35 333.28 543.29 332.84 542.9 332.84 542.84 332.39 542.45 332.39 542.39 331.94 542.01 331.94 541.95 331.49 541.56 331.49 541.5 331.05 541.11 331.05 541.05 330.6 540.67 330.6 540.6 330.15 540.22 330.15 540.16 329.71 539.77 329.71 539.71 329.26 539.32 329.26 539.26 328.81 538.88 328.81 538.82 328.36 538.43 328.36 538.37 327.92 537.98 327.92 537.92 327.47 537.54 327.47 537.48 327.02 537.09 327.02 537.03 326.58 536.64 326.58 536.58 326.13 536.19 326.13 536.13 325.68 535.75 325.68 535.69 325.24 535.3 325.24 535.24 324.79 534.85 324.79 534.79 324.34 534.41 324.34 534.35 323.89 533.96 323.89 533.9 323.45 533.51 323.45 533.45 323 533.07 323 533.01 322.55 532.62 322.55 532.56 322.11 532.17 322.11 532.11 321.66 531.72 321.66 531.66 321.21 531.28 321.21 531.22 320.77 530.83 320.77 530.77 320.32 530.38 320.32 530.32 319.87 529.94 319.87 529.88 319.42 529.49 319.42 529.43 318.98 529.04 318.98 528.98 318.53 528.6 318.53 528.54 318.08 528.15 318.08 528.09 317.64 527.7 317.64 527.64 317.19 527.25 317.19 527.19 316.74 526.81 316.74 526.75 316.3 526.36 316.3 526.3 315.85 525.91 315.85 525.85 315.4 525.47 315.4 525.41 314.95 525.02 314.95 524.96 314.51 524.57 314.51 524.51 314.06 524.13 314.06 524.06 313.61 523.68 313.61 523.62 313.17 523.23 313.17 523.17 312.72 522.78 312.72 522.72 312.27 522.34 312.27 522.28 311.83 521.89 311.83 521.83 311.38 521.44 311.38 521.38 310.93 521 310.93 520.94 310.48 520.55 310.48 520.49 310.04 520.1 310.04 520.04 309.59 519.66 309.59 519.59 309.14 519.21 309.14 519.15 308.7 518.76 308.7 518.7 308.25 518.31 308.25 518.25 307.8 517.87 307.8 517.81 307.35 517.42 307.35 517.36 306.91 516.97 306.91 516.91 306.46 516.53 306.46 516.47 306.01 516.08 306.01 516.02 305.57 515.63 305.57 515.57 305.12 515.18 305.12 515.12 304.67 514.74 304.67 514.68 304.23 514.29 304.23 514.23 303.78 513.84 303.78 513.78 303.33 513.4 303.33 513.34 302.88 512.95 302.88 512.89 302.44 512.5 302.44 512.44 301.99 512.06 301.99 512 301.54 511.61 301.54 511.55 301.1 511.16 301.1 511.1 300.65 510.71 300.65 510.65 300.2 510.27 300.2 510.21 299.76 509.82 299.76 509.76 299.31 509.37 299.31 509.31 298.86 508.93 298.86 508.87 298.41 508.48 298.41 508.42 297.97 508.03 297.97 507.97 297.52 507.59 297.52 507.53 297.07 507.14 297.07 507.08 296.63 506.69 296.63 506.63 296.18 506.24 296.18 506.18 295.73 505.8 295.73 505.74 295.29 505.35 295.29 505.29 294.84 504.9 294.84 504.84 294.39 504.46 294.39 504.4 293.94 504.01 293.94 503.95 293.5 503.56 293.5 503.5 293.05 503.12 293.05 503.05 292.6 502.67 292.6 502.61 292.16 502.22 292.16 502.16 291.71 501.77 291.71 501.71 291.26 501.33 291.26 501.27 290.82 500.88 290.82 500.82 290.37 500.43 290.37 500.37 289.92 499.99 289.92 499.93 289.47 499.54 289.47 499.48 289.03 499.09 289.03 499.03 288.58 498.65 288.58 498.58 288.13 498.2 288.13 498.14 287.69 497.75 287.69 497.69 287.24 497.3 287.24 497.24 286.79 496.86 286.79 496.8 286.34 496.41 286.34 496.35 285.9 495.96 285.9 495.9 285.45 495.52 285.45 495.46 285 495.07 285 495.01 284.56 494.62 284.56 494.56 284.11 494.17 284.11 494.11 283.66 493.73 283.66 493.67 283.22 493.28 283.22 493.22 282.77 492.83 282.77 492.77 282.32 492.39 282.32 492.33 281.87 491.94 281.87 491.88 281.43 491.49 281.43 491.43 280.98 491.05 280.98 490.99 280.53 490.6 280.53 490.54 280.09 490.15 280.09 490.09 279.64 489.7 279.64 489.64 279.19 489.26 279.19 489.2 278.75 488.81 278.75 488.75 278.3 488.36 278.3 488.3 277.85 487.92 277.85 487.86 277.4 487.47 277.4 487.41 276.96 487.02 276.96 486.96 276.51 486.58 276.51 486.52 276.06 486.13 276.06 486.07 275.62 485.68 275.62 485.62 275.17 485.23 275.17 485.17 274.72 484.79 274.72 484.73 274.28 484.34 274.28 484.28 273.83 483.89 273.83 483.83 273.38 483.45 273.38 483.39 272.93 483 272.93 482.94 272.49 482.55 272.49 482.49 272.04 482.11 272.04 482.04 271.59 481.66 271.59 481.6 271.15 481.21 271.15 481.15 270.7 480.76 270.7 480.7 270.25 480.32 270.25 480.26 269.81 479.87 269.81 479.81 269.36 479.42 269.36 479.36 268.91 478.98 268.91 478.92 268.46 478.53 268.46 478.47 268.02 478.08 268.02 478.02 267.57 477.64 267.57 477.57 267.12 477.19 267.12 477.13 266.68 476.74 266.68 476.68 266.23 476.29 266.23 476.23 265.78 475.85 265.78 475.79 265.33 475.4 265.33 475.34 264.89 474.95 264.89 474.89 264.44 474.51 264.44 474.45 263.99 474.06 263.99 474 263.55 473.61 263.55 473.55 263.1 473.16 263.1 473.1 262.65 472.72 262.65 472.66 262.21 472.27 262.21 472.21 261.76 471.82 261.76 471.76 261.31 471.38 261.31 471.32 260.86 470.93 260.86 470.87 260.42 470.48 260.42 470.42 259.97 470.04 259.97 469.98 259.52 469.59 259.52 469.53 259.08 469.14 259.08 469.08 258.63 468.69 258.63 468.63 258.18 468.25 258.18 468.19 257.74 467.8 257.74 467.74 257.29 467.35 257.29 467.29 256.84 466.91 256.84 466.85 256.39 466.46 256.39 466.4 255.95 466.01 255.95 465.95 255.5 465.57 255.5 465.51 255.05 465.12 255.05 465.06 254.61 464.67 254.61 464.61 254.16 464.22 254.16 464.16 253.71 463.78 253.71 463.72 253.27 463.33 253.27 463.27 252.82 462.88 252.82 462.82 252.37 462.44 252.37 462.38 251.92 461.99 251.92 461.93 251.48 461.54 251.48 461.48 251.03 461.1 251.03 461.03 250.58 460.65 250.58 460.59 250.14 460.2 250.14 460.14 249.69 459.75 249.69 459.69 249.24 459.31 249.24 459.25 248.8 458.86 248.8 458.8 248.35 458.41 248.35 458.35 247.9 457.97 247.9 457.91 247.45 457.52 247.45 457.46 247.01 457.07 247.01 457.01 246.56 456.63 246.56 456.56 246.11 456.18 246.11 456.12 245.67 455.73 245.67 455.67 245.22 455.28 245.22 455.22 244.77 454.84 244.77 454.78 244.32 454.39 244.32 454.33 243.88 453.94 243.88 453.88 243.43 453.5 243.43 453.44 242.98 453.05 242.98 452.99 242.54 452.6 242.54 452.54 242.09 452.15 242.09 452.09 241.64 451.71 241.64 451.65 241.2 451.26 241.2 451.2 240.75 450.81 240.75 450.75 240.3 450.37 240.3 450.31 239.85 449.92 239.85 449.86 239.41 449.33 239.41 448.44 239.41 448.19 239.41 447.31 239.41 447.06 239.41 446.17 239.41 445.92 239.41 445.04 239.41 444.79 239.41 443.9 239.41 443.81 239.41 443.65 239.41 442.77 239.41 442.52 239.41 441.63 239.41 441.38 239.41 440.5 239.41 440.25 239.41 439.36 239.41 439.11 239.41 438.23 239.41 437.75 239.41 434.35 264.57 434.86 264.57 434.8 265.02 435.31 265.02 435.25 265.46 435.76 265.46 435.7 265.91 436.2 265.91 436.14 266.36 436.65 266.36 436.59 266.8 437.1 266.8 437.04 267.25 437.54 267.25 437.48 267.7 437.99 267.7 437.93 268.14 438.44 268.14 438.38 268.59 438.89 268.59 438.82 269.04 439.33 269.04 439.29 269.38 439.01 269.38 439.01 277.81 439.46 277.81 439.46 278.26 439.91 278.26 439.91 278.71 440.35 278.71 440.35 279.15 440.8 279.15 440.8 279.6 441.25 279.6 441.25 280.05 441.69 280.05 441.69 280.49 442.14 280.49 442.14 280.94 442.59 280.94 442.59 281.39 443.04 281.39 443.04 281.84 443.48 281.84 443.48 282.28 443.93 282.28 443.93 282.73 444.38 282.73 444.38 283.18 444.82 283.18 444.82 283.62 445.27 283.62 445.27 284.07 445.72 284.07 445.72 284.52 446.17 284.52 446.17 284.96 446.61 284.96 446.61 285.41 447.06 285.41 447.06 285.86 447.51 285.86 447.51 286.31 447.95 286.31 447.95 286.75 448.4 286.75 448.4 287.2 448.85 287.2 448.85 287.65 449.29 287.65 449.29 288.09 449.74 288.09 449.74 288.54 450.19 288.54 450.19 288.99 450.64 288.99 450.64 289.43 451.08 289.43 451.08 289.88 451.53 289.88 451.53 290.33 451.98 290.33 451.98 290.78 452.42 290.78 452.42 291.22 452.87 291.22 452.87 291.67 453.32 291.67 453.32 292.12 453.76 292.12 453.76 292.56 454.21 292.56 454.21 293.01 454.66 293.01 454.66 293.46 455.11 293.46 455.11 293.9 455.55 293.9 455.55 294.35 456 294.35 456 294.8 456.45 294.8 456.45 295.25 456.89 295.25 456.89 295.69 457.34 295.69 457.34 296.14 457.79 296.14 457.79 296.59 458.23 296.59 458.23 297.03 458.68 297.03 458.68 297.48 459.13 297.48 459.13 297.93 459.58 297.93 459.58 298.37 460.02 298.37 460.02 298.82 460.47 298.82 460.47 299.27 460.92 299.27 460.92 299.72 461.36 299.72 461.36 300.16 461.81 300.16 461.81 300.61 462.26 300.61 462.26 301.06 462.7 301.06 462.7 301.5 463.15 301.5 463.15 301.95 463.6 301.95 463.6 302.4 464.05 302.4 464.05 302.85 464.49 302.85 464.49 303.29 464.94 303.29 464.94 303.74 465.39 303.74 465.39 304.19 465.83 304.19 465.83 304.63 466.28 304.63 466.28 305.08 466.73 305.08 466.73 305.53 467.18 305.53 467.18 305.97 467.62 305.97 467.62 306.42 468.07 306.42 468.07 306.87 468.52 306.87 468.52 307.32 468.96 307.32 468.96 307.76 469.41 307.76 469.41 308.21 469.86 308.21 469.86 308.66 470.3 308.66 470.3 309.1 470.75 309.1 470.75 309.55 471.2 309.55 471.2 310 471.65 310 471.65 310.44 472.09 310.44 472.09 310.89 472.54 310.89 472.54 311.34 472.99 311.34 472.99 311.79 473.43 311.79 473.43 312.23 473.88 312.23 473.88 312.68 474.33 312.68 474.33 313.13 474.77 313.13 474.77 313.57 475.22 313.57 475.22 314.02 475.67 314.02 475.67 314.47 476.12 314.47 476.12 314.91 476.56 314.91 476.56 315.36 477.01 315.36 477.01 315.81 477.46 315.81 477.46 316.26 477.9 316.26 477.9 316.7 478.35 316.7 478.35 317.15 478.8 317.15 478.8 317.6 479.24 317.6 479.24 318.04 479.69 318.04 479.69 318.49 480.14 318.49 480.14 318.94 480.59 318.94 480.59 319.38 481.03 319.38 481.03 319.83 481.48 319.83 481.48 320.28 481.93 320.28 481.93 320.73 482.37 320.73 482.37 321.17 482.82 321.17 482.82 321.62 483.27 321.62 483.27 322.07 483.71 322.07 483.71 322.51 484.16 322.51 484.16 322.96 484.61 322.96 484.61 323.41 485.06 323.41 485.06 323.86 485.5 323.86 485.5 324.3 485.95 324.3 485.95 324.75 486.4 324.75 486.4 325.2 486.84 325.2 486.84 325.64 487.29 325.64 487.29 326.09 487.74 326.09 487.74 326.54 488.19 326.54 488.19 326.98 488.63 326.98 488.63 327.43 489.08 327.43 489.08 327.88 489.53 327.88 489.53 328.33 489.97 328.33 489.97 328.77 490.42 328.77 490.42 329.22 490.87 329.22 490.87 329.67 491.31 329.67 491.31 330.11 491.76 330.11 491.76 330.56 492.21 330.56 492.21 331.01 492.66 331.01 492.66 331.45 493.1 331.45 493.1 331.9 493.55 331.9 493.55 332.35 494 332.35 494 332.8 494.44 332.8 494.44 333.24 494.89 333.24 494.89 333.69 495.34 333.69 495.34 334.14 495.78 334.14 495.78 334.58 496.23 334.58 496.23 335.03 496.68 335.03 496.68 335.48 497.13 335.48 497.13 335.92 497.57 335.92 497.57 336.37 498.02 336.37 498.02 336.82 498.47 336.82 498.47 337.27 498.91 337.27 498.91 337.71 499.36 337.71 499.36 338.16 499.81 338.16 499.81 338.61 500.25 338.61 500.25 339.05 500.7 339.05 500.7 339.5 501.15 339.5 501.15 339.95 501.6 339.95 501.6 340.39 502.04 340.39 502.04 340.84 502.49 340.84 502.49 341.29 502.94 341.29 502.94 341.74 503.38 341.74 503.38 342.18 503.83 342.18 503.83 342.63 504.28 342.63 504.28 343.08 504.72 343.08 504.72 343.52 505.17 343.52 505.17 343.97 505.62 343.97 505.62 344.42 506.07 344.42 506.07 344.87 506.51 344.87 506.51 345.31 506.96 345.31 506.96 345.76 507.41 345.76 507.41 346.21 507.85 346.21 507.85 346.65 508.3 346.65 508.3 347.1 508.75 347.1 508.75 347.55 509.2 347.55 509.2 347.99 509.64 347.99 509.64 348.44 510.09 348.44 510.09 348.89 510.54 348.89 510.54 349.34 510.98 349.34 510.98 349.78 511.43 349.78 511.43 350.23 511.88 350.23 511.88 350.68 512.32 350.68 512.32 351.12 512.77 351.12 512.77 351.57 513.22 351.57 513.22 352.02 513.67 352.02 513.67 352.46 514.11 352.46 514.11 352.91 514.56 352.91 514.56 353.36 515.01 353.36 515.01 353.81 515.45 353.81 515.45 354.25 515.9 354.25 515.9 354.7 516.35 354.7 516.35 355.15 516.79 355.15 516.79 355.59 517.24 355.59 517.24 356.04 517.69 356.04 517.69 356.49 518.14 356.49 518.14 356.93 518.58 356.93 518.58 357.38 519.03 357.38 519.03 357.83 519.48 357.83 519.48 358.28 519.92 358.28 519.92 358.72 520.37 358.72 520.37 359.17 520.82 359.17 520.82 359.62 521.26 359.62 521.26 360.06 521.71 360.06 521.71 360.51 522.16 360.51 522.16 360.96 522.61 360.96 522.61 361.4 523.05 361.4 523.05 361.85 523.5 361.85 523.5 362.3 523.95 362.3 523.95 362.75 524.39 362.75 524.39 363.19 524.84 363.19 524.84 363.64 525.29 363.64 525.29 364.09 525.73 364.09 525.73 364.53 526.18 364.53 526.18 364.98 526.63 364.98 526.63 365.43 527.08 365.43 527.08 365.88 527.52 365.88 527.52 366.32 527.97 366.32 527.97 366.77 528.42 366.77 528.42 367.22 528.86 367.22 528.86 367.66 529.31 367.66 529.31 368.11 529.76 368.11 529.76 368.56 530.21 368.56 530.21 369 530.65 369 530.65 369.45 531.1 369.45 531.1 369.9 531.55 369.9 531.55 370.35 531.99 370.35 531.99 370.79 532.44 370.79 532.44 371.24 532.89 371.24 532.89 371.69 533.33 371.69 533.33 372.13 533.78 372.13 533.78 372.58 534.23 372.58 534.23 373.03 534.68 373.03 534.68 373.47 535.12 373.47 535.12 373.92 535.57 373.92 535.57 374.37 536.02 374.37 536.02 374.82 536.46 374.82 536.46 375.26 536.91 375.26 536.91 375.71 537.36 375.71 537.36 376.16 537.8 376.16 537.8 376.6 538.25 376.6 538.25 377.05 538.7 377.05 538.7 377.5 539.15 377.5 539.15 377.94 539.59 377.94 539.59 378.39 540.04 378.39 540.04 378.84 540.49 378.84 540.49 379.29 540.93 379.29 540.93 379.73 541.38 379.73 541.38 380.18 541.83 380.18 541.83 380.63 542.27 380.63 542.27 381.07 542.72 381.07 542.72 381.52 543.17 381.52 543.17 381.97 543.62 381.97 543.62 382.41 544.06 382.41 544.06 382.86 544.51 382.86 544.51 383.31 544.96 383.31 544.96 383.76 545.4 383.76 545.4 384.2 545.85 384.2 545.85 384.65 546.3 384.65 546.3 385.1 546.74 385.1 546.74 385.54 547.19 385.54 547.19 385.99 547.64 385.99 547.64 386.44 548.09 386.44 548.09 386.89 548.53 386.89 548.53 387.33 548.98 387.33 548.98 387.78 549.43 387.78 549.43 388.23 549.87 388.23 549.87 388.67 550.32 388.67 550.32 389.12 550.77 389.12 550.77 389.57 560.36 389.57 560.36 381.13 559.91 381.13 559.91 380.69 559.46 380.69 559.46 380.24 559.02 380.24 559.02 379.79 558.57 379.79 558.57 379.35 558.12 379.35 558.12 378.9 557.67 378.9 557.67 378.45 557.23 378.45 557.23 378.01 556.78 378.01 556.78 377.56 556.33 377.56 556.33 377.11 556.26 377.11 556.26 376.32 557.21 376.32 557.61 376.32 559.03 376.32 559.43 376.32 560.84 376.32 561.24 376.32 562.65 376.32 563.05 376.32 564.46 376.32 565.01 376.32 561.61 351.16"/>
        </g>
        <g>
          <g>
            <g>
              <rect class="cls-67" x="362.08" y="269.38" width="9.59" height="8.43"/>
              <rect class="cls-61" x="362.49" y="269.79" width="8.77" height="7.62"/>
              <rect class="cls-69" x="366.18" y="261.22" width="1.39" height="12.37"/>
            </g>
            <g>
              <polygon class="cls-31" points="360.82 239.41 366.88 239.41 372.93 239.41 376.33 264.57 366.88 264.57 357.42 264.57 360.82 239.41"/>
              <g>
                <path class="cls-7" d="m362.18,239.41h-.88c-.36,2.81-.77,6.01-1.25,9.69-.55,4.31-1.21,9.39-1.99,15.47h1.41c.66-6.08,1.2-11.16,1.67-15.46.4-3.69.74-6.89,1.04-9.7Z"/>
                <path class="cls-7" d="m363.32,239.41h-.88c-.29,2.81-.61,6.01-.99,9.7-.44,4.3-.96,9.39-1.58,15.46h1.41c.49-6.08.9-11.16,1.25-15.46.3-3.69.56-6.89.78-9.7Z"/>
                <path class="cls-7" d="m364.45,239.41h-.88c-.21,2.81-.45,6.01-.73,9.7-.32,4.3-.7,9.39-1.16,15.46h1.41c.33-6.08.6-11.16.84-15.46.2-3.69.37-6.89.52-9.7Z"/>
                <path class="cls-7" d="m365.59,239.41h-.88c-.13,2.81-.29,6.01-.47,9.7-.21,4.3-.45,9.39-.74,15.46h1.41c.16-6.08.3-11.16.42-15.46.1-3.69.19-6.89.26-9.7Z"/>
                <path class="cls-7" d="m366.72,239.41h-.88c-.06,2.81-.13,6.01-.21,9.7-.09,4.3-.2,9.39-.33,15.46h1.41c0-6.08,0-11.16,0-15.46,0-3.69,0-6.89,0-9.7Z"/>
                <path class="cls-7" d="m367.86,239.41h-.88c.02,2.81.03,6.01.06,9.7.02,4.3.05,9.39.09,15.46h1.41c-.16-6.08-.3-11.16-.41-15.46-.1-3.69-.18-6.89-.26-9.7Z"/>
                <path class="cls-7" d="m368.99,239.41h-.88c.09,2.81.2,6.01.32,9.7.14,4.3.31,9.39.5,15.46h1.41c-.33-6.08-.6-11.16-.83-15.46-.2-3.69-.37-6.89-.52-9.7Z"/>
                <path class="cls-7" d="m370.12,239.41h-.88c.17,2.81.36,6.01.58,9.7.26,4.3.56,9.38.92,15.46h1.41c-.49-6.08-.9-11.16-1.24-15.46-.3-3.69-.55-6.89-.78-9.7Z"/>
                <path class="cls-7" d="m371.26,239.41h-.88c.24,2.81.52,6.01.84,9.7.37,4.3.81,9.38,1.34,15.46h1.41c-.65-6.08-1.2-11.16-1.66-15.46-.4-3.69-.74-6.89-1.04-9.7Z"/>
                <path class="cls-7" d="m372.4,239.41h-.89c.32,2.81.68,6.01,1.1,9.7.49,4.3,1.06,9.38,1.75,15.46h1.41c-.82-6.08-1.5-11.16-2.08-15.46-.5-3.69-.93-6.89-1.3-9.7Z"/>
              </g>
            </g>
          </g>
          <g>
            <g>
              <rect class="cls-67" x="439.01" y="269.38" width="9.59" height="8.43"/>
              <rect class="cls-61" x="439.42" y="269.79" width="8.77" height="7.62"/>
              <rect class="cls-69" x="443.11" y="261.22" width="1.39" height="12.37"/>
            </g>
            <g>
              <polygon class="cls-31" points="437.75 239.41 443.81 239.41 449.86 239.41 453.26 264.57 443.81 264.57 434.35 264.57 437.75 239.41"/>
              <g>
                <path class="cls-7" d="m439.11,239.41h-.88c-.36,2.81-.77,6.01-1.25,9.69-.55,4.31-1.21,9.39-1.99,15.47h1.41c.66-6.08,1.2-11.16,1.67-15.46.4-3.69.74-6.89,1.04-9.7Z"/>
                <path class="cls-7" d="m440.25,239.41h-.88c-.29,2.81-.61,6.01-.99,9.7-.44,4.3-.96,9.39-1.58,15.46h1.41c.49-6.08.9-11.16,1.25-15.46.3-3.69.56-6.89.78-9.7Z"/>
                <path class="cls-7" d="m441.38,239.41h-.88c-.21,2.81-.45,6.01-.73,9.7-.32,4.3-.7,9.39-1.16,15.46h1.41c.33-6.08.6-11.16.84-15.46.2-3.69.37-6.89.52-9.7Z"/>
                <path class="cls-7" d="m442.52,239.41h-.88c-.13,2.81-.29,6.01-.47,9.7-.21,4.3-.45,9.39-.74,15.46h1.41c.16-6.08.3-11.16.42-15.46.1-3.69.19-6.89.26-9.7Z"/>
                <path class="cls-7" d="m443.65,239.41h-.88c-.06,2.81-.13,6.01-.2,9.7-.09,4.3-.2,9.39-.33,15.46h1.41c0-6.08,0-11.16,0-15.46,0-3.69,0-6.89,0-9.7Z"/>
                <path class="cls-7" d="m444.79,239.41h-.88c.02,2.81.03,6.01.06,9.7.02,4.3.05,9.39.09,15.46h1.41c-.16-6.08-.3-11.16-.41-15.46-.1-3.69-.18-6.89-.26-9.7Z"/>
                <path class="cls-7" d="m445.92,239.41h-.88c.09,2.81.2,6.01.32,9.7.14,4.3.31,9.39.5,15.46h1.41c-.33-6.08-.6-11.16-.83-15.46-.2-3.69-.37-6.89-.52-9.7Z"/>
                <path class="cls-7" d="m447.06,239.41h-.88c.17,2.81.36,6.01.58,9.7.26,4.3.56,9.38.92,15.46h1.41c-.49-6.08-.9-11.16-1.24-15.46-.3-3.69-.55-6.89-.78-9.7Z"/>
                <path class="cls-7" d="m448.19,239.41h-.88c.24,2.81.52,6.01.84,9.7.37,4.3.81,9.38,1.34,15.46h1.41c-.65-6.08-1.2-11.16-1.66-15.46-.4-3.69-.74-6.89-1.04-9.7Z"/>
                <path class="cls-7" d="m449.33,239.41h-.89c.32,2.81.68,6.01,1.1,9.7.49,4.3,1.06,9.38,1.75,15.46h1.41c-.82-6.08-1.5-11.16-2.08-15.46-.49-3.69-.93-6.89-1.3-9.7Z"/>
              </g>
            </g>
          </g>
        </g>
        <g>
          <path class="cls-6" d="m383.98,317.93c-.06.28-.11.57-.14.86h-1.26c-.58,0-1.05.47-1.05,1.05v2.62c0,.58.47,1.05,1.05,1.05h1.95c.18,0,.35-.05.5-.13.38.52.83.96,1.34,1.3h4.9c1.52-1.02,2.56-2.97,2.56-5.2h0c0-.54-.06-1.06-.17-1.55h-9.68Zm-.17,1.32c0,.08,0,.15,0,.23h0c0,1.31.36,2.53.96,3.51-.07.03-.16.05-.24.05h-1.95c-.32,0-.59-.26-.59-.59v-2.62c0-.32.26-.59.59-.59h1.23Z"/>
          <path class="cls-8" d="m382.38,324.31s0,.04,0,.06h0c0,.46.22.83.49.83h11.31c.27,0,.49-.37.49-.83h0s0-.04,0-.06h-12.29Z"/>
        </g>
        <g>
          <path class="cls-6" d="m425.84,317.93c.06.28.11.57.14.86h1.26c.58,0,1.05.47,1.05,1.05v2.62c0,.58-.47,1.05-1.05,1.05h-1.95c-.18,0-.35-.05-.5-.13-.38.52-.83.96-1.34,1.3h-4.9c-1.52-1.02-2.56-2.97-2.56-5.2h0c0-.54.06-1.06.17-1.55h9.68Zm.17,1.32c0,.08,0,.15,0,.23h0c0,1.31-.36,2.53-.96,3.51.07.03.16.05.24.05h1.95c.32,0,.59-.26.59-.59v-2.62c0-.32-.26-.59-.59-.59h-1.23Z"/>
          <path class="cls-8" d="m427.44,324.31s0,.04,0,.06h0c0,.46-.22.83-.49.83h-11.31c-.27,0-.49-.37-.49-.83h0s0-.04,0-.06h12.29Z"/>
        </g>
        <rect class="cls-74" x="401.8" y="332.96" width="3.49" height="46.31" rx="1.74" ry="1.74"/>
        <polygon class="cls-26" points="305.47 367.89 305.47 269.28 282.33 269.28 282.33 367.89 229.99 367.89 229.99 381.92 282.33 381.92 282.81 381.92 304.88 381.92 305.47 381.92 376.33 381.92 376.33 367.89 305.47 367.89"/>
        <polygon class="cls-10" points="531.75 367.99 531.75 269.38 508.6 269.38 508.6 367.99 456.27 367.99 456.27 382.02 508.6 382.02 509.09 382.02 531.16 382.02 531.75 382.02 602.61 382.02 602.61 367.99 531.75 367.99"/>
        <path class="cls-23" d="m403.53,231.91h-10.27c-.19,0-.39.01-.57.03v87.12c.19.02.38.03.57.03h10.27c3.01,0,5.44-2.37,5.44-5.29v-76.6c0-2.92-2.44-5.29-5.44-5.29Z"/>
      </g>
    </g>
  </g>
</svg>