<?xml version="1.0" encoding="UTF-8"?>
<svg xmlns="http://www.w3.org/2000/svg" xmlns:xlink="http://www.w3.org/1999/xlink" viewBox="0 0 799.78 591.4">
  <defs>
    <style>
      .cls-1 {
        fill: url(#linear-gradient-4);
      }

      .cls-1, .cls-2, .cls-3, .cls-4, .cls-5, .cls-6, .cls-7, .cls-8, .cls-9, .cls-10, .cls-11, .cls-12, .cls-13, .cls-14, .cls-15, .cls-16, .cls-17, .cls-18, .cls-19, .cls-20, .cls-21, .cls-22, .cls-23, .cls-24, .cls-25, .cls-26, .cls-27, .cls-28, .cls-29, .cls-30, .cls-31, .cls-32, .cls-33, .cls-34, .cls-35, .cls-36, .cls-37, .cls-38, .cls-39, .cls-40, .cls-41, .cls-42, .cls-43, .cls-44, .cls-45, .cls-46, .cls-47, .cls-48, .cls-49, .cls-50 {
        fill-rule: evenodd;
      }

      .cls-2 {
        fill: url(#Earthtone_18-10);
      }

      .cls-3 {
        fill: url(#Earthtone_18-7);
      }

      .cls-4 {
        fill: url(#Earthtone_18);
      }

      .cls-5 {
        fill: url(#linear-gradient-12);
      }

      .cls-51 {
        fill: #404041;
      }

      .cls-52 {
        fill: url(#Earthtone_20-8);
      }

      .cls-6 {
        fill: #d0d2d3;
      }

      .cls-7 {
        fill: #f3bc80;
      }

      .cls-8 {
        fill: #fff;
      }

      .cls-53 {
        mix-blend-mode: multiply;
      }

      .cls-53, .cls-54 {
        fill: none;
      }

      .cls-9 {
        fill: url(#Earthtone_18-12);
      }

      .cls-10 {
        fill: url(#linear-gradient-38);
      }

      .cls-11 {
        fill: url(#linear-gradient-21);
      }

      .cls-55 {
        fill: #841618;
      }

      .cls-56 {
        fill: url(#linear-gradient-6);
      }

      .cls-57 {
        fill: url(#Earthtone_20-13);
      }

      .cls-58 {
        fill: #541900;
      }

      .cls-12 {
        fill: url(#linear-gradient-35);
      }

      .cls-59 {
        fill: url(#Earthtone_20-9);
      }

      .cls-13 {
        fill: url(#linear-gradient-36);
      }

      .cls-60 {
        fill: #8d785d;
      }

      .cls-14 {
        fill: url(#linear-gradient-2);
      }

      .cls-61 {
        fill: url(#Earthtone_20-5);
      }

      .cls-15 {
        fill: url(#linear-gradient-15);
      }

      .cls-16 {
        fill: url(#Earthtone_18-9);
      }

      .cls-17 {
        fill: url(#linear-gradient-9);
      }

      .cls-18 {
        fill: url(#Earthtone_18-4);
      }

      .cls-62 {
        fill: url(#Earthtone_20-11);
      }

      .cls-19 {
        fill: url(#linear-gradient-25);
      }

      .cls-63 {
        fill: url(#Earthtone_20-12);
      }

      .cls-20 {
        fill: url(#linear-gradient-34);
      }

      .cls-64 {
        fill: url(#Earthtone_20-10);
      }

      .cls-21 {
        fill: url(#linear-gradient-16);
      }

      .cls-65 {
        fill: #603913;
      }

      .cls-22 {
        fill: url(#linear-gradient-29);
      }

      .cls-23 {
        fill: url(#linear-gradient-39);
      }

      .cls-24 {
        fill: url(#linear-gradient-26);
      }

      .cls-25 {
        fill: url(#linear-gradient-14);
      }

      .cls-26 {
        fill: url(#linear-gradient-37);
      }

      .cls-27 {
        fill: url(#linear-gradient-5);
      }

      .cls-28 {
        fill: url(#Earthtone_18-11);
      }

      .cls-29 {
        fill: url(#linear-gradient-23);
      }

      .cls-30 {
        fill: url(#linear-gradient-28);
      }

      .cls-66 {
        fill: #806a50;
      }

      .cls-67 {
        fill: #3c2415;
      }

      .cls-68 {
        fill: #bbbdbf;
      }

      .cls-31 {
        fill: #fdcf9d;
      }

      .cls-69 {
        fill: url(#Earthtone_20-6);
      }

      .cls-54 {
        isolation: isolate;
      }

      .cls-70 {
        fill: url(#Earthtone_20-3);
      }

      .cls-32 {
        fill: url(#linear-gradient-10);
      }

      .cls-33 {
        fill: url(#linear-gradient-18);
      }

      .cls-71 {
        fill: url(#Earthtone_20-2);
      }

      .cls-34 {
        fill: url(#linear-gradient-32);
      }

      .cls-72 {
        fill: url(#Earthtone_17-2);
      }

      .cls-35 {
        fill: url(#linear-gradient-11);
      }

      .cls-36 {
        fill: url(#linear-gradient-30);
      }

      .cls-37 {
        fill: url(#Earthtone_18-8);
      }

      .cls-38 {
        fill: url(#linear-gradient-19);
      }

      .cls-39 {
        fill: url(#Earthtone_18-6);
      }

      .cls-40 {
        fill: url(#linear-gradient-20);
      }

      .cls-73 {
        fill: #d1d3d4;
        mix-blend-mode: soft-light;
        opacity: .38;
      }

      .cls-41 {
        fill: url(#linear-gradient-31);
      }

      .cls-74 {
        fill: url(#linear-gradient-24);
      }

      .cls-42 {
        fill: url(#Earthtone_18-3);
      }

      .cls-75 {
        fill: #670607;
      }

      .cls-43 {
        fill: url(#Earthtone_18-2);
      }

      .cls-76 {
        fill: url(#Earthtone_17);
      }

      .cls-77 {
        fill: url(#linear-gradient);
      }

      .cls-78 {
        fill: url(#linear-gradient-27);
      }

      .cls-44 {
        fill: url(#linear-gradient-22);
      }

      .cls-45 {
        fill: url(#linear-gradient-7);
      }

      .cls-46 {
        fill: url(#linear-gradient-8);
      }

      .cls-79 {
        fill: url(#Earthtone_20-4);
      }

      .cls-80 {
        fill: url(#Earthtone_20-7);
      }

      .cls-47 {
        fill: url(#linear-gradient-3);
      }

      .cls-48 {
        fill: url(#linear-gradient-33);
      }

      .cls-49 {
        fill: url(#linear-gradient-17);
      }

      .cls-81 {
        fill: url(#Earthtone_20);
      }

      .cls-50 {
        fill: url(#Earthtone_18-5);
      }

      .cls-82 {
        fill: url(#linear-gradient-13);
      }
    </style>
    <linearGradient id="linear-gradient" x1="399.89" y1="120.12" x2="399.89" y2="-471.28" gradientUnits="userSpaceOnUse">
      <stop offset="0" stopColor="#eec6b6"/>
      <stop offset=".5" stopColor="#e4b988"/>
      <stop offset="1" stopColor="#e5ba8b"/>
    </linearGradient>
    <linearGradient id="Earthtone_20" data-name="Earthtone 20" x1="399.89" y1="152.6" x2="399.89" y2="627.23" gradientUnits="userSpaceOnUse">
      <stop offset="0" stopColor="#9a6046"/>
      <stop offset=".5" stopColor="#6e2405"/>
      <stop offset="1" stopColor="#4e0000"/>
    </linearGradient>
    <linearGradient id="linear-gradient-2" x1="464.16" y1="280.28" x2="464.16" y2="403.29" gradientUnits="userSpaceOnUse">
      <stop offset="0" stopColor="#9a6046"/>
      <stop offset=".5" stopColor="#933a24"/>
      <stop offset="1" stopColor="#511818"/>
    </linearGradient>
    <linearGradient id="linear-gradient-3" x1="10.81" x2="10.81" xlink:href="#linear-gradient-2"/>
    <linearGradient id="linear-gradient-4" x1="184.86" y1="280.28" x2="184.86" y2="403.29" xlink:href="#linear-gradient-2"/>
    <linearGradient id="linear-gradient-5" x1="290.43" y1="280.28" x2="290.43" y2="403.29" xlink:href="#linear-gradient-2"/>
    <linearGradient id="linear-gradient-6" x1="223.81" y1="471.5" x2="251.76" y2="471.5" gradientUnits="userSpaceOnUse">
      <stop offset="0" stopColor="#231f20"/>
      <stop offset=".5" stopColor="#747477"/>
      <stop offset="1" stopColor="#231f20"/>
    </linearGradient>
    <linearGradient id="Earthtone_17" data-name="Earthtone 17" x1="237.32" y1="452.1" x2="237.32" y2="364.38" gradientUnits="userSpaceOnUse">
      <stop offset="0" stopColor="#b18b75"/>
      <stop offset=".5" stopColor="#94644a"/>
      <stop offset="1" stopColor="#87503a"/>
    </linearGradient>
    <linearGradient id="Earthtone_18" data-name="Earthtone 18" x1="129.06" y1="424.25" x2="109.95" y2="424.25" gradientUnits="userSpaceOnUse">
      <stop offset="0" stopColor="#d0937a"/>
      <stop offset=".5" stopColor="#b25538"/>
      <stop offset="1" stopColor="#a2311a"/>
    </linearGradient>
    <linearGradient id="Earthtone_18-2" data-name="Earthtone 18" x1="157.56" y1="474.48" x2="157.56" y2="427.49" xlink:href="#Earthtone_18"/>
    <linearGradient id="linear-gradient-7" x1="146.14" y1="410.2" x2="146.14" y2="562.47" gradientUnits="userSpaceOnUse">
      <stop offset="0" stopColor="#ac7a6c"/>
      <stop offset=".51" stopColor="#945748"/>
      <stop offset="1" stopColor="#562d22"/>
    </linearGradient>
    <linearGradient id="linear-gradient-8" x1="110" y1="349.54" x2="110" y2="419.29" xlink:href="#linear-gradient-2"/>
    <linearGradient id="linear-gradient-9" x1="494.95" y1="284.16" x2="494.95" y2="407.17" xlink:href="#linear-gradient-2"/>
    <linearGradient id="linear-gradient-10" x1="600.52" y1="284.16" x2="600.52" y2="407.17" xlink:href="#linear-gradient-2"/>
    <linearGradient id="Earthtone_18-3" data-name="Earthtone 18" x1="345.57" y1="424.25" x2="364.68" y2="424.25" xlink:href="#Earthtone_18"/>
    <linearGradient id="Earthtone_18-4" data-name="Earthtone 18" x1="317.09" y1="467.51" x2="317.09" y2="441.54" xlink:href="#Earthtone_18"/>
    <linearGradient id="linear-gradient-11" x1="328.5" y1="403.97" x2="328.5" y2="556.24" xlink:href="#linear-gradient-7"/>
    <linearGradient id="linear-gradient-12" x1="364.63" y1="345.4" x2="364.63" y2="407.07" xlink:href="#linear-gradient-2"/>
    <linearGradient id="linear-gradient-13" x1="84.81" y1="349.54" x2="84.81" y2="419.29" xlink:href="#linear-gradient-2"/>
    <linearGradient id="Earthtone_18-5" data-name="Earthtone 18" x1="40.44" y1="424.25" x2="59.54" y2="424.25" xlink:href="#Earthtone_18"/>
    <linearGradient id="linear-gradient-14" x1="23.34" y1="475.96" x2="23.34" y2="429.28" gradientUnits="userSpaceOnUse">
      <stop offset="0" stopColor="#d0937a"/>
      <stop offset=".5" stopColor="#b25538"/>
      <stop offset=".8" stopColor="#a83f26"/>
      <stop offset="1" stopColor="#a2311a"/>
    </linearGradient>
    <linearGradient id="linear-gradient-15" x1="35.05" y1="406.64" x2="35.05" y2="558.91" xlink:href="#linear-gradient-7"/>
    <linearGradient id="linear-gradient-16" x1="59.5" y1="349.54" x2="59.5" y2="419.29" xlink:href="#linear-gradient-2"/>
    <linearGradient id="linear-gradient-17" x1="97.11" y1="340.79" x2="97.11" y2="553.62" xlink:href="#linear-gradient-2"/>
    <linearGradient id="Earthtone_18-6" data-name="Earthtone 18" x1="434.33" y1="424.25" x2="415.22" y2="424.25" xlink:href="#Earthtone_18"/>
    <linearGradient id="Earthtone_18-7" data-name="Earthtone 18" x1="451.36" y1="470.62" x2="451.36" y2="424.07" xlink:href="#Earthtone_18"/>
    <linearGradient id="Earthtone_18-8" data-name="Earthtone 18" x1="434.28" y1="423.94" x2="415.18" y2="423.94" xlink:href="#Earthtone_18"/>
    <linearGradient id="Earthtone_18-9" data-name="Earthtone 18" x1="462.78" y1="474.17" x2="462.78" y2="427.18" xlink:href="#Earthtone_18"/>
    <linearGradient id="linear-gradient-18" x1="451.36" y1="409.89" x2="451.36" y2="562.16" xlink:href="#linear-gradient-7"/>
    <linearGradient id="linear-gradient-19" x1="415.22" y1="349.23" x2="415.22" y2="418.98" xlink:href="#linear-gradient-2"/>
    <linearGradient id="linear-gradient-20" x1="415.26" y1="345.4" x2="415.26" y2="407.07" xlink:href="#linear-gradient-2"/>
    <linearGradient id="linear-gradient-21" x1="439.65" y1="407.53" x2="439.65" y2="559.8" xlink:href="#linear-gradient-7"/>
    <linearGradient id="linear-gradient-22" x1="377.52" y1="340.79" x2="377.52" y2="553.63" xlink:href="#linear-gradient-2"/>
    <linearGradient id="linear-gradient-23" x1="389.81" y1="345.4" x2="389.81" y2="407.07" xlink:href="#linear-gradient-2"/>
    <linearGradient id="linear-gradient-24" x1="399.89" y1="579.54" x2="399.89" y2="495.16" gradientUnits="userSpaceOnUse">
      <stop offset="0" stopColor="#ac7a6c"/>
      <stop offset=".78" stopColor="#b46a5a"/>
      <stop offset="1" stopColor="#562d22"/>
    </linearGradient>
    <linearGradient id="Earthtone_20-2" data-name="Earthtone 20" x1="49.45" y1="308.75" x2="49.45" y2="354.31" xlink:href="#Earthtone_20"/>
    <linearGradient id="Earthtone_20-3" data-name="Earthtone 20" x1="124.6" y1="308.75" x2="124.6" y2="354.31" xlink:href="#Earthtone_20"/>
    <linearGradient id="Earthtone_20-4" data-name="Earthtone 20" x1="199.74" y1="308.75" x2="199.74" y2="354.31" xlink:href="#Earthtone_20"/>
    <linearGradient id="Earthtone_20-5" data-name="Earthtone 20" x1="274.89" y1="308.75" x2="274.89" y2="354.31" xlink:href="#Earthtone_20"/>
    <linearGradient id="Earthtone_20-6" data-name="Earthtone 20" x1="350.03" y1="308.75" x2="350.03" y2="354.31" xlink:href="#Earthtone_20"/>
    <linearGradient id="Earthtone_20-7" data-name="Earthtone 20" x1="425.18" y1="308.75" x2="425.18" y2="354.31" xlink:href="#Earthtone_20"/>
    <linearGradient id="linear-gradient-25" x1="256.88" y1="412.94" x2="125.96" y2="282.01" gradientUnits="userSpaceOnUse">
      <stop offset="0" stopColor="#fff"/>
      <stop offset="1" stopColor="#000"/>
    </linearGradient>
    <linearGradient id="linear-gradient-26" x1="329.29" y1="383.24" x2="198.37" y2="252.32" xlink:href="#linear-gradient-25"/>
    <linearGradient id="linear-gradient-27" x1="533.97" x2="561.92" xlink:href="#linear-gradient-6"/>
    <linearGradient id="Earthtone_17-2" data-name="Earthtone 17" x1="547.47" x2="547.47" xlink:href="#Earthtone_17"/>
    <linearGradient id="Earthtone_18-10" data-name="Earthtone 18" x1="659.18" y1="424.25" x2="678.29" y2="424.25" xlink:href="#Earthtone_18"/>
    <linearGradient id="linear-gradient-28" x1="12.69" y1="284.16" x2="12.69" y2="407.17" gradientTransform="translate(801.67) rotate(-180) scale(1 -1)" xlink:href="#linear-gradient-2"/>
    <linearGradient id="Earthtone_18-11" data-name="Earthtone 18" x1="749" y1="424.31" x2="729.89" y2="424.31" xlink:href="#Earthtone_18"/>
    <linearGradient id="linear-gradient-29" x1="870.39" y1="476.02" x2="870.39" y2="429.34" gradientTransform="translate(1641.59) rotate(-180) scale(1 -1)" xlink:href="#linear-gradient-14"/>
    <linearGradient id="linear-gradient-30" x1="753.04" y1="410.27" x2="753.04" y2="562.53" xlink:href="#linear-gradient-7"/>
    <linearGradient id="linear-gradient-31" x1="729.98" y1="345.77" x2="729.98" y2="407.44" xlink:href="#linear-gradient-2"/>
    <linearGradient id="linear-gradient-32" x1="754.36" y1="407.91" x2="754.36" y2="560.17" xlink:href="#linear-gradient-7"/>
    <linearGradient id="Earthtone_18-12" data-name="Earthtone 18" x1="630.7" y1="467.51" x2="630.7" y2="441.54" xlink:href="#Earthtone_18"/>
    <linearGradient id="linear-gradient-33" x1="642.11" y1="403.97" x2="642.11" y2="556.24" xlink:href="#linear-gradient-7"/>
    <linearGradient id="linear-gradient-34" x1="678.24" y1="345.4" x2="678.24" y2="407.07" xlink:href="#linear-gradient-2"/>
    <linearGradient id="linear-gradient-35" x1="691.13" y1="340.79" x2="691.13" y2="553.63" xlink:href="#linear-gradient-2"/>
    <linearGradient id="Earthtone_20-8" data-name="Earthtone 20" x1="350.03" y1="308.75" x2="350.03" y2="354.31" xlink:href="#Earthtone_20"/>
    <linearGradient id="Earthtone_20-9" data-name="Earthtone 20" x1="425.18" y1="308.75" x2="425.18" y2="354.31" xlink:href="#Earthtone_20"/>
    <linearGradient id="Earthtone_20-10" data-name="Earthtone 20" x1="500.32" y1="308.75" x2="500.32" y2="354.31" xlink:href="#Earthtone_20"/>
    <linearGradient id="Earthtone_20-11" data-name="Earthtone 20" x1="575.47" y1="308.75" x2="575.47" y2="354.31" xlink:href="#Earthtone_20"/>
    <linearGradient id="Earthtone_20-12" data-name="Earthtone 20" x1="650.61" y1="308.75" x2="650.61" y2="354.31" xlink:href="#Earthtone_20"/>
    <linearGradient id="Earthtone_20-13" data-name="Earthtone 20" x1="725.76" y1="308.75" x2="725.76" y2="354.31" xlink:href="#Earthtone_20"/>
    <linearGradient id="linear-gradient-36" x1="557.46" y1="412.94" x2="426.54" y2="282.01" xlink:href="#linear-gradient-25"/>
    <linearGradient id="linear-gradient-37" x1="629.87" y1="383.24" x2="498.95" y2="252.32" xlink:href="#linear-gradient-25"/>
    <linearGradient id="linear-gradient-38" x1="402.36" y1="340.66" x2="402.36" y2="553.49" xlink:href="#linear-gradient-2"/>
    <linearGradient id="linear-gradient-39" x1="709.19" y1="340.75" x2="709.19" y2="554.11" xlink:href="#linear-gradient-2"/>
  </defs>
  <g class="cls-54">
    <g id="Layer_2" data-name="Layer 2">
      <g id="OBJECTS">
        <rect class="cls-77" width="799.78" height="591.4"/>
        <rect class="cls-81" y="314.31" width="799.78" height="192.71"/>
        <path class="cls-14" d="m474.63,373.77s-.07,0-.1,0h-13.63c-3.99,0-7.22,3.14-7.22,7.02v101.66c0,3.88,3.23,7.02,7.22,7.02h13.63s.07,0,.1,0v-115.7Z"/>
        <path class="cls-47" d="m14.39,373.76H.76c-.26,0-.51.01-.76.04v115.63c.25.03.5.04.76.04h13.63c3.99,0,7.22-3.14,7.22-7.02v-101.66c0-3.88-3.23-7.02-7.22-7.02Z"/>
        <rect class="cls-67" y="499.35" width="799.78" height="8.05"/>
        <path class="cls-1" d="m149.88,489.47h69.96c3.99,0,7.22-3.14,7.22-7.02v-101.66c0-3.88-3.23-7.02-7.22-7.02h-69.96c-3.99,0-7.22,3.14-7.22,7.02v101.66c0,3.88,3.23,7.02,7.22,7.02Z"/>
        <path class="cls-27" d="m255.45,489.47h69.96c3.99,0,7.22-3.14,7.22-7.02v-101.66c0-3.88-3.23-7.02-7.22-7.02h-69.96c-3.99,0-7.22,3.14-7.22,7.02v101.66c0,3.88,3.23,7.02,7.22,7.02Z"/>
        <rect class="cls-56" x="231.72" y="435.98" width="11.18" height="71.05"/>
        <g>
          <path class="cls-75" d="m262.61,431.86h-36.92c-.52,0-.94-.42-.94-.94h0c0-.52.42-.94.94-.94h36.92c.52,0,.94.42.94.94h0c0,.52-.42.94-.94.94Z"/>
          <path class="cls-55" d="m262.94,429.98h-37.59c-.33,0-.6.42-.6.94h38.79c0-.52-.27-.94-.6-.94Z"/>
        </g>
        <rect class="cls-76" x="193.45" y="431.61" width="87.72" height="7.76" rx=".92" ry=".92"/>
        <rect class="cls-51" x="228.93" y="505.79" width="16.77" height="1.23" rx=".61" ry=".61"/>
        <path class="cls-4" d="m113.68,390.77l7.16-.45c2.19-.14,4.1,1.54,4.24,3.73l3.97,59.45c.15,2.19-1.52,4.09-3.71,4.23l-7.16.45c-2.19.14-4.1-1.54-4.24-3.73l-3.97-59.45c-.15-2.19,1.52-4.09,3.71-4.23Z"/>
        <path class="cls-43" d="m125.73,455.62h63.65c1.61,0,2.92,1.32,2.92,2.94v6.9c0,1.62-1.31,2.94-2.92,2.94h-63.65c-1.6,0-2.92-1.32-2.92-2.94v-6.9c0-1.62,1.31-2.94,2.92-2.94Z"/>
        <polygon class="cls-45" points="123.48 465.14 119.59 387.3 99.4 387.3 99.4 507.03 122.93 507.03 125.57 507.03 192.88 507.03 192.88 465.14 123.48 465.14"/>
        <path class="cls-46" d="m99.4,381.76h20.08c.62,0,1.13.51,1.13,1.13v3.97c0,.62-.51,1.13-1.13,1.13h-20.08v-6.22Z"/>
        <path class="cls-17" d="m459.97,493.35h69.96c3.99,0,7.22-3.14,7.22-7.02v-101.66c0-3.88-3.23-7.02-7.22-7.02h-69.96c-3.99,0-7.22,3.14-7.22,7.02v101.66c0,3.88,3.23,7.02,7.22,7.02Z"/>
        <path class="cls-32" d="m565.54,493.35h69.96c3.99,0,7.22-3.14,7.22-7.02v-101.66c0-3.88-3.23-7.02-7.22-7.02h-69.96c-3.99,0-7.22,3.14-7.22,7.02v101.66c0,3.88,3.23,7.02,7.22,7.02Z"/>
        <path class="cls-42" d="m360.96,390.77l-7.16-.45c-2.19-.14-4.1,1.54-4.24,3.73l-3.97,59.45c-.15,2.19,1.52,4.09,3.71,4.23l7.16.45c2.19.14,4.1-1.54,4.24-3.73l3.97-59.45c.15-2.19-1.52-4.09-3.71-4.23Z"/>
        <path class="cls-18" d="m348.9,455.62h-63.61c-1.6,0-2.92,1.32-2.92,2.94v6.9c0,1.62,1.31,2.94,2.92,2.94h63.61c1.6,0,2.92-1.32,2.92-2.94v-6.9c0-1.62-1.31-2.94-2.92-2.94Z"/>
        <polygon class="cls-35" points="355.04 387.3 351.15 465.14 281.76 465.14 281.76 507.03 349.06 507.03 351.7 507.03 375.24 507.03 375.24 387.3 355.04 387.3"/>
        <path class="cls-5" d="m375.24,381.76h-20.08c-.62,0-1.13.51-1.13,1.13v3.97c0,.62.51,1.13,1.13,1.13h20.08v-6.22Z"/>
        <path class="cls-82" d="m69.05,355.25h31.52c.35,0,.64.29.64.64v1.33c0,.35-.29.64-.64.64h-31.52c-.35,0-.64-.29-.64-.64v-1.33c0-.35.29-.64.64-.64Z"/>
        <path class="cls-50" d="m55.82,390.77l-7.16-.45c-2.19-.14-4.1,1.54-4.24,3.73l-3.97,59.45c-.15,2.19,1.52,4.09,3.71,4.23l7.16.45c2.19.14,4.1-1.54,4.24-3.73l3.97-59.45c.15-2.19-1.52-4.09-3.71-4.23Z"/>
        <path class="cls-25" d="m43.74,455.62H0v12.79h43.74c1.62,0,2.94-1.32,2.94-2.94v-6.9c0-1.62-1.32-2.94-2.94-2.94Z"/>
        <polygon class="cls-15" points="49.9 387.3 46.01 465.14 0 465.14 0 507.03 43.92 507.03 46.57 507.03 70.1 507.03 70.1 387.3 49.9 387.3"/>
        <path class="cls-21" d="m70.1,381.76h-20.08c-.62,0-1.13.51-1.13,1.13v3.97c0,.62.51,1.13,1.13,1.13h20.08v-6.22Z"/>
        <polygon class="cls-49" points="100.17 488.4 100.17 357.52 69.46 357.52 69.46 488.4 0 488.4 0 507.03 69.46 507.03 70.1 507.03 99.4 507.03 100.17 507.03 194.22 507.03 194.22 488.4 100.17 488.4"/>
        <path class="cls-39" d="m418.94,390.77l7.16-.45c2.19-.14,4.1,1.54,4.24,3.73l3.97,59.45c.15,2.19-1.52,4.09-3.71,4.23l-7.16.45c-2.19.14-4.1-1.54-4.24-3.73l-3.97-59.45c-.15-2.19,1.52-4.09,3.71-4.23Z"/>
        <path class="cls-3" d="m431.03,455.62h43.61v12.79h-43.61c-1.62,0-2.94-1.32-2.94-2.94v-6.9c0-1.62,1.32-2.94,2.94-2.94Z"/>
        <path class="cls-37" d="m418.9,390.46l7.16-.45c2.19-.14,4.1,1.54,4.24,3.73l3.97,59.45c.15,2.19-1.52,4.09-3.71,4.23l-7.16.45c-2.19.14-4.1-1.54-4.24-3.73l-3.97-59.45c-.15-2.19,1.52-4.09,3.71-4.23Z"/>
        <path class="cls-16" d="m430.96,455.31h63.65c1.61,0,2.92,1.32,2.92,2.94v6.9c0,1.62-1.31,2.94-2.92,2.94h-63.65c-1.6,0-2.92-1.32-2.92-2.94v-6.9c0-1.62,1.31-2.94,2.92-2.94Z"/>
        <polygon class="cls-33" points="428.7 464.83 424.82 386.99 404.62 386.99 404.62 506.71 428.15 506.71 430.8 506.71 498.1 506.71 498.1 464.83 428.7 464.83"/>
        <path class="cls-38" d="m404.62,381.45h20.08c.62,0,1.13.51,1.13,1.13v3.97c0,.62-.51,1.13-1.13,1.13h-20.08v-6.22Z"/>
        <path class="cls-40" d="m404.66,381.76h20.08c.62,0,1.13.51,1.13,1.13v3.97c0,.62-.51,1.13-1.13,1.13h-20.08v-6.22Z"/>
        <polygon class="cls-11" points="428.75 465.14 424.86 387.3 404.66 387.3 404.66 507.03 428.2 507.03 430.84 507.03 474.63 507.03 474.63 465.14 428.75 465.14"/>
        <path class="cls-44" d="m405.31,488.4v-130.55h.4c.35,0,.64-.29.64-.64v-1.33c0-.35-.29-.64-.64-.64h-31.52c-.35,0-.64.29-.64.64v1.33c0,.35.29.64.64.64h.4v130.55h-94.18v18.62h194.22v-18.62h-69.33Z"/>
        <path class="cls-29" d="m373.91,355.25h31.8c.35,0,.64.29.64.64v1.33c0,.35-.29.64-.64.64h-31.8c-.35,0-.64-.29-.64-.64v-1.33c0-.35.29-.64.64-.64Z"/>
        <rect class="cls-74" y="507.03" width="799.78" height="84.38"/>
        <rect class="cls-65" y="306.26" width="799.78" height="8.05"/>
        <g>
          <rect class="cls-71" x="22.17" y="324.6" width="54.57" height="17.44" rx="2.12" ry="2.12"/>
          <rect class="cls-70" x="97.31" y="324.6" width="54.57" height="17.44" rx="2.12" ry="2.12"/>
          <rect class="cls-79" x="172.46" y="324.6" width="54.57" height="17.44" rx="2.12" ry="2.12"/>
          <rect class="cls-61" x="247.6" y="324.6" width="54.57" height="17.44" rx="2.12" ry="2.12"/>
          <rect class="cls-69" x="322.75" y="324.6" width="54.57" height="17.44" rx="2.12" ry="2.12"/>
          <rect class="cls-80" x="397.89" y="324.6" width="54.57" height="17.44" rx="2.12" ry="2.12"/>
        </g>
        <rect class="cls-58" y="346.96" width="799.75" height="3.24"/>
        <g class="cls-53">
          <polygon class="cls-19" points="342.18 466.07 342.1 465.47 341.59 465.47 341.51 464.88 341 464.88 340.91 464.29 340.4 464.29 340.32 463.69 339.81 463.69 339.73 463.1 339.22 463.1 339.14 462.51 338.62 462.51 338.54 461.91 338.03 461.91 337.95 461.32 337.44 461.32 337.36 460.73 336.84 460.73 336.76 460.13 336.25 460.13 336.17 459.54 335.66 459.54 335.58 458.95 335.06 458.95 334.98 458.35 334.47 458.35 334.39 457.76 333.88 457.76 333.8 457.17 333.28 457.17 333.2 456.57 332.69 456.57 332.61 455.98 332.1 455.98 332.02 455.39 331.5 455.39 331.42 454.79 330.91 454.79 330.83 454.2 330.32 454.2 330.24 453.61 329.72 453.61 329.64 453.01 329.13 453.01 329.05 452.42 328.54 452.42 328.46 451.83 327.94 451.83 327.86 451.23 327.35 451.23 327.27 450.64 326.76 450.64 326.68 450.05 326.16 450.05 326.08 449.45 325.57 449.45 325.49 448.86 324.98 448.86 324.9 448.27 324.38 448.27 324.3 447.67 323.79 447.67 323.71 447.08 323.2 447.08 323.12 446.49 322.6 446.49 322.52 445.89 322.01 445.89 321.93 445.3 321.42 445.3 321.34 444.71 320.82 444.71 320.74 444.11 320.23 444.11 320.15 443.52 319.64 443.52 319.56 442.93 319.04 442.93 318.96 442.33 318.45 442.33 318.37 441.74 317.86 441.74 317.78 441.15 317.26 441.15 317.18 440.55 316.67 440.55 316.59 439.96 316.08 439.96 316 439.37 315.48 439.37 315.4 438.77 314.89 438.77 314.81 438.18 314.3 438.18 314.22 437.59 313.7 437.59 313.62 436.99 313.11 436.99 313.03 436.4 312.52 436.4 312.44 435.81 311.92 435.81 311.84 435.21 311.33 435.21 311.25 434.62 310.74 434.62 310.66 434.03 310.14 434.03 310.06 433.44 309.55 433.44 309.47 432.84 308.96 432.84 308.88 432.25 308.36 432.25 308.28 431.66 307.77 431.66 307.69 431.06 307.18 431.06 307.1 430.47 306.58 430.47 306.5 429.88 305.99 429.88 305.91 429.28 305.4 429.28 305.32 428.69 304.8 428.69 304.72 428.1 304.21 428.1 304.13 427.5 303.62 427.5 303.54 426.91 303.02 426.91 302.94 426.32 302.43 426.32 302.35 425.72 301.84 425.72 301.76 425.13 301.24 425.13 301.16 424.54 300.65 424.54 300.57 423.94 300.06 423.94 299.98 423.35 299.46 423.35 299.38 422.76 298.87 422.76 298.79 422.16 298.28 422.16 298.2 421.57 297.68 421.57 297.6 420.98 297.09 420.98 297.01 420.38 296.5 420.38 296.42 419.79 295.9 419.79 295.82 419.2 295.31 419.2 295.23 418.6 294.72 418.6 294.64 418.01 294.13 418.01 294.04 417.42 293.53 417.42 293.45 416.82 292.94 416.82 292.86 416.23 292.35 416.23 292.27 415.64 291.75 415.64 291.67 415.04 291.16 415.04 291.08 414.45 290.57 414.45 290.49 413.86 289.97 413.86 289.89 413.26 289.38 413.26 289.3 412.67 288.79 412.67 288.71 412.08 288.19 412.08 288.11 411.48 287.6 411.48 287.52 410.89 287.01 410.89 286.93 410.3 286.41 410.3 286.33 409.7 285.82 409.7 285.74 409.11 285.23 409.11 285.15 408.52 284.63 408.52 284.55 407.92 284.04 407.92 283.96 407.33 283.45 407.33 283.37 406.74 282.85 406.74 282.77 406.14 282.26 406.14 282.18 405.55 281.67 405.55 281.59 404.96 281.07 404.96 280.99 404.36 280.48 404.36 280.4 403.77 279.89 403.77 279.81 403.18 279.29 403.18 279.21 402.58 278.7 402.58 278.62 401.99 278.11 401.99 278.03 401.4 277.51 401.4 277.43 400.8 276.92 400.8 276.84 400.21 276.33 400.21 276.25 399.62 275.73 399.62 275.65 399.02 275.14 399.02 275.06 398.43 274.55 398.43 274.47 397.84 273.95 397.84 273.87 397.24 273.36 397.24 273.28 396.65 272.77 396.65 272.69 396.06 272.17 396.06 272.09 395.46 271.58 395.46 271.5 394.87 270.99 394.87 270.91 394.28 270.39 394.28 270.31 393.68 269.8 393.68 269.72 393.09 269.21 393.09 269.13 392.5 268.61 392.5 268.53 391.9 268.02 391.9 267.94 391.31 267.43 391.31 267.35 390.72 266.83 390.72 266.75 390.12 266.24 390.12 266.16 389.53 265.65 389.53 265.57 388.94 265.05 388.94 264.97 388.35 264.46 388.35 264.38 387.75 263.87 387.75 263.79 387.16 263.27 387.16 263.19 386.57 262.68 386.57 262.6 385.97 262.09 385.97 262.01 385.38 261.49 385.38 261.41 384.79 260.9 384.79 260.82 384.19 260.31 384.19 260.23 383.6 259.71 383.6 259.63 383.01 259.12 383.01 259.04 382.41 258.53 382.41 258.45 381.82 257.93 381.82 257.85 381.23 257.34 381.23 257.26 380.63 256.75 380.63 256.67 380.04 256.15 380.04 256.07 379.45 255.56 379.45 255.48 378.85 254.97 378.85 254.89 378.26 254.37 378.26 254.29 377.67 253.78 377.67 253.7 377.07 253.19 377.07 253.11 376.48 252.59 376.48 252.51 375.89 252 375.89 251.92 375.29 251.41 375.29 251.33 374.7 250.81 374.7 250.73 374.11 250.22 374.11 250.14 373.51 249.63 373.51 249.55 372.92 249.04 372.92 248.95 372.33 248.44 372.33 248.36 371.73 247.85 371.73 247.77 371.14 247.26 371.14 247.18 370.55 246.66 370.55 246.58 369.95 246.07 369.95 245.99 369.36 245.48 369.36 245.4 368.77 244.88 368.77 244.8 368.17 244.29 368.17 244.21 367.58 243.7 367.58 243.62 366.99 243.1 366.99 243.02 366.39 242.51 366.39 242.43 365.8 241.92 365.8 241.84 365.21 241.32 365.21 241.24 364.61 240.73 364.61 240.65 364.02 240.14 364.02 240.06 363.43 239.54 363.43 239.46 362.83 238.95 362.83 238.87 362.24 238.36 362.24 238.28 361.65 237.76 361.65 237.68 361.05 237.17 361.05 237.09 360.46 236.58 360.46 236.5 359.87 235.98 359.87 235.9 359.27 235.39 359.27 235.31 358.68 234.8 358.68 234.72 358.09 234.2 358.09 234.12 357.49 233.61 357.49 233.53 356.9 233.02 356.9 232.94 356.31 232.42 356.31 232.34 355.71 231.83 355.71 231.75 355.12 231.24 355.12 231.16 354.53 230.64 354.53 230.56 353.93 230.05 353.93 229.97 353.34 229.46 353.34 229.38 352.75 228.86 352.75 228.78 352.15 228.27 352.15 228.19 351.56 227.68 351.56 227.6 350.97 227.08 350.97 227 350.37 226.49 350.37 226.41 349.78 225.9 349.78 225.82 349.19 225.3 349.19 225.22 348.59 224.71 348.59 224.63 348 224.12 348 224.04 347.41 223.52 347.41 223.44 346.81 222.93 346.81 222.85 346.22 222.34 346.22 222.26 345.63 221.74 345.63 221.66 345.03 221.15 345.03 221.07 344.44 220.56 344.44 220.48 343.85 219.96 343.85 219.88 343.25 219.37 343.25 219.29 342.66 218.78 342.66 218.7 342.07 218.18 342.07 218.1 341.48 217.59 341.48 217.51 340.88 217 340.88 216.92 340.29 216.4 340.29 216.32 339.7 215.81 339.7 215.73 339.1 215.22 339.1 215.14 338.51 214.62 338.51 214.54 337.92 214.03 337.92 213.95 337.32 213.44 337.32 213.36 336.73 212.84 336.73 212.76 336.14 212.25 336.14 212.17 335.54 211.66 335.54 211.58 334.95 211.06 334.95 210.98 334.36 210.47 334.36 210.39 333.76 209.88 333.76 209.8 333.17 209.28 333.17 209.2 332.58 208.69 332.58 208.61 331.98 208.1 331.98 208.02 331.39 207.5 331.39 207.42 330.8 206.91 330.8 206.83 330.2 206.32 330.2 206.24 329.61 205.72 329.61 205.64 329.02 205.13 329.02 205.05 328.42 204.54 328.42 204.46 327.83 203.94 327.83 203.86 327.24 203.35 327.24 203.27 326.64 202.76 326.64 202.68 326.05 202.17 326.05 202.08 325.46 201.57 325.46 201.49 324.86 200.98 324.86 200.9 324.27 200.39 324.27 200.31 323.68 199.79 323.68 199.71 323.08 199.2 323.08 199.12 322.49 198.61 322.49 198.53 321.9 198.01 321.9 197.93 321.3 197.42 321.3 197.34 320.71 196.83 320.71 196.75 320.12 196.23 320.12 196.15 319.52 195.64 319.52 195.56 318.93 195.05 318.93 194.97 318.34 194.45 318.34 194.37 317.74 193.67 317.74 192.49 317.74 192.16 317.74 190.99 317.74 190.65 317.74 189.48 317.74 189.15 317.74 187.97 317.74 187.64 317.74 186.47 317.74 186.34 317.74 186.14 317.74 184.96 317.74 184.63 317.74 183.45 317.74 183.12 317.74 181.95 317.74 181.62 317.74 180.44 317.74 180.11 317.74 178.94 317.74 178.31 317.74 173.79 351.14 174.47 351.14 174.39 351.73 175.06 351.73 174.98 352.32 175.65 352.32 175.57 352.92 176.25 352.92 176.17 353.51 176.84 353.51 176.76 354.1 177.43 354.1 177.35 354.7 178.03 354.7 177.95 355.29 178.62 355.29 178.54 355.88 179.21 355.88 179.13 356.48 179.81 356.48 179.73 357.07 180.4 357.07 180.34 357.52 179.98 357.52 179.98 368.71 180.57 368.71 180.57 369.31 181.16 369.31 181.16 369.9 181.76 369.9 181.76 370.49 182.35 370.49 182.35 371.09 182.94 371.09 182.94 371.68 183.54 371.68 183.54 372.27 184.13 372.27 184.13 372.87 184.72 372.87 184.72 373.46 185.32 373.46 185.32 374.05 185.91 374.05 185.91 374.65 186.5 374.65 186.5 375.24 187.1 375.24 187.1 375.83 187.69 375.83 187.69 376.43 188.28 376.43 188.28 377.02 188.88 377.02 188.88 377.61 189.47 377.61 189.47 378.21 190.06 378.21 190.06 378.8 190.66 378.8 190.66 379.39 191.25 379.39 191.25 379.99 191.84 379.99 191.84 380.58 192.44 380.58 192.44 381.17 193.03 381.17 193.03 381.77 193.62 381.77 193.62 382.36 194.22 382.36 194.22 382.95 194.81 382.95 194.81 383.55 195.4 383.55 195.4 384.14 196 384.14 196 384.73 196.59 384.73 196.59 385.33 197.18 385.33 197.18 385.92 197.78 385.92 197.78 386.51 198.37 386.51 198.37 387.11 198.96 387.11 198.96 387.7 199.55 387.7 199.55 388.29 200.15 388.29 200.15 388.89 200.74 388.89 200.74 389.48 201.33 389.48 201.33 390.07 201.93 390.07 201.93 390.67 202.52 390.67 202.52 391.26 203.11 391.26 203.11 391.85 203.71 391.85 203.71 392.45 204.3 392.45 204.3 393.04 204.89 393.04 204.89 393.63 205.49 393.63 205.49 394.23 206.08 394.23 206.08 394.82 206.67 394.82 206.67 395.41 207.27 395.41 207.27 396.01 207.86 396.01 207.86 396.6 208.45 396.6 208.45 397.19 209.05 397.19 209.05 397.78 209.64 397.78 209.64 398.38 210.23 398.38 210.23 398.97 210.83 398.97 210.83 399.56 211.42 399.56 211.42 400.16 212.01 400.16 212.01 400.75 212.61 400.75 212.61 401.34 213.2 401.34 213.2 401.94 213.79 401.94 213.79 402.53 214.39 402.53 214.39 403.12 214.98 403.12 214.98 403.72 215.57 403.72 215.57 404.31 216.17 404.31 216.17 404.9 216.76 404.9 216.76 405.5 217.35 405.5 217.35 406.09 217.95 406.09 217.95 406.68 218.54 406.68 218.54 407.28 219.13 407.28 219.13 407.87 219.73 407.87 219.73 408.46 220.32 408.46 220.32 409.06 220.91 409.06 220.91 409.65 221.51 409.65 221.51 410.24 222.1 410.24 222.1 410.84 222.69 410.84 222.69 411.43 223.29 411.43 223.29 412.02 223.88 412.02 223.88 412.62 224.47 412.62 224.47 413.21 225.07 413.21 225.07 413.8 225.66 413.8 225.66 414.4 226.25 414.4 226.25 414.99 226.85 414.99 226.85 415.58 227.44 415.58 227.44 416.18 228.03 416.18 228.03 416.77 228.63 416.77 228.63 417.36 229.22 417.36 229.22 417.96 229.81 417.96 229.81 418.55 230.41 418.55 230.41 419.14 231 419.14 231 419.74 231.59 419.74 231.59 420.33 232.19 420.33 232.19 420.92 232.78 420.92 232.78 421.52 233.37 421.52 233.37 422.11 233.97 422.11 233.97 422.7 234.56 422.7 234.56 423.3 235.15 423.3 235.15 423.89 235.75 423.89 235.75 424.48 236.34 424.48 236.34 425.08 236.93 425.08 236.93 425.67 237.53 425.67 237.53 426.26 238.12 426.26 238.12 426.86 238.71 426.86 238.71 427.45 239.31 427.45 239.31 428.04 239.9 428.04 239.9 428.64 240.49 428.64 240.49 429.23 241.09 429.23 241.09 429.82 241.68 429.82 241.68 430.42 242.27 430.42 242.27 431.01 242.87 431.01 242.87 431.6 243.46 431.6 243.46 432.2 244.05 432.2 244.05 432.79 244.65 432.79 244.65 433.38 245.24 433.38 245.24 433.98 245.83 433.98 245.83 434.57 246.42 434.57 246.42 435.16 247.02 435.16 247.02 435.76 247.61 435.76 247.61 436.35 248.2 436.35 248.2 436.94 248.8 436.94 248.8 437.54 249.39 437.54 249.39 438.13 249.98 438.13 249.98 438.72 250.58 438.72 250.58 439.32 251.17 439.32 251.17 439.91 251.76 439.91 251.76 440.5 252.36 440.5 252.36 441.1 252.95 441.1 252.95 441.69 253.54 441.69 253.54 442.28 254.14 442.28 254.14 442.88 254.73 442.88 254.73 443.47 255.32 443.47 255.32 444.06 255.92 444.06 255.92 444.65 256.51 444.65 256.51 445.25 257.1 445.25 257.1 445.84 257.7 445.84 257.7 446.43 258.29 446.43 258.29 447.03 258.88 447.03 258.88 447.62 259.48 447.62 259.48 448.21 260.07 448.21 260.07 448.81 260.66 448.81 260.66 449.4 261.26 449.4 261.26 449.99 261.85 449.99 261.85 450.59 262.44 450.59 262.44 451.18 263.04 451.18 263.04 451.77 263.63 451.77 263.63 452.37 264.22 452.37 264.22 452.96 264.82 452.96 264.82 453.55 265.41 453.55 265.41 454.15 266 454.15 266 454.74 266.6 454.74 266.6 455.33 267.19 455.33 267.19 455.93 267.78 455.93 267.78 456.52 268.38 456.52 268.38 457.11 268.97 457.11 268.97 457.71 269.56 457.71 269.56 458.3 270.16 458.3 270.16 458.89 270.75 458.89 270.75 459.49 271.34 459.49 271.34 460.08 271.94 460.08 271.94 460.67 272.53 460.67 272.53 461.27 273.12 461.27 273.12 461.86 273.72 461.86 273.72 462.45 274.31 462.45 274.31 463.05 274.9 463.05 274.9 463.64 275.5 463.64 275.5 464.23 276.09 464.23 276.09 464.83 276.68 464.83 276.68 465.42 277.28 465.42 277.28 466.01 277.87 466.01 277.87 466.61 278.46 466.61 278.46 467.2 279.06 467.2 279.06 467.79 279.65 467.79 279.65 468.39 280.24 468.39 280.24 468.98 280.84 468.98 280.84 469.57 281.43 469.57 281.43 470.17 282.02 470.17 282.02 470.76 282.62 470.76 282.62 471.35 283.21 471.35 283.21 471.95 283.8 471.95 283.8 472.54 284.4 472.54 284.4 473.13 284.99 473.13 284.99 473.73 285.58 473.73 285.58 474.32 286.18 474.32 286.18 474.91 286.77 474.91 286.77 475.51 287.36 475.51 287.36 476.1 287.96 476.1 287.96 476.69 288.55 476.69 288.55 477.29 289.14 477.29 289.14 477.88 289.74 477.88 289.74 478.47 290.33 478.47 290.33 479.07 290.92 479.07 290.92 479.66 291.51 479.66 291.51 480.25 292.11 480.25 292.11 480.85 292.7 480.85 292.7 481.44 293.29 481.44 293.29 482.03 293.89 482.03 293.89 482.63 294.48 482.63 294.48 483.22 295.07 483.22 295.07 483.81 295.67 483.81 295.67 484.41 296.26 484.41 296.26 485 296.85 485 296.85 485.59 297.45 485.59 297.45 486.19 298.04 486.19 298.04 486.78 298.63 486.78 298.63 487.37 299.23 487.37 299.23 487.97 299.82 487.97 299.82 488.56 300.41 488.56 300.41 489.15 301.01 489.15 301.01 489.74 301.6 489.74 301.6 490.34 302.19 490.34 302.19 490.93 302.79 490.93 302.79 491.52 303.38 491.52 303.38 492.12 303.97 492.12 303.97 492.71 304.57 492.71 304.57 493.3 305.16 493.3 305.16 493.9 305.75 493.9 305.75 494.49 306.35 494.49 306.35 495.08 306.94 495.08 306.94 495.68 307.53 495.68 307.53 496.27 308.13 496.27 308.13 496.86 308.72 496.86 308.72 497.46 309.31 497.46 309.31 498.05 309.91 498.05 309.91 498.64 310.5 498.64 310.5 499.24 311.09 499.24 311.09 499.83 311.69 499.83 311.69 500.42 312.28 500.42 312.28 501.02 312.87 501.02 312.87 501.61 313.47 501.61 313.47 502.2 314.06 502.2 314.06 502.8 314.65 502.8 314.65 503.39 315.25 503.39 315.25 503.98 315.84 503.98 315.84 504.58 316.43 504.58 316.43 505.17 317.03 505.17 317.03 505.76 317.62 505.76 317.62 506.36 318.21 506.36 318.21 506.95 318.81 506.95 318.81 507.54 319.4 507.54 319.4 508.14 319.99 508.14 319.99 508.73 320.59 508.73 320.59 509.32 321.18 509.32 321.18 509.92 321.77 509.92 321.77 510.51 322.37 510.51 322.37 511.1 322.96 511.1 322.96 511.7 323.55 511.7 323.55 512.29 324.15 512.29 324.15 512.88 324.74 512.88 324.74 513.48 325.33 513.48 325.33 514.07 325.93 514.07 325.93 514.66 326.52 514.66 326.52 515.26 327.11 515.26 327.11 515.85 327.71 515.85 327.71 516.44 328.3 516.44 328.3 517.04 341.02 517.04 341.02 505.84 340.43 505.84 340.43 505.25 339.84 505.25 339.84 504.66 339.25 504.66 339.25 504.06 338.65 504.06 338.65 503.47 338.06 503.47 338.06 502.88 337.47 502.88 337.47 502.28 336.87 502.28 336.87 501.69 336.28 501.69 336.28 501.1 335.69 501.1 335.69 500.51 335.58 500.51 335.58 499.46 336.85 499.46 337.39 499.46 339.26 499.46 339.79 499.46 341.66 499.46 342.19 499.46 344.07 499.46 344.6 499.46 346.47 499.46 347.21 499.46 342.69 466.07 342.18 466.07"/>
          <polygon class="cls-24" points="444.8 466.07 444.29 466.07 444.21 465.47 443.69 465.47 443.61 464.88 443.1 464.88 443.02 464.29 442.51 464.29 442.43 463.69 441.91 463.69 441.83 463.1 441.32 463.1 441.24 462.51 440.73 462.51 440.65 461.91 440.13 461.91 440.05 461.32 439.54 461.32 439.46 460.73 438.95 460.73 438.87 460.13 438.35 460.13 438.27 459.54 437.76 459.54 437.68 458.95 437.17 458.95 437.09 458.35 436.57 458.35 436.49 457.76 435.98 457.76 435.9 457.17 435.39 457.17 435.31 456.57 434.79 456.57 434.71 455.98 434.2 455.98 434.12 455.39 433.61 455.39 433.53 454.79 433.01 454.79 432.93 454.2 432.42 454.2 432.34 453.61 431.83 453.61 431.75 453.01 431.23 453.01 431.15 452.42 430.64 452.42 430.56 451.83 430.05 451.83 429.97 451.23 429.45 451.23 429.37 450.64 428.86 450.64 428.78 450.05 428.27 450.05 428.19 449.45 427.67 449.45 427.59 448.86 427.08 448.86 427 448.27 426.49 448.27 426.41 447.67 425.89 447.67 425.81 447.08 425.3 447.08 425.22 446.49 424.71 446.49 424.63 445.89 424.11 445.89 424.03 445.3 423.52 445.3 423.44 444.71 422.93 444.71 422.85 444.11 422.33 444.11 422.25 443.52 421.74 443.52 421.66 442.93 421.15 442.93 421.07 442.33 420.55 442.33 420.47 441.74 419.96 441.74 419.88 441.15 419.37 441.15 419.29 440.55 418.77 440.55 418.69 439.96 418.18 439.96 418.1 439.37 417.59 439.37 417.51 438.77 417 438.77 416.91 438.18 416.4 438.18 416.32 437.59 415.81 437.59 415.73 436.99 415.22 436.99 415.14 436.4 414.62 436.4 414.54 435.81 414.03 435.81 413.95 435.21 413.44 435.21 413.36 434.62 412.84 434.62 412.76 434.03 412.25 434.03 412.17 433.44 411.66 433.44 411.58 432.84 411.06 432.84 410.98 432.25 410.47 432.25 410.39 431.66 409.88 431.66 409.8 431.06 409.28 431.06 409.2 430.47 408.69 430.47 408.61 429.88 408.1 429.88 408.02 429.28 407.5 429.28 407.42 428.69 406.91 428.69 406.83 428.1 406.32 428.1 406.24 427.5 405.72 427.5 405.64 426.91 405.13 426.91 405.05 426.32 404.54 426.32 404.46 425.72 403.94 425.72 403.86 425.13 403.35 425.13 403.27 424.54 402.76 424.54 402.68 423.94 402.16 423.94 402.08 423.35 401.57 423.35 401.49 422.76 400.98 422.76 400.9 422.16 400.38 422.16 400.3 421.57 399.79 421.57 399.71 420.98 399.2 420.98 399.12 420.38 398.6 420.38 398.52 419.79 398.01 419.79 397.93 419.2 397.42 419.2 397.34 418.6 396.82 418.6 396.74 418.01 396.23 418.01 396.15 417.42 395.64 417.42 395.56 416.82 395.04 416.82 394.96 416.23 394.45 416.23 394.37 415.64 393.86 415.64 393.78 415.04 393.26 415.04 393.18 414.45 392.67 414.45 392.59 413.86 392.08 413.86 392 413.26 391.48 413.26 391.4 412.67 390.89 412.67 390.81 412.08 390.3 412.08 390.22 411.48 389.7 411.48 389.62 410.89 389.11 410.89 389.03 410.3 388.52 410.3 388.44 409.7 387.92 409.7 387.84 409.11 387.33 409.11 387.25 408.52 386.74 408.52 386.66 407.92 386.14 407.92 386.06 407.33 385.55 407.33 385.47 406.74 384.96 406.74 384.88 406.14 384.36 406.14 384.28 405.55 383.77 405.55 383.69 404.96 383.18 404.96 383.1 404.36 382.58 404.36 382.5 403.77 381.99 403.77 381.91 403.18 381.4 403.18 381.32 402.58 380.8 402.58 380.72 401.99 380.21 401.99 380.13 401.4 379.62 401.4 379.54 400.8 379.02 400.8 378.94 400.21 378.43 400.21 378.35 399.62 377.84 399.62 377.76 399.02 377.24 399.02 377.16 398.43 376.65 398.43 376.57 397.84 376.06 397.84 375.98 397.24 375.46 397.24 375.38 396.65 374.87 396.65 374.79 396.06 374.28 396.06 374.2 395.46 373.68 395.46 373.6 394.87 373.09 394.87 373.01 394.28 372.5 394.28 372.42 393.68 371.9 393.68 371.82 393.09 371.31 393.09 371.23 392.5 370.72 392.5 370.64 391.9 370.13 391.9 370.04 391.31 369.53 391.31 369.45 390.72 368.94 390.72 368.86 390.12 368.35 390.12 368.27 389.53 367.75 389.53 367.67 388.94 367.16 388.94 367.08 388.35 366.57 388.35 366.49 387.75 365.97 387.75 365.89 387.16 365.38 387.16 365.3 386.57 364.79 386.57 364.71 385.97 364.19 385.97 364.11 385.38 363.6 385.38 363.52 384.79 363.01 384.79 362.93 384.19 362.41 384.19 362.33 383.6 361.82 383.6 361.74 383.01 361.23 383.01 361.15 382.41 360.63 382.41 360.55 381.82 360.04 381.82 359.96 381.23 359.45 381.23 359.37 380.63 358.85 380.63 358.77 380.04 358.26 380.04 358.18 379.45 357.67 379.45 357.59 378.85 357.07 378.85 356.99 378.26 356.48 378.26 356.4 377.67 355.89 377.67 355.81 377.07 355.29 377.07 355.21 376.48 354.7 376.48 354.62 375.89 354.11 375.89 354.03 375.29 353.51 375.29 353.43 374.7 352.92 374.7 352.84 374.11 352.33 374.11 352.25 373.51 351.73 373.51 351.65 372.92 351.14 372.92 351.06 372.33 350.55 372.33 350.47 371.73 349.95 371.73 349.87 371.14 349.36 371.14 349.28 370.55 348.77 370.55 348.69 369.95 348.17 369.95 348.09 369.36 347.58 369.36 347.5 368.77 346.99 368.77 346.91 368.17 346.39 368.17 346.31 367.58 345.8 367.58 345.72 366.99 345.21 366.99 345.13 366.39 344.61 366.39 344.53 365.8 344.02 365.8 343.94 365.21 343.43 365.21 343.35 364.61 342.83 364.61 342.75 364.02 342.24 364.02 342.16 363.43 341.65 363.43 341.57 362.83 341.05 362.83 340.97 362.24 340.46 362.24 340.38 361.65 339.87 361.65 339.79 361.05 339.27 361.05 339.19 360.46 338.68 360.46 338.6 359.87 338.09 359.87 338.01 359.27 337.49 359.27 337.41 358.68 336.9 358.68 336.82 358.09 336.31 358.09 336.23 357.49 335.71 357.49 335.63 356.9 335.12 356.9 335.04 356.31 334.53 356.31 334.45 355.71 333.93 355.71 333.85 355.12 333.34 355.12 333.26 354.53 332.75 354.53 332.67 353.93 332.15 353.93 332.07 353.34 331.56 353.34 331.48 352.75 330.97 352.75 330.89 352.15 330.37 352.15 330.29 351.56 329.78 351.56 329.7 350.97 329.19 350.97 329.11 350.37 328.59 350.37 328.51 349.78 328 349.78 327.92 349.19 327.41 349.19 327.33 348.59 326.81 348.59 326.73 348 326.22 348 326.14 347.41 325.63 347.41 325.55 346.81 325.04 346.81 324.95 346.22 324.44 346.22 324.36 345.63 323.85 345.63 323.77 345.03 323.26 345.03 323.18 344.44 322.66 344.44 322.58 343.85 322.07 343.85 321.99 343.25 321.48 343.25 321.4 342.66 320.88 342.66 320.8 342.07 320.29 342.07 320.21 341.48 319.7 341.48 319.62 340.88 319.1 340.88 319.02 340.29 318.51 340.29 318.43 339.7 317.92 339.7 317.84 339.1 317.32 339.1 317.24 338.51 316.73 338.51 316.65 337.92 316.14 337.92 316.06 337.32 315.54 337.32 315.46 336.73 314.95 336.73 314.87 336.14 314.36 336.14 314.28 335.54 313.76 335.54 313.68 334.95 313.17 334.95 313.09 334.36 312.58 334.36 312.5 333.76 311.98 333.76 311.9 333.17 311.39 333.17 311.31 332.58 310.8 332.58 310.72 331.98 310.2 331.98 310.12 331.39 309.61 331.39 309.53 330.8 309.02 330.8 308.94 330.2 308.42 330.2 308.34 329.61 307.83 329.61 307.75 329.02 307.24 329.02 307.16 328.42 306.64 328.42 306.56 327.83 306.05 327.83 305.97 327.24 305.46 327.24 305.38 326.64 304.86 326.64 304.78 326.05 304.27 326.05 304.19 325.46 303.68 325.46 303.6 324.86 303.08 324.86 303 324.27 302.49 324.27 302.41 323.68 301.9 323.68 301.82 323.08 301.3 323.08 301.22 322.49 300.71 322.49 300.63 321.9 300.12 321.9 300.04 321.3 299.52 321.3 299.44 320.71 298.93 320.71 298.85 320.12 298.34 320.12 298.26 319.52 297.74 319.52 297.66 318.93 297.15 318.93 297.07 318.34 296.56 318.34 296.48 317.74 295.77 317.74 294.6 317.74 294.26 317.74 293.09 317.74 292.76 317.74 291.59 317.74 291.25 317.74 290.08 317.74 289.75 317.74 288.57 317.74 288.44 317.74 288.24 317.74 287.07 317.74 286.73 317.74 285.56 317.74 285.23 317.74 284.05 317.74 283.72 317.74 282.55 317.74 282.21 317.74 281.04 317.74 280.41 317.74 275.9 351.14 276.57 351.14 276.49 351.73 277.17 351.73 277.09 352.32 277.76 352.32 277.68 352.92 278.35 352.92 278.27 353.51 278.95 353.51 278.87 354.1 279.54 354.1 279.46 354.7 280.13 354.7 280.05 355.29 280.73 355.29 280.65 355.88 281.32 355.88 281.24 356.48 281.91 356.48 281.83 357.07 282.51 357.07 282.44 357.52 282.08 357.52 282.08 368.71 282.67 368.71 282.67 369.31 283.27 369.31 283.27 369.9 283.86 369.9 283.86 370.49 284.45 370.49 284.45 371.09 285.05 371.09 285.05 371.68 285.64 371.68 285.64 372.27 286.23 372.27 286.23 372.87 286.83 372.87 286.83 373.46 287.42 373.46 287.42 374.05 288.01 374.05 288.01 374.65 288.61 374.65 288.61 375.24 289.2 375.24 289.2 375.83 289.79 375.83 289.79 376.43 290.39 376.43 290.39 377.02 290.98 377.02 290.98 377.61 291.57 377.61 291.57 378.21 292.17 378.21 292.17 378.8 292.76 378.8 292.76 379.39 293.35 379.39 293.35 379.99 293.95 379.99 293.95 380.58 294.54 380.58 294.54 381.17 295.13 381.17 295.13 381.77 295.73 381.77 295.73 382.36 296.32 382.36 296.32 382.95 296.91 382.95 296.91 383.55 297.51 383.55 297.51 384.14 298.1 384.14 298.1 384.73 298.69 384.73 298.69 385.33 299.29 385.33 299.29 385.92 299.88 385.92 299.88 386.51 300.47 386.51 300.47 387.11 301.07 387.11 301.07 387.7 301.66 387.7 301.66 388.29 302.25 388.29 302.25 388.89 302.85 388.89 302.85 389.48 303.44 389.48 303.44 390.07 304.03 390.07 304.03 390.67 304.63 390.67 304.63 391.26 305.22 391.26 305.22 391.85 305.81 391.85 305.81 392.45 306.41 392.45 306.41 393.04 307 393.04 307 393.63 307.59 393.63 307.59 394.23 308.19 394.23 308.19 394.82 308.78 394.82 308.78 395.41 309.37 395.41 309.37 396.01 309.97 396.01 309.97 396.6 310.56 396.6 310.56 397.19 311.15 397.19 311.15 397.78 311.75 397.78 311.75 398.38 312.34 398.38 312.34 398.97 312.93 398.97 312.93 399.56 313.53 399.56 313.53 400.16 314.12 400.16 314.12 400.75 314.71 400.75 314.71 401.34 315.31 401.34 315.31 401.94 315.9 401.94 315.9 402.53 316.49 402.53 316.49 403.12 317.09 403.12 317.09 403.72 317.68 403.72 317.68 404.31 318.27 404.31 318.27 404.9 318.87 404.9 318.87 405.5 319.46 405.5 319.46 406.09 320.05 406.09 320.05 406.68 320.65 406.68 320.65 407.28 321.24 407.28 321.24 407.87 321.83 407.87 321.83 408.46 322.43 408.46 322.43 409.06 323.02 409.06 323.02 409.65 323.61 409.65 323.61 410.24 324.2 410.24 324.2 410.84 324.8 410.84 324.8 411.43 325.39 411.43 325.39 412.02 325.98 412.02 325.98 412.62 326.58 412.62 326.58 413.21 327.17 413.21 327.17 413.8 327.76 413.8 327.76 414.4 328.36 414.4 328.36 414.99 328.95 414.99 328.95 415.58 329.54 415.58 329.54 416.18 330.14 416.18 330.14 416.77 330.73 416.77 330.73 417.36 331.32 417.36 331.32 417.96 331.92 417.96 331.92 418.55 332.51 418.55 332.51 419.14 333.1 419.14 333.1 419.74 333.7 419.74 333.7 420.33 334.29 420.33 334.29 420.92 334.88 420.92 334.88 421.52 335.48 421.52 335.48 422.11 336.07 422.11 336.07 422.7 336.66 422.7 336.66 423.3 337.26 423.3 337.26 423.89 337.85 423.89 337.85 424.48 338.44 424.48 338.44 425.08 339.04 425.08 339.04 425.67 339.63 425.67 339.63 426.26 340.22 426.26 340.22 426.86 340.82 426.86 340.82 427.45 341.41 427.45 341.41 428.04 342 428.04 342 428.64 342.6 428.64 342.6 429.23 343.19 429.23 343.19 429.82 343.78 429.82 343.78 430.42 344.38 430.42 344.38 431.01 344.97 431.01 344.97 431.6 345.56 431.6 345.56 432.2 346.16 432.2 346.16 432.79 346.75 432.79 346.75 433.38 347.34 433.38 347.34 433.98 347.94 433.98 347.94 434.57 348.53 434.57 348.53 435.16 349.12 435.16 349.12 435.76 349.72 435.76 349.72 436.35 350.31 436.35 350.31 436.94 350.9 436.94 350.9 437.54 351.5 437.54 351.5 438.13 352.09 438.13 352.09 438.72 352.68 438.72 352.68 439.32 353.28 439.32 353.28 439.91 353.87 439.91 353.87 440.5 354.46 440.5 354.46 441.1 355.06 441.1 355.06 441.69 355.65 441.69 355.65 442.28 356.24 442.28 356.24 442.88 356.84 442.88 356.84 443.47 357.43 443.47 357.43 444.06 358.02 444.06 358.02 444.65 358.62 444.65 358.62 445.25 359.21 445.25 359.21 445.84 359.8 445.84 359.8 446.43 360.4 446.43 360.4 447.03 360.99 447.03 360.99 447.62 361.58 447.62 361.58 448.21 362.18 448.21 362.18 448.81 362.77 448.81 362.77 449.4 363.36 449.4 363.36 449.99 363.96 449.99 363.96 450.59 364.55 450.59 364.55 451.18 365.14 451.18 365.14 451.77 365.74 451.77 365.74 452.37 366.33 452.37 366.33 452.96 366.92 452.96 366.92 453.55 367.52 453.55 367.52 454.15 368.11 454.15 368.11 454.74 368.7 454.74 368.7 455.33 369.29 455.33 369.29 455.93 369.89 455.93 369.89 456.52 370.48 456.52 370.48 457.11 371.07 457.11 371.07 457.71 371.67 457.71 371.67 458.3 372.26 458.3 372.26 458.89 372.85 458.89 372.85 459.49 373.45 459.49 373.45 460.08 374.04 460.08 374.04 460.67 374.63 460.67 374.63 461.27 375.23 461.27 375.23 461.86 375.82 461.86 375.82 462.45 376.41 462.45 376.41 463.05 377.01 463.05 377.01 463.64 377.6 463.64 377.6 464.23 378.19 464.23 378.19 464.83 378.79 464.83 378.79 465.42 379.38 465.42 379.38 466.01 379.97 466.01 379.97 466.61 380.57 466.61 380.57 467.2 381.16 467.2 381.16 467.79 381.75 467.79 381.75 468.39 382.35 468.39 382.35 468.98 382.94 468.98 382.94 469.57 383.53 469.57 383.53 470.17 384.13 470.17 384.13 470.76 384.72 470.76 384.72 471.35 385.31 471.35 385.31 471.95 385.91 471.95 385.91 472.54 386.5 472.54 386.5 473.13 387.09 473.13 387.09 473.73 387.69 473.73 387.69 474.32 388.28 474.32 388.28 474.91 388.87 474.91 388.87 475.51 389.47 475.51 389.47 476.1 390.06 476.1 390.06 476.69 390.65 476.69 390.65 477.29 391.25 477.29 391.25 477.88 391.84 477.88 391.84 478.47 392.43 478.47 392.43 479.07 393.03 479.07 393.03 479.66 393.62 479.66 393.62 480.25 394.21 480.25 394.21 480.85 394.81 480.85 394.81 481.44 395.4 481.44 395.4 482.03 395.99 482.03 395.99 482.63 396.59 482.63 396.59 483.22 397.18 483.22 397.18 483.81 397.77 483.81 397.77 484.41 398.37 484.41 398.37 485 398.96 485 398.96 485.59 399.55 485.59 399.55 486.19 400.15 486.19 400.15 486.78 400.74 486.78 400.74 487.37 401.33 487.37 401.33 487.97 401.93 487.97 401.93 488.56 402.52 488.56 402.52 489.15 403.11 489.15 403.11 489.74 403.71 489.74 403.71 490.34 404.3 490.34 404.3 490.93 404.89 490.93 404.89 491.52 405.49 491.52 405.49 492.12 406.08 492.12 406.08 492.71 406.67 492.71 406.67 493.3 407.27 493.3 407.27 493.9 407.86 493.9 407.86 494.49 408.45 494.49 408.45 495.08 409.05 495.08 409.05 495.68 409.64 495.68 409.64 496.27 410.23 496.27 410.23 496.86 410.83 496.86 410.83 497.46 411.42 497.46 411.42 498.05 412.01 498.05 412.01 498.64 412.61 498.64 412.61 499.24 413.2 499.24 413.2 499.83 413.79 499.83 413.79 500.42 414.39 500.42 414.39 501.02 414.98 501.02 414.98 501.61 415.57 501.61 415.57 502.2 416.16 502.2 416.16 502.8 416.76 502.8 416.76 503.39 417.35 503.39 417.35 503.98 417.94 503.98 417.94 504.58 418.54 504.58 418.54 505.17 419.13 505.17 419.13 505.76 419.72 505.76 419.72 506.36 420.32 506.36 420.32 506.95 420.91 506.95 420.91 507.54 421.5 507.54 421.5 508.14 422.1 508.14 422.1 508.73 422.69 508.73 422.69 509.32 423.28 509.32 423.28 509.92 423.88 509.92 423.88 510.51 424.47 510.51 424.47 511.1 425.06 511.1 425.06 511.7 425.66 511.7 425.66 512.29 426.25 512.29 426.25 512.88 426.84 512.88 426.84 513.48 427.44 513.48 427.44 514.07 428.03 514.07 428.03 514.66 428.62 514.66 428.62 515.26 429.22 515.26 429.22 515.85 429.81 515.85 429.81 516.44 430.4 516.44 430.4 517.04 443.13 517.04 443.13 505.84 442.54 505.84 442.54 505.25 441.94 505.25 441.94 504.66 441.35 504.66 441.35 504.06 440.76 504.06 440.76 503.47 440.16 503.47 440.16 502.88 439.57 502.88 439.57 502.28 438.98 502.28 438.98 501.69 438.38 501.69 438.38 501.1 437.79 501.1 437.79 500.51 437.69 500.51 437.69 499.46 438.96 499.46 439.49 499.46 441.36 499.46 441.9 499.46 443.77 499.46 444.3 499.46 446.17 499.46 446.7 499.46 448.58 499.46 449.31 499.46 444.8 466.07"/>
        </g>
        <g>
          <g>
            <g>
              <rect class="cls-66" x="179.98" y="357.52" width="12.73" height="11.19"/>
              <rect class="cls-60" x="180.52" y="358.06" width="11.64" height="10.11"/>
              <rect class="cls-68" x="185.42" y="346.69" width="1.85" height="16.42"/>
            </g>
            <g>
              <polygon class="cls-31" points="178.31 317.74 186.34 317.74 194.37 317.74 198.89 351.14 186.34 351.14 173.79 351.14 178.31 317.74"/>
              <g>
                <path class="cls-7" d="m180.11,317.74h-1.17c-.48,3.72-1.03,7.97-1.66,12.87-.74,5.71-1.6,12.46-2.64,20.53h1.87c.87-8.07,1.6-14.81,2.21-20.52.53-4.9.99-9.15,1.39-12.87Z"/>
                <path class="cls-7" d="m181.62,317.74h-1.17c-.38,3.72-.81,7.97-1.31,12.87-.58,5.71-1.27,12.46-2.09,20.52h1.87c.65-8.07,1.2-14.81,1.66-20.52.4-4.9.74-9.15,1.04-12.87Z"/>
                <path class="cls-7" d="m183.12,317.74h-1.17c-.28,3.72-.6,7.97-.96,12.87-.43,5.71-.93,12.46-1.54,20.52h1.87c.44-8.07.8-14.81,1.11-20.52.26-4.9.49-9.15.69-12.87Z"/>
                <path class="cls-7" d="m184.63,317.74h-1.17c-.18,3.72-.38,7.97-.62,12.87-.27,5.71-.6,12.46-.99,20.52h1.87c.22-8.07.4-14.81.56-20.52.13-4.9.25-9.15.35-12.87Z"/>
                <path class="cls-7" d="m186.14,317.74h-1.17c-.08,3.72-.17,7.97-.27,12.87-.12,5.71-.26,12.46-.43,20.52h1.87c0-8.07,0-14.81,0-20.52,0-4.9,0-9.15,0-12.87Z"/>
                <path class="cls-7" d="m187.64,317.74h-1.17c.02,3.72.05,7.97.07,12.87.03,5.71.07,12.46.12,20.52h1.87c-.22-8.07-.4-14.81-.55-20.52-.13-4.9-.24-9.15-.34-12.87Z"/>
                <path class="cls-7" d="m189.15,317.74h-1.17c.12,3.72.26,7.97.42,12.87.19,5.71.41,12.46.67,20.52h1.87c-.43-8.07-.79-14.81-1.1-20.52-.26-4.89-.49-9.15-.69-12.87Z"/>
                <path class="cls-7" d="m190.65,317.74h-1.17c.22,3.72.47,7.98.77,12.87.34,5.71.74,12.45,1.22,20.52h1.87c-.65-8.07-1.19-14.81-1.65-20.52-.39-4.89-.74-9.15-1.04-12.87Z"/>
                <path class="cls-7" d="m192.16,317.74h-1.17c.32,3.72.69,7.98,1.11,12.87.49,5.71,1.08,12.45,1.77,20.52h1.87c-.87-8.07-1.59-14.81-2.2-20.52-.53-4.89-.98-9.15-1.38-12.87Z"/>
                <path class="cls-7" d="m193.67,317.74h-1.18c.42,3.72.9,7.98,1.46,12.87.65,5.71,1.41,12.45,2.33,20.52h1.88c-1.08-8.07-1.99-14.81-2.76-20.52-.66-4.89-1.23-9.15-1.73-12.87Z"/>
              </g>
            </g>
          </g>
          <g>
            <g>
              <rect class="cls-66" x="282.08" y="357.52" width="12.73" height="11.19"/>
              <rect class="cls-60" x="282.62" y="358.06" width="11.64" height="10.11"/>
              <rect class="cls-68" x="287.52" y="346.69" width="1.85" height="16.42"/>
            </g>
            <g>
              <polygon class="cls-31" points="280.41 317.74 288.44 317.74 296.48 317.74 300.99 351.14 288.44 351.14 275.9 351.14 280.41 317.74"/>
              <g>
                <path class="cls-7" d="m282.21,317.74h-1.17c-.48,3.72-1.03,7.97-1.66,12.87-.74,5.71-1.6,12.46-2.64,20.53h1.87c.87-8.07,1.6-14.81,2.21-20.52.53-4.9.99-9.15,1.39-12.87Z"/>
                <path class="cls-7" d="m283.72,317.74h-1.17c-.38,3.72-.81,7.97-1.31,12.87-.58,5.71-1.27,12.46-2.09,20.52h1.87c.65-8.07,1.2-14.81,1.66-20.52.4-4.9.74-9.15,1.04-12.87Z"/>
                <path class="cls-7" d="m285.23,317.74h-1.17c-.28,3.72-.6,7.97-.96,12.87-.43,5.71-.93,12.46-1.54,20.52h1.87c.44-8.07.8-14.81,1.11-20.52.26-4.9.49-9.15.69-12.87Z"/>
                <path class="cls-7" d="m286.73,317.74h-1.17c-.18,3.72-.38,7.97-.62,12.87-.27,5.71-.6,12.46-.99,20.52h1.87c.22-8.07.4-14.81.56-20.52.13-4.9.25-9.15.35-12.87Z"/>
                <path class="cls-7" d="m288.24,317.74h-1.17c-.08,3.72-.17,7.97-.27,12.87-.12,5.71-.26,12.46-.43,20.52h1.87c0-8.07,0-14.81,0-20.52,0-4.9,0-9.15,0-12.87Z"/>
                <path class="cls-7" d="m289.75,317.74h-1.17c.02,3.72.05,7.97.07,12.87.03,5.71.07,12.46.12,20.52h1.87c-.22-8.07-.4-14.81-.55-20.52-.13-4.9-.24-9.15-.34-12.87Z"/>
                <path class="cls-7" d="m291.25,317.74h-1.17c.12,3.72.26,7.97.42,12.87.19,5.71.41,12.46.67,20.52h1.87c-.43-8.07-.79-14.81-1.1-20.52-.26-4.89-.49-9.15-.69-12.87Z"/>
                <path class="cls-7" d="m292.76,317.74h-1.17c.22,3.72.47,7.98.77,12.87.34,5.71.74,12.45,1.22,20.52h1.87c-.65-8.07-1.19-14.81-1.65-20.52-.39-4.89-.74-9.15-1.04-12.87Z"/>
                <path class="cls-7" d="m294.26,317.74h-1.17c.32,3.72.69,7.98,1.11,12.87.49,5.71,1.08,12.45,1.77,20.52h1.87c-.87-8.07-1.59-14.81-2.2-20.52-.53-4.89-.98-9.15-1.38-12.87Z"/>
                <path class="cls-7" d="m295.77,317.74h-1.18c.42,3.72.9,7.98,1.46,12.87.65,5.71,1.41,12.45,2.33,20.52h1.88c-1.08-8.07-1.99-14.81-2.76-20.52-.66-4.89-1.23-9.15-1.73-12.87Z"/>
              </g>
            </g>
          </g>
        </g>
        <g>
          <path class="cls-6" d="m209.04,421.96c-.08.37-.15.75-.18,1.14h-1.67c-.77,0-1.39.63-1.39,1.39v3.48c0,.77.63,1.39,1.39,1.39h2.59c.24,0,.47-.06.66-.17.5.69,1.1,1.28,1.77,1.73h6.51c2.02-1.36,3.4-3.95,3.4-6.9h0c0-.71-.08-1.4-.23-2.06h-12.84Zm-.22,1.75c0,.1,0,.2,0,.31h0c0,1.74.48,3.35,1.28,4.66-.1.04-.21.07-.32.07h-2.59c-.43,0-.78-.35-.78-.78v-3.48c0-.43.35-.78.78-.78h1.63Z"/>
          <path class="cls-8" d="m206.92,430.43s0,.05,0,.08h0c0,.61.29,1.1.65,1.1h15.01c.36,0,.65-.5.65-1.1h0s0-.05,0-.08h-16.31Z"/>
        </g>
        <g>
          <path class="cls-6" d="m264.6,421.96c.08.37.15.75.18,1.14h1.67c.77,0,1.39.63,1.39,1.39v3.48c0,.77-.63,1.39-1.39,1.39h-2.59c-.24,0-.47-.06-.66-.17-.5.69-1.1,1.28-1.77,1.73h-6.51c-2.02-1.36-3.4-3.95-3.4-6.9h0c0-.71.08-1.4.23-2.06h12.84Zm.22,1.75c0,.1,0,.2,0,.31h0c0,1.74-.48,3.35-1.28,4.66.1.04.21.07.32.07h2.59c.43,0,.78-.35.78-.78v-3.48c0-.43-.35-.78-.78-.78h-1.63Z"/>
          <path class="cls-8" d="m266.72,430.43s0,.05,0,.08h0c0,.61-.29,1.1-.65,1.1h-15.01c-.36,0-.65-.5-.65-1.1h0s0-.05,0-.08h16.31Z"/>
        </g>
        <rect class="cls-73" x="232.69" y="441.91" width="4.63" height="61.47" rx="1.74" ry="1.74"/>
        <rect class="cls-78" x="541.88" y="435.98" width="11.18" height="71.05"/>
        <g>
          <path class="cls-75" d="m563.19,431.86h-36.92c-.52,0-.94-.42-.94-.94h0c0-.52.42-.94.94-.94h36.92c.52,0,.94.42.94.94h0c0,.52-.42.94-.94.94Z"/>
          <path class="cls-55" d="m563.52,429.98h-37.59c-.33,0-.6.42-.6.94h38.79c0-.52-.27-.94-.6-.94Z"/>
        </g>
        <rect class="cls-72" x="503.61" y="431.61" width="87.72" height="7.76" rx=".92" ry=".92"/>
        <rect class="cls-51" x="539.09" y="505.79" width="16.77" height="1.23" rx=".61" ry=".61"/>
        <path class="cls-2" d="m674.57,390.77l-7.16-.45c-2.19-.14-4.1,1.54-4.24,3.73l-3.97,59.45c-.15,2.19,1.52,4.09,3.71,4.23l7.16.45c2.19.14,4.1-1.54,4.24-3.73l3.97-59.45c.15-2.19-1.52-4.09-3.71-4.23Z"/>
        <path class="cls-30" d="m785.39,377.64h13.63c.26,0,.51.01.76.04v115.63c-.25.03-.5.04-.76.04h-13.63c-3.99,0-7.22-3.14-7.22-7.02v-101.66c0-3.88,3.23-7.02,7.22-7.02Z"/>
        <path class="cls-28" d="m733.61,390.83l7.16-.45c2.19-.14,4.1,1.54,4.24,3.73l3.97,59.45c.15,2.19-1.52,4.09-3.71,4.23l-7.16.45c-2.19.14-4.1-1.54-4.24-3.73l-3.97-59.45c-.15-2.19,1.52-4.09,3.71-4.23Z"/>
        <path class="cls-22" d="m746.22,455.69h53.56v12.79h-53.56c-1.98,0-3.6-1.32-3.6-2.94v-6.9c0-1.62,1.62-2.94,3.6-2.94Z"/>
        <polygon class="cls-36" points="730.39 465.21 726.5 387.36 706.3 387.36 706.3 507.09 729.84 507.09 732.48 507.09 799.78 507.09 799.78 465.21 730.39 465.21"/>
        <path class="cls-41" d="m719.38,382.13h20.08c.62,0,1.13.51,1.13,1.13v3.97c0,.62-.51,1.13-1.13,1.13h-20.08v-6.22Z"/>
        <polygon class="cls-34" points="743.46 465.52 739.58 387.67 719.38 387.67 719.38 507.4 742.91 507.4 745.55 507.4 789.35 507.4 789.35 465.52 743.46 465.52"/>
        <path class="cls-9" d="m662.51,455.62h-63.61c-1.6,0-2.92,1.32-2.92,2.94v6.9c0,1.62,1.31,2.94,2.92,2.94h63.61c1.6,0,2.92-1.32,2.92-2.94v-6.9c0-1.62-1.31-2.94-2.92-2.94Z"/>
        <polygon class="cls-48" points="668.65 387.3 664.76 465.14 595.37 465.14 595.37 507.03 662.67 507.03 665.31 507.03 688.85 507.03 688.85 387.3 668.65 387.3"/>
        <path class="cls-20" d="m688.85,381.76h-20.08c-.62,0-1.13.51-1.13,1.13v3.97c0,.62.51,1.13,1.13,1.13h20.08v-6.22Z"/>
        <path class="cls-12" d="m718.92,488.4v-130.55h.4c.35,0,.64-.29.64-.64v-1.33c0-.35-.29-.64-.64-.64h-31.52c-.35,0-.64.29-.64.64v1.33c0,.35.29.64.64.64h.4v130.55h-94.18v18.62h194.22v-18.62h-69.33Z"/>
        <g>
          <rect class="cls-52" x="322.75" y="324.6" width="54.57" height="17.44" rx="2.12" ry="2.12"/>
          <rect class="cls-59" x="397.89" y="324.6" width="54.57" height="17.44" rx="2.12" ry="2.12"/>
          <rect class="cls-64" x="473.04" y="324.6" width="54.57" height="17.44" rx="2.12" ry="2.12"/>
          <rect class="cls-62" x="548.18" y="324.6" width="54.57" height="17.44" rx="2.12" ry="2.12"/>
          <rect class="cls-63" x="623.33" y="324.6" width="54.57" height="17.44" rx="2.12" ry="2.12"/>
          <rect class="cls-57" x="698.47" y="324.6" width="54.57" height="17.44" rx="2.12" ry="2.12"/>
        </g>
        <g class="cls-53">
          <polygon class="cls-13" points="642.76 466.07 642.68 465.47 642.17 465.47 642.09 464.88 641.57 464.88 641.49 464.29 640.98 464.29 640.9 463.69 640.39 463.69 640.31 463.1 639.79 463.1 639.71 462.51 639.2 462.51 639.12 461.91 638.61 461.91 638.53 461.32 638.01 461.32 637.93 460.73 637.42 460.73 637.34 460.13 636.83 460.13 636.75 459.54 636.23 459.54 636.15 458.95 635.64 458.95 635.56 458.35 635.05 458.35 634.97 457.76 634.45 457.76 634.37 457.17 633.86 457.17 633.78 456.57 633.27 456.57 633.19 455.98 632.67 455.98 632.59 455.39 632.08 455.39 632 454.79 631.49 454.79 631.41 454.2 630.9 454.2 630.81 453.61 630.3 453.61 630.22 453.01 629.71 453.01 629.63 452.42 629.12 452.42 629.04 451.83 628.52 451.83 628.44 451.23 627.93 451.23 627.85 450.64 627.34 450.64 627.26 450.05 626.74 450.05 626.66 449.45 626.15 449.45 626.07 448.86 625.56 448.86 625.48 448.27 624.96 448.27 624.88 447.67 624.37 447.67 624.29 447.08 623.78 447.08 623.7 446.49 623.18 446.49 623.1 445.89 622.59 445.89 622.51 445.3 622 445.3 621.92 444.71 621.4 444.71 621.32 444.11 620.81 444.11 620.73 443.52 620.22 443.52 620.14 442.93 619.62 442.93 619.54 442.33 619.03 442.33 618.95 441.74 618.44 441.74 618.36 441.15 617.84 441.15 617.76 440.55 617.25 440.55 617.17 439.96 616.66 439.96 616.58 439.37 616.06 439.37 615.98 438.77 615.47 438.77 615.39 438.18 614.88 438.18 614.8 437.59 614.28 437.59 614.2 436.99 613.69 436.99 613.61 436.4 613.1 436.4 613.02 435.81 612.5 435.81 612.42 435.21 611.91 435.21 611.83 434.62 611.32 434.62 611.24 434.03 610.72 434.03 610.64 433.44 610.13 433.44 610.05 432.84 609.54 432.84 609.46 432.25 608.94 432.25 608.86 431.66 608.35 431.66 608.27 431.06 607.76 431.06 607.68 430.47 607.16 430.47 607.08 429.88 606.57 429.88 606.49 429.28 605.98 429.28 605.9 428.69 605.38 428.69 605.3 428.1 604.79 428.1 604.71 427.5 604.2 427.5 604.12 426.91 603.6 426.91 603.52 426.32 603.01 426.32 602.93 425.72 602.42 425.72 602.34 425.13 601.82 425.13 601.74 424.54 601.23 424.54 601.15 423.94 600.64 423.94 600.56 423.35 600.04 423.35 599.96 422.76 599.45 422.76 599.37 422.16 598.86 422.16 598.78 421.57 598.26 421.57 598.18 420.98 597.67 420.98 597.59 420.38 597.08 420.38 597 419.79 596.48 419.79 596.4 419.2 595.89 419.2 595.81 418.6 595.3 418.6 595.22 418.01 594.7 418.01 594.62 417.42 594.11 417.42 594.03 416.82 593.52 416.82 593.44 416.23 592.92 416.23 592.84 415.64 592.33 415.64 592.25 415.04 591.74 415.04 591.66 414.45 591.14 414.45 591.06 413.86 590.55 413.86 590.47 413.26 589.96 413.26 589.88 412.67 589.36 412.67 589.28 412.08 588.77 412.08 588.69 411.48 588.18 411.48 588.1 410.89 587.58 410.89 587.5 410.3 586.99 410.3 586.91 409.7 586.4 409.7 586.32 409.11 585.81 409.11 585.72 408.52 585.21 408.52 585.13 407.92 584.62 407.92 584.54 407.33 584.03 407.33 583.95 406.74 583.43 406.74 583.35 406.14 582.84 406.14 582.76 405.55 582.25 405.55 582.17 404.96 581.65 404.96 581.57 404.36 581.06 404.36 580.98 403.77 580.47 403.77 580.39 403.18 579.87 403.18 579.79 402.58 579.28 402.58 579.2 401.99 578.69 401.99 578.61 401.4 578.09 401.4 578.01 400.8 577.5 400.8 577.42 400.21 576.91 400.21 576.83 399.62 576.31 399.62 576.23 399.02 575.72 399.02 575.64 398.43 575.13 398.43 575.05 397.84 574.53 397.84 574.45 397.24 573.94 397.24 573.86 396.65 573.35 396.65 573.27 396.06 572.75 396.06 572.67 395.46 572.16 395.46 572.08 394.87 571.57 394.87 571.49 394.28 570.97 394.28 570.89 393.68 570.38 393.68 570.3 393.09 569.79 393.09 569.71 392.5 569.19 392.5 569.11 391.9 568.6 391.9 568.52 391.31 568.01 391.31 567.93 390.72 567.41 390.72 567.33 390.12 566.82 390.12 566.74 389.53 566.23 389.53 566.15 388.94 565.63 388.94 565.55 388.35 565.04 388.35 564.96 387.75 564.45 387.75 564.37 387.16 563.85 387.16 563.77 386.57 563.26 386.57 563.18 385.97 562.67 385.97 562.59 385.38 562.07 385.38 561.99 384.79 561.48 384.79 561.4 384.19 560.89 384.19 560.81 383.6 560.29 383.6 560.21 383.01 559.7 383.01 559.62 382.41 559.11 382.41 559.03 381.82 558.51 381.82 558.43 381.23 557.92 381.23 557.84 380.63 557.33 380.63 557.25 380.04 556.73 380.04 556.65 379.45 556.14 379.45 556.06 378.85 555.55 378.85 555.47 378.26 554.95 378.26 554.87 377.67 554.36 377.67 554.28 377.07 553.77 377.07 553.69 376.48 553.17 376.48 553.09 375.89 552.58 375.89 552.5 375.29 551.99 375.29 551.91 374.7 551.39 374.7 551.31 374.11 550.8 374.11 550.72 373.51 550.21 373.51 550.13 372.92 549.61 372.92 549.53 372.33 549.02 372.33 548.94 371.73 548.43 371.73 548.35 371.14 547.83 371.14 547.75 370.55 547.24 370.55 547.16 369.95 546.65 369.95 546.57 369.36 546.05 369.36 545.97 368.77 545.46 368.77 545.38 368.17 544.87 368.17 544.79 367.58 544.27 367.58 544.19 366.99 543.68 366.99 543.6 366.39 543.09 366.39 543.01 365.8 542.49 365.8 542.41 365.21 541.9 365.21 541.82 364.61 541.31 364.61 541.23 364.02 540.71 364.02 540.63 363.43 540.12 363.43 540.04 362.83 539.53 362.83 539.45 362.24 538.94 362.24 538.85 361.65 538.34 361.65 538.26 361.05 537.75 361.05 537.67 360.46 537.16 360.46 537.08 359.87 536.56 359.87 536.48 359.27 535.97 359.27 535.89 358.68 535.38 358.68 535.3 358.09 534.78 358.09 534.7 357.49 534.19 357.49 534.11 356.9 533.6 356.9 533.52 356.31 533 356.31 532.92 355.71 532.41 355.71 532.33 355.12 531.82 355.12 531.74 354.53 531.22 354.53 531.14 353.93 530.63 353.93 530.55 353.34 530.04 353.34 529.96 352.75 529.44 352.75 529.36 352.15 528.85 352.15 528.77 351.56 528.26 351.56 528.18 350.97 527.66 350.97 527.58 350.37 527.07 350.37 526.99 349.78 526.48 349.78 526.4 349.19 525.88 349.19 525.8 348.59 525.29 348.59 525.21 348 524.7 348 524.62 347.41 524.1 347.41 524.02 346.81 523.51 346.81 523.43 346.22 522.92 346.22 522.84 345.63 522.32 345.63 522.24 345.03 521.73 345.03 521.65 344.44 521.14 344.44 521.06 343.85 520.54 343.85 520.46 343.25 519.95 343.25 519.87 342.66 519.36 342.66 519.28 342.07 518.76 342.07 518.68 341.48 518.17 341.48 518.09 340.88 517.58 340.88 517.5 340.29 516.98 340.29 516.9 339.7 516.39 339.7 516.31 339.1 515.8 339.1 515.72 338.51 515.2 338.51 515.12 337.92 514.61 337.92 514.53 337.32 514.02 337.32 513.94 336.73 513.42 336.73 513.34 336.14 512.83 336.14 512.75 335.54 512.24 335.54 512.16 334.95 511.64 334.95 511.56 334.36 511.05 334.36 510.97 333.76 510.46 333.76 510.38 333.17 509.86 333.17 509.78 332.58 509.27 332.58 509.19 331.98 508.68 331.98 508.6 331.39 508.08 331.39 508 330.8 507.49 330.8 507.41 330.2 506.9 330.2 506.82 329.61 506.3 329.61 506.22 329.02 505.71 329.02 505.63 328.42 505.12 328.42 505.04 327.83 504.52 327.83 504.44 327.24 503.93 327.24 503.85 326.64 503.34 326.64 503.26 326.05 502.74 326.05 502.66 325.46 502.15 325.46 502.07 324.86 501.56 324.86 501.48 324.27 500.96 324.27 500.88 323.68 500.37 323.68 500.29 323.08 499.78 323.08 499.7 322.49 499.18 322.49 499.1 321.9 498.59 321.9 498.51 321.3 498 321.3 497.92 320.71 497.4 320.71 497.32 320.12 496.81 320.12 496.73 319.52 496.22 319.52 496.14 318.93 495.62 318.93 495.54 318.34 495.03 318.34 494.95 317.74 494.25 317.74 493.07 317.74 492.74 317.74 491.56 317.74 491.23 317.74 490.06 317.74 489.73 317.74 488.55 317.74 488.22 317.74 487.05 317.74 486.92 317.74 486.71 317.74 485.54 317.74 485.21 317.74 484.03 317.74 483.7 317.74 482.53 317.74 482.2 317.74 481.02 317.74 480.69 317.74 479.52 317.74 478.89 317.74 474.37 351.14 475.05 351.14 474.97 351.73 475.64 351.73 475.56 352.32 476.23 352.32 476.15 352.92 476.83 352.92 476.75 353.51 477.42 353.51 477.34 354.1 478.01 354.1 477.93 354.7 478.61 354.7 478.53 355.29 479.2 355.29 479.12 355.88 479.79 355.88 479.71 356.48 480.39 356.48 480.31 357.07 480.98 357.07 480.92 357.52 480.56 357.52 480.56 368.71 481.15 368.71 481.15 369.31 481.74 369.31 481.74 369.9 482.34 369.9 482.34 370.49 482.93 370.49 482.93 371.09 483.52 371.09 483.52 371.68 484.12 371.68 484.12 372.27 484.71 372.27 484.71 372.87 485.3 372.87 485.3 373.46 485.9 373.46 485.9 374.05 486.49 374.05 486.49 374.65 487.08 374.65 487.08 375.24 487.68 375.24 487.68 375.83 488.27 375.83 488.27 376.43 488.86 376.43 488.86 377.02 489.46 377.02 489.46 377.61 490.05 377.61 490.05 378.21 490.64 378.21 490.64 378.8 491.23 378.8 491.23 379.39 491.83 379.39 491.83 379.99 492.42 379.99 492.42 380.58 493.01 380.58 493.01 381.17 493.61 381.17 493.61 381.77 494.2 381.77 494.2 382.36 494.79 382.36 494.79 382.95 495.39 382.95 495.39 383.55 495.98 383.55 495.98 384.14 496.57 384.14 496.57 384.73 497.17 384.73 497.17 385.33 497.76 385.33 497.76 385.92 498.35 385.92 498.35 386.51 498.95 386.51 498.95 387.11 499.54 387.11 499.54 387.7 500.13 387.7 500.13 388.29 500.73 388.29 500.73 388.89 501.32 388.89 501.32 389.48 501.91 389.48 501.91 390.07 502.51 390.07 502.51 390.67 503.1 390.67 503.1 391.26 503.69 391.26 503.69 391.85 504.29 391.85 504.29 392.45 504.88 392.45 504.88 393.04 505.47 393.04 505.47 393.63 506.07 393.63 506.07 394.23 506.66 394.23 506.66 394.82 507.25 394.82 507.25 395.41 507.85 395.41 507.85 396.01 508.44 396.01 508.44 396.6 509.03 396.6 509.03 397.19 509.63 397.19 509.63 397.78 510.22 397.78 510.22 398.38 510.81 398.38 510.81 398.97 511.41 398.97 511.41 399.56 512 399.56 512 400.16 512.59 400.16 512.59 400.75 513.19 400.75 513.19 401.34 513.78 401.34 513.78 401.94 514.37 401.94 514.37 402.53 514.97 402.53 514.97 403.12 515.56 403.12 515.56 403.72 516.15 403.72 516.15 404.31 516.75 404.31 516.75 404.9 517.34 404.9 517.34 405.5 517.93 405.5 517.93 406.09 518.53 406.09 518.53 406.68 519.12 406.68 519.12 407.28 519.71 407.28 519.71 407.87 520.31 407.87 520.31 408.46 520.9 408.46 520.9 409.06 521.49 409.06 521.49 409.65 522.09 409.65 522.09 410.24 522.68 410.24 522.68 410.84 523.27 410.84 523.27 411.43 523.87 411.43 523.87 412.02 524.46 412.02 524.46 412.62 525.05 412.62 525.05 413.21 525.65 413.21 525.65 413.8 526.24 413.8 526.24 414.4 526.83 414.4 526.83 414.99 527.43 414.99 527.43 415.58 528.02 415.58 528.02 416.18 528.61 416.18 528.61 416.77 529.21 416.77 529.21 417.36 529.8 417.36 529.8 417.96 530.39 417.96 530.39 418.55 530.99 418.55 530.99 419.14 531.58 419.14 531.58 419.74 532.17 419.74 532.17 420.33 532.77 420.33 532.77 420.92 533.36 420.92 533.36 421.52 533.95 421.52 533.95 422.11 534.55 422.11 534.55 422.7 535.14 422.7 535.14 423.3 535.73 423.3 535.73 423.89 536.32 423.89 536.32 424.48 536.92 424.48 536.92 425.08 537.51 425.08 537.51 425.67 538.1 425.67 538.1 426.26 538.7 426.26 538.7 426.86 539.29 426.86 539.29 427.45 539.88 427.45 539.88 428.04 540.48 428.04 540.48 428.64 541.07 428.64 541.07 429.23 541.66 429.23 541.66 429.82 542.26 429.82 542.26 430.42 542.85 430.42 542.85 431.01 543.44 431.01 543.44 431.6 544.04 431.6 544.04 432.2 544.63 432.2 544.63 432.79 545.22 432.79 545.22 433.38 545.82 433.38 545.82 433.98 546.41 433.98 546.41 434.57 547 434.57 547 435.16 547.6 435.16 547.6 435.76 548.19 435.76 548.19 436.35 548.78 436.35 548.78 436.94 549.38 436.94 549.38 437.54 549.97 437.54 549.97 438.13 550.56 438.13 550.56 438.72 551.16 438.72 551.16 439.32 551.75 439.32 551.75 439.91 552.34 439.91 552.34 440.5 552.94 440.5 552.94 441.1 553.53 441.1 553.53 441.69 554.12 441.69 554.12 442.28 554.72 442.28 554.72 442.88 555.31 442.88 555.31 443.47 555.9 443.47 555.9 444.06 556.5 444.06 556.5 444.65 557.09 444.65 557.09 445.25 557.68 445.25 557.68 445.84 558.28 445.84 558.28 446.43 558.87 446.43 558.87 447.03 559.46 447.03 559.46 447.62 560.06 447.62 560.06 448.21 560.65 448.21 560.65 448.81 561.24 448.81 561.24 449.4 561.84 449.4 561.84 449.99 562.43 449.99 562.43 450.59 563.02 450.59 563.02 451.18 563.62 451.18 563.62 451.77 564.21 451.77 564.21 452.37 564.8 452.37 564.8 452.96 565.4 452.96 565.4 453.55 565.99 453.55 565.99 454.15 566.58 454.15 566.58 454.74 567.18 454.74 567.18 455.33 567.77 455.33 567.77 455.93 568.36 455.93 568.36 456.52 568.96 456.52 568.96 457.11 569.55 457.11 569.55 457.71 570.14 457.71 570.14 458.3 570.74 458.3 570.74 458.89 571.33 458.89 571.33 459.49 571.92 459.49 571.92 460.08 572.52 460.08 572.52 460.67 573.11 460.67 573.11 461.27 573.7 461.27 573.7 461.86 574.3 461.86 574.3 462.45 574.89 462.45 574.89 463.05 575.48 463.05 575.48 463.64 576.08 463.64 576.08 464.23 576.67 464.23 576.67 464.83 577.26 464.83 577.26 465.42 577.86 465.42 577.86 466.01 578.45 466.01 578.45 466.61 579.04 466.61 579.04 467.2 579.64 467.2 579.64 467.79 580.23 467.79 580.23 468.39 580.82 468.39 580.82 468.98 581.41 468.98 581.41 469.57 582.01 469.57 582.01 470.17 582.6 470.17 582.6 470.76 583.19 470.76 583.19 471.35 583.79 471.35 583.79 471.95 584.38 471.95 584.38 472.54 584.97 472.54 584.97 473.13 585.57 473.13 585.57 473.73 586.16 473.73 586.16 474.32 586.75 474.32 586.75 474.91 587.35 474.91 587.35 475.51 587.94 475.51 587.94 476.1 588.53 476.1 588.53 476.69 589.13 476.69 589.13 477.29 589.72 477.29 589.72 477.88 590.31 477.88 590.31 478.47 590.91 478.47 590.91 479.07 591.5 479.07 591.5 479.66 592.09 479.66 592.09 480.25 592.69 480.25 592.69 480.85 593.28 480.85 593.28 481.44 593.87 481.44 593.87 482.03 594.47 482.03 594.47 482.63 595.06 482.63 595.06 483.22 595.65 483.22 595.65 483.81 596.25 483.81 596.25 484.41 596.84 484.41 596.84 485 597.43 485 597.43 485.59 598.03 485.59 598.03 486.19 598.62 486.19 598.62 486.78 599.21 486.78 599.21 487.37 599.81 487.37 599.81 487.97 600.4 487.97 600.4 488.56 600.99 488.56 600.99 489.15 601.59 489.15 601.59 489.74 602.18 489.74 602.18 490.34 602.77 490.34 602.77 490.93 603.37 490.93 603.37 491.52 603.96 491.52 603.96 492.12 604.55 492.12 604.55 492.71 605.15 492.71 605.15 493.3 605.74 493.3 605.74 493.9 606.33 493.9 606.33 494.49 606.93 494.49 606.93 495.08 607.52 495.08 607.52 495.68 608.11 495.68 608.11 496.27 608.71 496.27 608.71 496.86 609.3 496.86 609.3 497.46 609.89 497.46 609.89 498.05 610.49 498.05 610.49 498.64 611.08 498.64 611.08 499.24 611.67 499.24 611.67 499.83 612.27 499.83 612.27 500.42 612.86 500.42 612.86 501.02 613.45 501.02 613.45 501.61 614.05 501.61 614.05 502.2 614.64 502.2 614.64 502.8 615.23 502.8 615.23 503.39 615.83 503.39 615.83 503.98 616.42 503.98 616.42 504.58 617.01 504.58 617.01 505.17 617.61 505.17 617.61 505.76 618.2 505.76 618.2 506.36 618.79 506.36 618.79 506.95 619.39 506.95 619.39 507.54 619.98 507.54 619.98 508.14 620.57 508.14 620.57 508.73 621.17 508.73 621.17 509.32 621.76 509.32 621.76 509.92 622.35 509.92 622.35 510.51 622.95 510.51 622.95 511.1 623.54 511.1 623.54 511.7 624.13 511.7 624.13 512.29 624.73 512.29 624.73 512.88 625.32 512.88 625.32 513.48 625.91 513.48 625.91 514.07 626.51 514.07 626.51 514.66 627.1 514.66 627.1 515.26 627.69 515.26 627.69 515.85 628.28 515.85 628.28 516.44 628.88 516.44 628.88 517.04 641.6 517.04 641.6 505.84 641.01 505.84 641.01 505.25 640.42 505.25 640.42 504.66 639.82 504.66 639.82 504.06 639.23 504.06 639.23 503.47 638.64 503.47 638.64 502.88 638.04 502.88 638.04 502.28 637.45 502.28 637.45 501.69 636.86 501.69 636.86 501.1 636.26 501.1 636.26 500.51 636.16 500.51 636.16 499.46 637.43 499.46 637.96 499.46 639.84 499.46 640.37 499.46 642.24 499.46 642.77 499.46 644.65 499.46 645.18 499.46 647.05 499.46 647.79 499.46 643.27 466.07 642.76 466.07"/>
          <polygon class="cls-26" points="745.38 466.07 744.87 466.07 744.79 465.47 744.27 465.47 744.19 464.88 743.68 464.88 743.6 464.29 743.09 464.29 743.01 463.69 742.49 463.69 742.41 463.1 741.9 463.1 741.82 462.51 741.31 462.51 741.23 461.91 740.71 461.91 740.63 461.32 740.12 461.32 740.04 460.73 739.53 460.73 739.45 460.13 738.93 460.13 738.85 459.54 738.34 459.54 738.26 458.95 737.75 458.95 737.67 458.35 737.15 458.35 737.07 457.76 736.56 457.76 736.48 457.17 735.97 457.17 735.89 456.57 735.37 456.57 735.29 455.98 734.78 455.98 734.7 455.39 734.19 455.39 734.11 454.79 733.59 454.79 733.51 454.2 733 454.2 732.92 453.61 732.41 453.61 732.33 453.01 731.81 453.01 731.73 452.42 731.22 452.42 731.14 451.83 730.63 451.83 730.55 451.23 730.03 451.23 729.95 450.64 729.44 450.64 729.36 450.05 728.85 450.05 728.77 449.45 728.25 449.45 728.17 448.86 727.66 448.86 727.58 448.27 727.07 448.27 726.99 447.67 726.47 447.67 726.39 447.08 725.88 447.08 725.8 446.49 725.29 446.49 725.21 445.89 724.69 445.89 724.61 445.3 724.1 445.3 724.02 444.71 723.51 444.71 723.43 444.11 722.91 444.11 722.83 443.52 722.32 443.52 722.24 442.93 721.73 442.93 721.65 442.33 721.13 442.33 721.05 441.74 720.54 441.74 720.46 441.15 719.95 441.15 719.87 440.55 719.35 440.55 719.27 439.96 718.76 439.96 718.68 439.37 718.17 439.37 718.09 438.77 717.57 438.77 717.49 438.18 716.98 438.18 716.9 437.59 716.39 437.59 716.31 436.99 715.79 436.99 715.71 436.4 715.2 436.4 715.12 435.81 714.61 435.81 714.53 435.21 714.01 435.21 713.93 434.62 713.42 434.62 713.34 434.03 712.83 434.03 712.75 433.44 712.23 433.44 712.15 432.84 711.64 432.84 711.56 432.25 711.05 432.25 710.97 431.66 710.45 431.66 710.37 431.06 709.86 431.06 709.78 430.47 709.27 430.47 709.19 429.88 708.67 429.88 708.59 429.28 708.08 429.28 708 428.69 707.49 428.69 707.41 428.1 706.9 428.1 706.81 427.5 706.3 427.5 706.22 426.91 705.71 426.91 705.63 426.32 705.12 426.32 705.04 425.72 704.52 425.72 704.44 425.13 703.93 425.13 703.85 424.54 703.34 424.54 703.26 423.94 702.74 423.94 702.66 423.35 702.15 423.35 702.07 422.76 701.56 422.76 701.48 422.16 700.96 422.16 700.88 421.57 700.37 421.57 700.29 420.98 699.78 420.98 699.7 420.38 699.18 420.38 699.1 419.79 698.59 419.79 698.51 419.2 698 419.2 697.92 418.6 697.4 418.6 697.32 418.01 696.81 418.01 696.73 417.42 696.22 417.42 696.14 416.82 695.62 416.82 695.54 416.23 695.03 416.23 694.95 415.64 694.44 415.64 694.36 415.04 693.84 415.04 693.76 414.45 693.25 414.45 693.17 413.86 692.66 413.86 692.58 413.26 692.06 413.26 691.98 412.67 691.47 412.67 691.39 412.08 690.88 412.08 690.8 411.48 690.28 411.48 690.2 410.89 689.69 410.89 689.61 410.3 689.1 410.3 689.02 409.7 688.5 409.7 688.42 409.11 687.91 409.11 687.83 408.52 687.32 408.52 687.24 407.92 686.72 407.92 686.64 407.33 686.13 407.33 686.05 406.74 685.54 406.74 685.46 406.14 684.94 406.14 684.86 405.55 684.35 405.55 684.27 404.96 683.76 404.96 683.68 404.36 683.16 404.36 683.08 403.77 682.57 403.77 682.49 403.18 681.98 403.18 681.9 402.58 681.38 402.58 681.3 401.99 680.79 401.99 680.71 401.4 680.2 401.4 680.12 400.8 679.6 400.8 679.52 400.21 679.01 400.21 678.93 399.62 678.42 399.62 678.34 399.02 677.82 399.02 677.74 398.43 677.23 398.43 677.15 397.84 676.64 397.84 676.56 397.24 676.04 397.24 675.96 396.65 675.45 396.65 675.37 396.06 674.86 396.06 674.78 395.46 674.26 395.46 674.18 394.87 673.67 394.87 673.59 394.28 673.08 394.28 673 393.68 672.48 393.68 672.4 393.09 671.89 393.09 671.81 392.5 671.3 392.5 671.22 391.9 670.7 391.9 670.62 391.31 670.11 391.31 670.03 390.72 669.52 390.72 669.44 390.12 668.92 390.12 668.84 389.53 668.33 389.53 668.25 388.94 667.74 388.94 667.66 388.35 667.14 388.35 667.06 387.75 666.55 387.75 666.47 387.16 665.96 387.16 665.88 386.57 665.36 386.57 665.28 385.97 664.77 385.97 664.69 385.38 664.18 385.38 664.1 384.79 663.58 384.79 663.5 384.19 662.99 384.19 662.91 383.6 662.4 383.6 662.32 383.01 661.81 383.01 661.72 382.41 661.21 382.41 661.13 381.82 660.62 381.82 660.54 381.23 660.03 381.23 659.95 380.63 659.43 380.63 659.35 380.04 658.84 380.04 658.76 379.45 658.25 379.45 658.17 378.85 657.65 378.85 657.57 378.26 657.06 378.26 656.98 377.67 656.47 377.67 656.39 377.07 655.87 377.07 655.79 376.48 655.28 376.48 655.2 375.89 654.69 375.89 654.61 375.29 654.09 375.29 654.01 374.7 653.5 374.7 653.42 374.11 652.91 374.11 652.83 373.51 652.31 373.51 652.23 372.92 651.72 372.92 651.64 372.33 651.13 372.33 651.05 371.73 650.53 371.73 650.45 371.14 649.94 371.14 649.86 370.55 649.35 370.55 649.27 369.95 648.75 369.95 648.67 369.36 648.16 369.36 648.08 368.77 647.57 368.77 647.49 368.17 646.97 368.17 646.89 367.58 646.38 367.58 646.3 366.99 645.79 366.99 645.71 366.39 645.19 366.39 645.11 365.8 644.6 365.8 644.52 365.21 644.01 365.21 643.93 364.61 643.41 364.61 643.33 364.02 642.82 364.02 642.74 363.43 642.23 363.43 642.15 362.83 641.63 362.83 641.55 362.24 641.04 362.24 640.96 361.65 640.45 361.65 640.37 361.05 639.85 361.05 639.77 360.46 639.26 360.46 639.18 359.87 638.67 359.87 638.59 359.27 638.07 359.27 637.99 358.68 637.48 358.68 637.4 358.09 636.89 358.09 636.81 357.49 636.29 357.49 636.21 356.9 635.7 356.9 635.62 356.31 635.11 356.31 635.03 355.71 634.51 355.71 634.43 355.12 633.92 355.12 633.84 354.53 633.33 354.53 633.25 353.93 632.73 353.93 632.65 353.34 632.14 353.34 632.06 352.75 631.55 352.75 631.47 352.15 630.95 352.15 630.87 351.56 630.36 351.56 630.28 350.97 629.77 350.97 629.69 350.37 629.17 350.37 629.09 349.78 628.58 349.78 628.5 349.19 627.99 349.19 627.91 348.59 627.39 348.59 627.31 348 626.8 348 626.72 347.41 626.21 347.41 626.13 346.81 625.61 346.81 625.53 346.22 625.02 346.22 624.94 345.63 624.43 345.63 624.35 345.03 623.83 345.03 623.75 344.44 623.24 344.44 623.16 343.85 622.65 343.85 622.57 343.25 622.05 343.25 621.97 342.66 621.46 342.66 621.38 342.07 620.87 342.07 620.79 341.48 620.27 341.48 620.19 340.88 619.68 340.88 619.6 340.29 619.09 340.29 619.01 339.7 618.49 339.7 618.41 339.1 617.9 339.1 617.82 338.51 617.31 338.51 617.23 337.92 616.71 337.92 616.63 337.32 616.12 337.32 616.04 336.73 615.53 336.73 615.45 336.14 614.94 336.14 614.85 335.54 614.34 335.54 614.26 334.95 613.75 334.95 613.67 334.36 613.16 334.36 613.08 333.76 612.56 333.76 612.48 333.17 611.97 333.17 611.89 332.58 611.38 332.58 611.3 331.98 610.78 331.98 610.7 331.39 610.19 331.39 610.11 330.8 609.6 330.8 609.52 330.2 609 330.2 608.92 329.61 608.41 329.61 608.33 329.02 607.82 329.02 607.74 328.42 607.22 328.42 607.14 327.83 606.63 327.83 606.55 327.24 606.04 327.24 605.96 326.64 605.44 326.64 605.36 326.05 604.85 326.05 604.77 325.46 604.26 325.46 604.18 324.86 603.66 324.86 603.58 324.27 603.07 324.27 602.99 323.68 602.48 323.68 602.4 323.08 601.88 323.08 601.8 322.49 601.29 322.49 601.21 321.9 600.7 321.9 600.62 321.3 600.1 321.3 600.02 320.71 599.51 320.71 599.43 320.12 598.92 320.12 598.84 319.52 598.32 319.52 598.24 318.93 597.73 318.93 597.65 318.34 597.14 318.34 597.06 317.74 596.35 317.74 595.18 317.74 594.84 317.74 593.67 317.74 593.34 317.74 592.16 317.74 591.83 317.74 590.66 317.74 590.32 317.74 589.15 317.74 589.02 317.74 588.82 317.74 587.65 317.74 587.31 317.74 586.14 317.74 585.81 317.74 584.63 317.74 584.3 317.74 583.13 317.74 582.79 317.74 581.62 317.74 580.99 317.74 576.48 351.14 577.15 351.14 577.07 351.73 577.75 351.73 577.66 352.32 578.34 352.32 578.26 352.92 578.93 352.92 578.85 353.51 579.52 353.51 579.44 354.1 580.12 354.1 580.04 354.7 580.71 354.7 580.63 355.29 581.3 355.29 581.22 355.88 581.9 355.88 581.82 356.48 582.49 356.48 582.41 357.07 583.08 357.07 583.02 357.52 582.66 357.52 582.66 368.71 583.25 368.71 583.25 369.31 583.85 369.31 583.85 369.9 584.44 369.9 584.44 370.49 585.03 370.49 585.03 371.09 585.63 371.09 585.63 371.68 586.22 371.68 586.22 372.27 586.81 372.27 586.81 372.87 587.41 372.87 587.41 373.46 588 373.46 588 374.05 588.59 374.05 588.59 374.65 589.19 374.65 589.19 375.24 589.78 375.24 589.78 375.83 590.37 375.83 590.37 376.43 590.97 376.43 590.97 377.02 591.56 377.02 591.56 377.61 592.15 377.61 592.15 378.21 592.75 378.21 592.75 378.8 593.34 378.8 593.34 379.39 593.93 379.39 593.93 379.99 594.53 379.99 594.53 380.58 595.12 380.58 595.12 381.17 595.71 381.17 595.71 381.77 596.31 381.77 596.31 382.36 596.9 382.36 596.9 382.95 597.49 382.95 597.49 383.55 598.09 383.55 598.09 384.14 598.68 384.14 598.68 384.73 599.27 384.73 599.27 385.33 599.87 385.33 599.87 385.92 600.46 385.92 600.46 386.51 601.05 386.51 601.05 387.11 601.65 387.11 601.65 387.7 602.24 387.7 602.24 388.29 602.83 388.29 602.83 388.89 603.43 388.89 603.43 389.48 604.02 389.48 604.02 390.07 604.61 390.07 604.61 390.67 605.21 390.67 605.21 391.26 605.8 391.26 605.8 391.85 606.39 391.85 606.39 392.45 606.99 392.45 606.99 393.04 607.58 393.04 607.58 393.63 608.17 393.63 608.17 394.23 608.77 394.23 608.77 394.82 609.36 394.82 609.36 395.41 609.95 395.41 609.95 396.01 610.55 396.01 610.55 396.6 611.14 396.6 611.14 397.19 611.73 397.19 611.73 397.78 612.33 397.78 612.33 398.38 612.92 398.38 612.92 398.97 613.51 398.97 613.51 399.56 614.1 399.56 614.1 400.16 614.7 400.16 614.7 400.75 615.29 400.75 615.29 401.34 615.88 401.34 615.88 401.94 616.48 401.94 616.48 402.53 617.07 402.53 617.07 403.12 617.66 403.12 617.66 403.72 618.26 403.72 618.26 404.31 618.85 404.31 618.85 404.9 619.44 404.9 619.44 405.5 620.04 405.5 620.04 406.09 620.63 406.09 620.63 406.68 621.22 406.68 621.22 407.28 621.82 407.28 621.82 407.87 622.41 407.87 622.41 408.46 623 408.46 623 409.06 623.6 409.06 623.6 409.65 624.19 409.65 624.19 410.24 624.78 410.24 624.78 410.84 625.38 410.84 625.38 411.43 625.97 411.43 625.97 412.02 626.56 412.02 626.56 412.62 627.16 412.62 627.16 413.21 627.75 413.21 627.75 413.8 628.34 413.8 628.34 414.4 628.94 414.4 628.94 414.99 629.53 414.99 629.53 415.58 630.12 415.58 630.12 416.18 630.72 416.18 630.72 416.77 631.31 416.77 631.31 417.36 631.9 417.36 631.9 417.96 632.5 417.96 632.5 418.55 633.09 418.55 633.09 419.14 633.68 419.14 633.68 419.74 634.28 419.74 634.28 420.33 634.87 420.33 634.87 420.92 635.46 420.92 635.46 421.52 636.06 421.52 636.06 422.11 636.65 422.11 636.65 422.7 637.24 422.7 637.24 423.3 637.84 423.3 637.84 423.89 638.43 423.89 638.43 424.48 639.02 424.48 639.02 425.08 639.62 425.08 639.62 425.67 640.21 425.67 640.21 426.26 640.8 426.26 640.8 426.86 641.4 426.86 641.4 427.45 641.99 427.45 641.99 428.04 642.58 428.04 642.58 428.64 643.18 428.64 643.18 429.23 643.77 429.23 643.77 429.82 644.36 429.82 644.36 430.42 644.96 430.42 644.96 431.01 645.55 431.01 645.55 431.6 646.14 431.6 646.14 432.2 646.74 432.2 646.74 432.79 647.33 432.79 647.33 433.38 647.92 433.38 647.92 433.98 648.52 433.98 648.52 434.57 649.11 434.57 649.11 435.16 649.7 435.16 649.7 435.76 650.3 435.76 650.3 436.35 650.89 436.35 650.89 436.94 651.48 436.94 651.48 437.54 652.08 437.54 652.08 438.13 652.67 438.13 652.67 438.72 653.26 438.72 653.26 439.32 653.86 439.32 653.86 439.91 654.45 439.91 654.45 440.5 655.04 440.5 655.04 441.1 655.64 441.1 655.64 441.69 656.23 441.69 656.23 442.28 656.82 442.28 656.82 442.88 657.42 442.88 657.42 443.47 658.01 443.47 658.01 444.06 658.6 444.06 658.6 444.65 659.2 444.65 659.2 445.25 659.79 445.25 659.79 445.84 660.38 445.84 660.38 446.43 660.97 446.43 660.97 447.03 661.57 447.03 661.57 447.62 662.16 447.62 662.16 448.21 662.75 448.21 662.75 448.81 663.35 448.81 663.35 449.4 663.94 449.4 663.94 449.99 664.53 449.99 664.53 450.59 665.13 450.59 665.13 451.18 665.72 451.18 665.72 451.77 666.31 451.77 666.31 452.37 666.91 452.37 666.91 452.96 667.5 452.96 667.5 453.55 668.09 453.55 668.09 454.15 668.69 454.15 668.69 454.74 669.28 454.74 669.28 455.33 669.87 455.33 669.87 455.93 670.47 455.93 670.47 456.52 671.06 456.52 671.06 457.11 671.65 457.11 671.65 457.71 672.25 457.71 672.25 458.3 672.84 458.3 672.84 458.89 673.43 458.89 673.43 459.49 674.03 459.49 674.03 460.08 674.62 460.08 674.62 460.67 675.21 460.67 675.21 461.27 675.81 461.27 675.81 461.86 676.4 461.86 676.4 462.45 676.99 462.45 676.99 463.05 677.59 463.05 677.59 463.64 678.18 463.64 678.18 464.23 678.77 464.23 678.77 464.83 679.37 464.83 679.37 465.42 679.96 465.42 679.96 466.01 680.55 466.01 680.55 466.61 681.15 466.61 681.15 467.2 681.74 467.2 681.74 467.79 682.33 467.79 682.33 468.39 682.93 468.39 682.93 468.98 683.52 468.98 683.52 469.57 684.11 469.57 684.11 470.17 684.71 470.17 684.71 470.76 685.3 470.76 685.3 471.35 685.89 471.35 685.89 471.95 686.49 471.95 686.49 472.54 687.08 472.54 687.08 473.13 687.67 473.13 687.67 473.73 688.27 473.73 688.27 474.32 688.86 474.32 688.86 474.91 689.45 474.91 689.45 475.51 690.05 475.51 690.05 476.1 690.64 476.1 690.64 476.69 691.23 476.69 691.23 477.29 691.83 477.29 691.83 477.88 692.42 477.88 692.42 478.47 693.01 478.47 693.01 479.07 693.61 479.07 693.61 479.66 694.2 479.66 694.2 480.25 694.79 480.25 694.79 480.85 695.39 480.85 695.39 481.44 695.98 481.44 695.98 482.03 696.57 482.03 696.57 482.63 697.17 482.63 697.17 483.22 697.76 483.22 697.76 483.81 698.35 483.81 698.35 484.41 698.95 484.41 698.95 485 699.54 485 699.54 485.59 700.13 485.59 700.13 486.19 700.73 486.19 700.73 486.78 701.32 486.78 701.32 487.37 701.91 487.37 701.91 487.97 702.51 487.97 702.51 488.56 703.1 488.56 703.1 489.15 703.69 489.15 703.69 489.74 704.29 489.74 704.29 490.34 704.88 490.34 704.88 490.93 705.47 490.93 705.47 491.52 706.06 491.52 706.06 492.12 706.66 492.12 706.66 492.71 707.25 492.71 707.25 493.3 707.84 493.3 707.84 493.9 708.44 493.9 708.44 494.49 709.03 494.49 709.03 495.08 709.62 495.08 709.62 495.68 710.22 495.68 710.22 496.27 710.81 496.27 710.81 496.86 711.4 496.86 711.4 497.46 712 497.46 712 498.05 712.59 498.05 712.59 498.64 713.18 498.64 713.18 499.24 713.78 499.24 713.78 499.83 714.37 499.83 714.37 500.42 714.96 500.42 714.96 501.02 715.56 501.02 715.56 501.61 716.15 501.61 716.15 502.2 716.74 502.2 716.74 502.8 717.34 502.8 717.34 503.39 717.93 503.39 717.93 503.98 718.52 503.98 718.52 504.58 719.12 504.58 719.12 505.17 719.71 505.17 719.71 505.76 720.3 505.76 720.3 506.36 720.9 506.36 720.9 506.95 721.49 506.95 721.49 507.54 722.08 507.54 722.08 508.14 722.68 508.14 722.68 508.73 723.27 508.73 723.27 509.32 723.86 509.32 723.86 509.92 724.46 509.92 724.46 510.51 725.05 510.51 725.05 511.1 725.64 511.1 725.64 511.7 726.24 511.7 726.24 512.29 726.83 512.29 726.83 512.88 727.42 512.88 727.42 513.48 728.02 513.48 728.02 514.07 728.61 514.07 728.61 514.66 729.2 514.66 729.2 515.26 729.8 515.26 729.8 515.85 730.39 515.85 730.39 516.44 730.98 516.44 730.98 517.04 743.71 517.04 743.71 505.84 743.12 505.84 743.12 505.25 742.52 505.25 742.52 504.66 741.93 504.66 741.93 504.06 741.34 504.06 741.34 503.47 740.74 503.47 740.74 502.88 740.15 502.88 740.15 502.28 739.56 502.28 739.56 501.69 738.96 501.69 738.96 501.1 738.37 501.1 738.37 500.51 738.27 500.51 738.27 499.46 739.54 499.46 740.07 499.46 741.94 499.46 742.47 499.46 744.35 499.46 744.88 499.46 746.75 499.46 747.28 499.46 749.16 499.46 749.89 499.46 745.38 466.07"/>
        </g>
        <g>
          <g>
            <g>
              <rect class="cls-66" x="480.56" y="357.52" width="12.73" height="11.19"/>
              <rect class="cls-60" x="481.1" y="358.06" width="11.64" height="10.11"/>
              <rect class="cls-68" x="486" y="346.69" width="1.85" height="16.42"/>
            </g>
            <g>
              <polygon class="cls-31" points="478.89 317.74 486.92 317.74 494.95 317.74 499.46 351.14 486.92 351.14 474.37 351.14 478.89 317.74"/>
              <g>
                <path class="cls-7" d="m480.69,317.74h-1.17c-.48,3.72-1.03,7.97-1.66,12.87-.74,5.71-1.6,12.46-2.64,20.53h1.87c.87-8.07,1.6-14.81,2.21-20.52.53-4.9.99-9.15,1.39-12.87Z"/>
                <path class="cls-7" d="m482.2,317.74h-1.17c-.38,3.72-.81,7.97-1.31,12.87-.58,5.71-1.27,12.46-2.09,20.52h1.87c.65-8.07,1.2-14.81,1.66-20.52.4-4.9.74-9.15,1.04-12.87Z"/>
                <path class="cls-7" d="m483.7,317.74h-1.17c-.28,3.72-.6,7.97-.96,12.87-.43,5.71-.93,12.46-1.54,20.52h1.87c.44-8.07.8-14.81,1.11-20.52.26-4.9.49-9.15.69-12.87Z"/>
                <path class="cls-7" d="m485.21,317.74h-1.17c-.18,3.72-.38,7.97-.62,12.87-.27,5.71-.6,12.46-.99,20.52h1.87c.22-8.07.4-14.81.56-20.52.13-4.9.25-9.15.35-12.87Z"/>
                <path class="cls-7" d="m486.71,317.74h-1.17c-.08,3.72-.17,7.97-.27,12.87-.12,5.71-.26,12.46-.43,20.52h1.87c0-8.07,0-14.81,0-20.52,0-4.9,0-9.15,0-12.87Z"/>
                <path class="cls-7" d="m488.22,317.74h-1.17c.02,3.72.05,7.97.07,12.87.03,5.71.07,12.46.12,20.52h1.87c-.22-8.07-.4-14.81-.55-20.52-.13-4.9-.24-9.15-.34-12.87Z"/>
                <path class="cls-7" d="m489.73,317.74h-1.17c.12,3.72.26,7.97.42,12.87.19,5.71.41,12.46.67,20.52h1.87c-.43-8.07-.79-14.81-1.1-20.52-.26-4.89-.49-9.15-.69-12.87Z"/>
                <path class="cls-7" d="m491.23,317.74h-1.17c.22,3.72.47,7.98.77,12.87.34,5.71.74,12.45,1.22,20.52h1.87c-.65-8.07-1.19-14.81-1.65-20.52-.39-4.89-.74-9.15-1.04-12.87Z"/>
                <path class="cls-7" d="m492.74,317.74h-1.17c.32,3.72.69,7.98,1.11,12.87.49,5.71,1.08,12.45,1.77,20.52h1.87c-.87-8.07-1.59-14.81-2.2-20.52-.53-4.89-.98-9.15-1.38-12.87Z"/>
                <path class="cls-7" d="m494.25,317.74h-1.18c.42,3.72.9,7.98,1.46,12.87.65,5.71,1.41,12.45,2.33,20.52h1.88c-1.08-8.07-1.99-14.81-2.76-20.52-.66-4.89-1.23-9.15-1.73-12.87Z"/>
              </g>
            </g>
          </g>
          <g>
            <g>
              <rect class="cls-66" x="582.66" y="357.52" width="12.73" height="11.19"/>
              <rect class="cls-60" x="583.2" y="358.06" width="11.64" height="10.11"/>
              <rect class="cls-68" x="588.1" y="346.69" width="1.85" height="16.42"/>
            </g>
            <g>
              <polygon class="cls-31" points="580.99 317.74 589.02 317.74 597.06 317.74 601.57 351.14 589.02 351.14 576.48 351.14 580.99 317.74"/>
              <g>
                <path class="cls-7" d="m582.79,317.74h-1.17c-.48,3.72-1.03,7.97-1.66,12.87-.74,5.71-1.6,12.46-2.64,20.53h1.87c.87-8.07,1.6-14.81,2.21-20.52.53-4.9.99-9.15,1.39-12.87Z"/>
                <path class="cls-7" d="m584.3,317.74h-1.17c-.38,3.72-.81,7.97-1.31,12.87-.58,5.71-1.27,12.46-2.09,20.52h1.87c.65-8.07,1.2-14.81,1.66-20.52.4-4.9.74-9.15,1.04-12.87Z"/>
                <path class="cls-7" d="m585.81,317.74h-1.17c-.28,3.72-.6,7.97-.96,12.87-.43,5.71-.93,12.46-1.54,20.52h1.87c.44-8.07.8-14.81,1.11-20.52.26-4.9.49-9.15.69-12.87Z"/>
                <path class="cls-7" d="m587.31,317.74h-1.17c-.18,3.72-.38,7.97-.62,12.87-.27,5.71-.6,12.46-.99,20.52h1.87c.22-8.07.4-14.81.56-20.52.13-4.9.25-9.15.35-12.87Z"/>
                <path class="cls-7" d="m588.82,317.74h-1.17c-.08,3.72-.17,7.97-.27,12.87-.12,5.71-.26,12.46-.43,20.52h1.87c0-8.07,0-14.81,0-20.52,0-4.9,0-9.15,0-12.87Z"/>
                <path class="cls-7" d="m590.32,317.74h-1.17c.02,3.72.05,7.97.07,12.87.03,5.71.07,12.46.12,20.52h1.87c-.22-8.07-.4-14.81-.55-20.52-.13-4.9-.24-9.15-.34-12.87Z"/>
                <path class="cls-7" d="m591.83,317.74h-1.17c.12,3.72.26,7.97.42,12.87.19,5.71.41,12.46.67,20.52h1.87c-.43-8.07-.79-14.81-1.1-20.52-.26-4.89-.49-9.15-.69-12.87Z"/>
                <path class="cls-7" d="m593.34,317.74h-1.17c.22,3.72.47,7.98.77,12.87.34,5.71.74,12.45,1.22,20.52h1.87c-.65-8.07-1.19-14.81-1.65-20.52-.39-4.89-.74-9.15-1.04-12.87Z"/>
                <path class="cls-7" d="m594.84,317.74h-1.17c.32,3.72.69,7.98,1.11,12.87.49,5.71,1.08,12.45,1.77,20.52h1.87c-.87-8.07-1.59-14.81-2.2-20.52-.53-4.89-.98-9.15-1.38-12.87Z"/>
                <path class="cls-7" d="m596.35,317.74h-1.18c.42,3.72.9,7.98,1.46,12.87.65,5.71,1.41,12.45,2.33,20.52h1.88c-1.08-8.07-1.99-14.81-2.76-20.52-.66-4.89-1.23-9.15-1.73-12.87Z"/>
              </g>
            </g>
          </g>
        </g>
        <g>
          <path class="cls-6" d="m519.2,421.96c-.08.37-.15.75-.18,1.14h-1.67c-.77,0-1.39.63-1.39,1.39v3.48c0,.77.63,1.39,1.39,1.39h2.59c.24,0,.47-.06.66-.17.5.69,1.1,1.28,1.77,1.73h6.51c2.02-1.36,3.4-3.95,3.4-6.9h0c0-.71-.08-1.4-.23-2.06h-12.84Zm-.22,1.75c0,.1,0,.2,0,.31h0c0,1.74.48,3.35,1.28,4.66-.1.04-.21.07-.32.07h-2.59c-.43,0-.78-.35-.78-.78v-3.48c0-.43.35-.78.78-.78h1.63Z"/>
          <path class="cls-8" d="m517.08,430.43s0,.05,0,.08h0c0,.61.29,1.1.65,1.1h15.01c.36,0,.65-.5.65-1.1h0s0-.05,0-.08h-16.31Z"/>
        </g>
        <g>
          <path class="cls-6" d="m574.75,421.96c.08.37.15.75.18,1.14h1.67c.77,0,1.39.63,1.39,1.39v3.48c0,.77-.63,1.39-1.39,1.39h-2.59c-.24,0-.47-.06-.66-.17-.5.69-1.1,1.28-1.77,1.73h-6.51c-2.02-1.36-3.4-3.95-3.4-6.9h0c0-.71.08-1.4.23-2.06h12.84Zm.22,1.75c0,.1,0,.2,0,.31h0c0,1.74-.48,3.35-1.28,4.66.1.04.21.07.32.07h2.59c.43,0,.78-.35.78-.78v-3.48c0-.43-.35-.78-.78-.78h-1.63Z"/>
          <path class="cls-8" d="m576.87,430.43s0,.05,0,.08h0c0,.61-.29,1.1-.65,1.1h-15.01c-.36,0-.65-.5-.65-1.1h0s0-.05,0-.08h16.31Z"/>
        </g>
        <rect class="cls-73" x="542.85" y="441.91" width="4.63" height="61.47" rx="1.74" ry="1.74"/>
        <polygon class="cls-10" points="405.42 488.27 405.42 357.38 374.7 357.38 374.7 488.27 305.25 488.27 305.25 506.89 374.7 506.89 375.35 506.89 404.64 506.89 405.42 506.89 499.46 506.89 499.46 488.27 405.42 488.27"/>
        <path class="cls-23" d="m718.77,488.4v-130.88h-30.71v130.88h-69.46v18.62h100.17c27.01.12,54.01.25,81.02.37v-18.99h-81.02Z"/>
      </g>
    </g>
  </g>
</svg>