<?xml version="1.0" encoding="UTF-8"?>
<svg xmlns="http://www.w3.org/2000/svg" xmlns:xlink="http://www.w3.org/1999/xlink" viewBox="0 0 800 800">
  <defs>
    <style>
      .cls-1 {
        fill: url(#linear-gradient-4);
      }

      .cls-1, .cls-2, .cls-3, .cls-4, .cls-5, .cls-6, .cls-7, .cls-8, .cls-9, .cls-10, .cls-11, .cls-12, .cls-13, .cls-14, .cls-15, .cls-16, .cls-17, .cls-18, .cls-19, .cls-20, .cls-21, .cls-22, .cls-23, .cls-24, .cls-25, .cls-26, .cls-27, .cls-28, .cls-29 {
        fill-rule: evenodd;
      }

      .cls-2 {
        fill: url(#Earthtone_18-7);
      }

      .cls-3 {
        fill: url(#Earthtone_18);
      }

      .cls-4 {
        fill: url(#linear-gradient-12);
      }

      .cls-30 {
        fill: #404041;
      }

      .cls-5 {
        fill: #d0d2d3;
      }

      .cls-6 {
        fill: #f3bc80;
      }

      .cls-7 {
        fill: #fff;
      }

      .cls-31 {
        mix-blend-mode: multiply;
      }

      .cls-31, .cls-32 {
        fill: none;
      }

      .cls-8 {
        fill: url(#linear-gradient-21);
      }

      .cls-33 {
        fill: #841618;
      }

      .cls-34 {
        fill: url(#linear-gradient-20);
      }

      .cls-35 {
        fill: url(#linear-gradient-6);
      }

      .cls-36 {
        fill: #541900;
      }

      .cls-37 {
        fill: #8d785d;
      }

      .cls-9 {
        fill: url(#linear-gradient-2);
      }

      .cls-38 {
        fill: url(#Earthtone_20-5);
      }

      .cls-10 {
        fill: url(#linear-gradient-15);
      }

      .cls-39 {
        fill: url(#linear-gradient-11);
      }

      .cls-11 {
        fill: url(#linear-gradient-9);
      }

      .cls-12 {
        fill: url(#Earthtone_18-4);
      }

      .cls-13 {
        fill: url(#linear-gradient-16);
      }

      .cls-40 {
        fill: #603913;
      }

      .cls-14 {
        fill: url(#linear-gradient-14);
      }

      .cls-15 {
        fill: url(#linear-gradient-5);
      }

      .cls-41 {
        fill: #806a50;
      }

      .cls-42 {
        fill: #3c2415;
      }

      .cls-43 {
        fill: #bbbdbf;
      }

      .cls-16 {
        fill: #fdcf9d;
      }

      .cls-44 {
        fill: url(#Earthtone_20-6);
      }

      .cls-32 {
        isolation: isolate;
      }

      .cls-45 {
        fill: url(#Earthtone_20-3);
      }

      .cls-17 {
        fill: url(#linear-gradient-10);
      }

      .cls-18 {
        fill: url(#linear-gradient-18);
      }

      .cls-46 {
        fill: url(#Earthtone_20-2);
      }

      .cls-19 {
        fill: url(#linear-gradient-19);
      }

      .cls-20 {
        fill: url(#Earthtone_18-6);
      }

      .cls-47 {
        fill: #d1d3d4;
        mix-blend-mode: soft-light;
        opacity: .38;
      }

      .cls-21 {
        fill: url(#Earthtone_18-3);
      }

      .cls-48 {
        fill: #670607;
      }

      .cls-22 {
        fill: url(#Earthtone_18-2);
      }

      .cls-49 {
        fill: url(#Earthtone_17);
      }

      .cls-50 {
        fill: url(#linear-gradient);
      }

      .cls-23 {
        fill: url(#linear-gradient-22);
      }

      .cls-24 {
        fill: url(#linear-gradient-13);
      }

      .cls-25 {
        fill: url(#linear-gradient-7);
      }

      .cls-26 {
        fill: url(#linear-gradient-8);
      }

      .cls-51 {
        fill: url(#Earthtone_20-4);
      }

      .cls-52 {
        fill: url(#Earthtone_20-7);
      }

      .cls-27 {
        fill: url(#linear-gradient-3);
      }

      .cls-28 {
        fill: url(#linear-gradient-17);
      }

      .cls-53 {
        fill: url(#Earthtone_20);
      }

      .cls-29 {
        fill: url(#Earthtone_18-5);
      }
    </style>
    <linearGradient id="linear-gradient" x1="400" y1="162.49" x2="400" y2="-637.51" gradientUnits="userSpaceOnUse">
      <stop offset="0" stop-color="#eec6b6"/>
      <stop offset=".5" stop-color="#e4b988"/>
      <stop offset="1" stop-color="#e5ba8b"/>
    </linearGradient>
    <linearGradient id="Earthtone_20" data-name="Earthtone 20" x1="400" y1="60.39" x2="400" y2="860.39" gradientUnits="userSpaceOnUse">
      <stop offset="0" stop-color="#9a6046"/>
      <stop offset=".5" stop-color="#6e2405"/>
      <stop offset="1" stop-color="#4e0000"/>
    </linearGradient>
    <linearGradient id="linear-gradient-2" x1="782.34" y1="275.6" x2="782.34" y2="482.93" gradientUnits="userSpaceOnUse">
      <stop offset="0" stop-color="#9a6046"/>
      <stop offset=".5" stop-color="#933a24"/>
      <stop offset="1" stop-color="#511818"/>
    </linearGradient>
    <linearGradient id="linear-gradient-3" x1="18.21" x2="18.21" xlink:href="#linear-gradient-2"/>
    <linearGradient id="linear-gradient-4" x1="311.59" y1="275.6" x2="311.59" y2="482.93" xlink:href="#linear-gradient-2"/>
    <linearGradient id="linear-gradient-5" x1="489.52" y1="275.6" x2="489.52" y2="482.93" xlink:href="#linear-gradient-2"/>
    <linearGradient id="linear-gradient-6" x1="377.24" y1="597.91" x2="424.35" y2="597.91" gradientUnits="userSpaceOnUse">
      <stop offset="0" stop-color="#231f20"/>
      <stop offset=".5" stop-color="#747477"/>
      <stop offset="1" stop-color="#231f20"/>
    </linearGradient>
    <linearGradient id="Earthtone_17" data-name="Earthtone 17" x1="400" y1="565.21" x2="400" y2="417.35" gradientUnits="userSpaceOnUse">
      <stop offset="0" stop-color="#b18b75"/>
      <stop offset=".5" stop-color="#94644a"/>
      <stop offset="1" stop-color="#87503a"/>
    </linearGradient>
    <linearGradient id="Earthtone_18" data-name="Earthtone 18" x1="217.53" y1="518.26" x2="185.33" y2="518.26" gradientUnits="userSpaceOnUse">
      <stop offset="0" stop-color="#d0937a"/>
      <stop offset=".5" stop-color="#b25538"/>
      <stop offset="1" stop-color="#a2311a"/>
    </linearGradient>
    <linearGradient id="Earthtone_18-2" data-name="Earthtone 18" x1="265.56" y1="602.92" x2="265.56" y2="523.73" xlink:href="#Earthtone_18"/>
    <linearGradient id="linear-gradient-7" x1="246.31" y1="494.59" x2="246.31" y2="751.23" gradientUnits="userSpaceOnUse">
      <stop offset="0" stop-color="#ac7a6c"/>
      <stop offset=".51" stop-color="#945748"/>
      <stop offset="1" stop-color="#562d22"/>
    </linearGradient>
    <linearGradient id="linear-gradient-8" x1="185.4" y1="392.33" x2="185.4" y2="509.9" xlink:href="#linear-gradient-2"/>
    <linearGradient id="Earthtone_18-3" data-name="Earthtone 18" x1="582.47" y1="518.26" x2="614.67" y2="518.26" xlink:href="#Earthtone_18"/>
    <linearGradient id="Earthtone_18-4" data-name="Earthtone 18" x1="534.47" y1="591.18" x2="534.47" y2="547.4" xlink:href="#Earthtone_18"/>
    <linearGradient id="linear-gradient-9" x1="553.69" y1="484.09" x2="553.69" y2="740.73" xlink:href="#linear-gradient-7"/>
    <linearGradient id="linear-gradient-10" x1="614.6" y1="385.36" x2="614.6" y2="489.31" xlink:href="#linear-gradient-2"/>
    <linearGradient id="linear-gradient-11" x1="142.95" y1="392.33" x2="142.95" y2="509.9" xlink:href="#linear-gradient-2"/>
    <linearGradient id="Earthtone_18-5" data-name="Earthtone 18" x1="68.15" y1="518.26" x2="100.36" y2="518.26" xlink:href="#Earthtone_18"/>
    <linearGradient id="linear-gradient-12" x1="39.34" y1="605.42" x2="39.34" y2="526.74" gradientUnits="userSpaceOnUse">
      <stop offset="0" stop-color="#d0937a"/>
      <stop offset=".5" stop-color="#b25538"/>
      <stop offset=".8" stop-color="#a83f26"/>
      <stop offset="1" stop-color="#a2311a"/>
    </linearGradient>
    <linearGradient id="linear-gradient-13" x1="59.08" y1="488.59" x2="59.08" y2="745.23" xlink:href="#linear-gradient-7"/>
    <linearGradient id="linear-gradient-14" x1="100.28" y1="392.33" x2="100.28" y2="509.9" xlink:href="#linear-gradient-2"/>
    <linearGradient id="linear-gradient-15" x1="163.68" y1="377.59" x2="163.68" y2="736.33" xlink:href="#linear-gradient-2"/>
    <linearGradient id="Earthtone_18-6" data-name="Earthtone 18" x1="732.06" x2="699.86" xlink:href="#Earthtone_18"/>
    <linearGradient id="Earthtone_18-7" data-name="Earthtone 18" x1="760.77" y1="596.42" x2="760.77" y2="517.96" xlink:href="#Earthtone_18"/>
    <linearGradient id="linear-gradient-16" x1="699.94" y1="385.36" x2="699.94" y2="489.31" xlink:href="#linear-gradient-2"/>
    <linearGradient id="linear-gradient-17" x1="741.03" y1="490.09" x2="741.03" y2="746.73" xlink:href="#linear-gradient-7"/>
    <linearGradient id="linear-gradient-18" x1="636.32" y1="377.59" x2="636.32" y2="736.33" xlink:href="#linear-gradient-2"/>
    <linearGradient id="linear-gradient-19" x1="657.02" y1="385.36" x2="657.02" y2="489.31" xlink:href="#linear-gradient-2"/>
    <linearGradient id="linear-gradient-20" x1="400" y1="780" x2="400" y2="637.78" gradientUnits="userSpaceOnUse">
      <stop offset="0" stop-color="#ac7a6c"/>
      <stop offset=".78" stop-color="#b46a5a"/>
      <stop offset="1" stop-color="#562d22"/>
    </linearGradient>
    <linearGradient id="Earthtone_20-2" data-name="Earthtone 20" x1="83.36" y1="323.59" x2="83.36" y2="400.38" xlink:href="#Earthtone_20"/>
    <linearGradient id="Earthtone_20-3" data-name="Earthtone 20" x1="210.01" y1="323.59" x2="210.01" y2="400.38" xlink:href="#Earthtone_20"/>
    <linearGradient id="Earthtone_20-4" data-name="Earthtone 20" x1="336.67" y1="323.59" x2="336.67" y2="400.38" xlink:href="#Earthtone_20"/>
    <linearGradient id="Earthtone_20-5" data-name="Earthtone 20" x1="463.33" y1="323.59" x2="463.33" y2="400.38" xlink:href="#Earthtone_20"/>
    <linearGradient id="Earthtone_20-6" data-name="Earthtone 20" x1="589.99" y1="323.59" x2="589.99" y2="400.38" xlink:href="#Earthtone_20"/>
    <linearGradient id="Earthtone_20-7" data-name="Earthtone 20" x1="716.64" y1="323.59" x2="716.64" y2="400.38" xlink:href="#Earthtone_20"/>
    <linearGradient id="linear-gradient-21" x1="432.98" y1="499.19" x2="212.31" y2="278.52" gradientUnits="userSpaceOnUse">
      <stop offset="0" stop-color="#fff"/>
      <stop offset="1" stop-color="#000"/>
    </linearGradient>
    <linearGradient id="linear-gradient-22" x1="555.03" y1="449.14" x2="334.35" y2="228.47" xlink:href="#linear-gradient-21"/>
  </defs>
  <g class="cls-32">
    <g id="Layer_2" data-name="Layer 2">
      <g id="OBJECTS">
        <rect class="cls-50" width="800" height="800"/>
        <rect class="cls-53" y="332.96" width="800" height="324.82"/>
        <path class="cls-9" d="m800,433.17c-.06,0-.12,0-.17,0h-22.97c-6.72,0-12.17,5.3-12.17,11.83v171.36c0,6.54,5.45,11.83,12.17,11.83h22.97c.06,0,.12,0,.17,0v-195.01Z"/>
        <path class="cls-27" d="m24.25,433.16H1.28c-.43,0-.86.02-1.28.07v194.89c.42.04.85.07,1.28.07h22.97c6.72,0,12.17-5.3,12.17-11.83v-171.36c0-6.54-5.45-11.83-12.17-11.83Z"/>
        <rect class="cls-42" y="644.84" width="800" height="13.57"/>
        <path class="cls-1" d="m252.63,628.19h117.92c6.72,0,12.17-5.3,12.17-11.83v-171.36c0-6.54-5.45-11.83-12.17-11.83h-117.92c-6.72,0-12.17,5.3-12.17,11.83v171.36c0,6.54,5.45,11.83,12.17,11.83Z"/>
        <path class="cls-15" d="m430.56,628.19h117.92c6.72,0,12.17-5.3,12.17-11.83v-171.36c0-6.54-5.45-11.83-12.17-11.83h-117.92c-6.72,0-12.17,5.3-12.17,11.83v171.36c0,6.54,5.45,11.83,12.17,11.83Z"/>
        <rect class="cls-35" x="390.58" y="538.03" width="18.85" height="119.75"/>
        <g>
          <path class="cls-48" d="m442.63,531.09h-62.22c-.87,0-1.58-.71-1.58-1.58h0c0-.87.71-1.58,1.58-1.58h62.22c.87,0,1.58.71,1.58,1.58h0c0,.87-.71,1.58-1.58,1.58Z"/>
          <path class="cls-33" d="m443.2,527.92h-63.36c-.56,0-1.01.71-1.01,1.58h65.39c0-.87-.45-1.58-1.01-1.58Z"/>
        </g>
        <rect class="cls-49" x="326.07" y="530.67" width="147.86" height="13.07" rx="1.56" ry="1.56"/>
        <rect class="cls-30" x="385.86" y="655.71" width="28.27" height="2.07" rx="1.04" ry="1.04"/>
        <path class="cls-3" d="m191.6,461.84l12.07-.76c3.69-.23,6.91,2.6,7.15,6.28l6.69,100.2c.25,3.69-2.57,6.89-6.26,7.12l-12.07.76c-3.69.23-6.91-2.6-7.15-6.28l-6.69-100.2c-.25-3.69,2.57-6.89,6.26-7.12Z"/>
        <path class="cls-22" d="m211.93,571.14h107.28c2.71,0,4.92,2.23,4.92,4.96v11.64c0,2.73-2.21,4.96-4.92,4.96h-107.28c-2.7,0-4.92-2.23-4.92-4.96v-11.64c0-2.73,2.21-4.96,4.92-4.96Z"/>
        <polygon class="cls-25" points="208.13 587.19 201.58 455.98 167.53 455.98 167.53 657.78 207.2 657.78 211.66 657.78 325.1 657.78 325.1 587.19 208.13 587.19"/>
        <path class="cls-26" d="m167.53,446.64h33.84c1.04,0,1.9.85,1.9,1.9v6.69c0,1.04-.85,1.9-1.9,1.9h-33.84v-10.49Z"/>
        <path class="cls-21" d="m608.4,461.84l-12.07-.76c-3.69-.23-6.91,2.6-7.15,6.28l-6.69,100.2c-.25,3.69,2.57,6.89,6.26,7.12l12.07.76c3.69.23,6.91-2.6,7.15-6.28l6.69-100.2c.25-3.69-2.57-6.89-6.26-7.12Z"/>
        <path class="cls-12" d="m588.08,571.14h-107.22c-2.7,0-4.92,2.23-4.92,4.96v11.64c0,2.73,2.21,4.96,4.92,4.96h107.22c2.7,0,4.92-2.23,4.92-4.96v-11.64c0-2.73-2.21-4.96-4.92-4.96Z"/>
        <polygon class="cls-11" points="598.42 455.98 591.87 587.19 474.9 587.19 474.9 657.78 588.34 657.78 592.8 657.78 632.47 657.78 632.47 455.98 598.42 455.98"/>
        <path class="cls-17" d="m632.47,446.64h-33.84c-1.04,0-1.9.85-1.9,1.9v6.69c0,1.04.85,1.9,1.9,1.9h33.84v-10.49Z"/>
        <path class="cls-39" d="m116.39,401.96h53.13c.59,0,1.07.48,1.07,1.07v2.24c0,.59-.48,1.07-1.07,1.07h-53.13c-.59,0-1.07-.48-1.07-1.07v-2.24c0-.59.48-1.07,1.07-1.07Z"/>
        <path class="cls-29" d="m94.08,461.84l-12.07-.76c-3.69-.23-6.91,2.6-7.15,6.28l-6.69,100.2c-.25,3.69,2.57,6.89,6.26,7.12l12.07.76c3.69.23,6.91-2.6,7.15-6.28l6.69-100.2c.25-3.69-2.57-6.89-6.26-7.12Z"/>
        <path class="cls-4" d="m73.72,571.14H0v21.56h73.72c2.73,0,4.96-2.23,4.96-4.96v-11.64c0-2.73-2.23-4.96-4.96-4.96Z"/>
        <polygon class="cls-24" points="84.11 455.98 77.56 587.19 0 587.19 0 657.78 74.03 657.78 78.49 657.78 118.15 657.78 118.15 455.98 84.11 455.98"/>
        <path class="cls-14" d="m118.15,446.64h-33.84c-1.04,0-1.9.85-1.9,1.9v6.69c0,1.04.85,1.9,1.9,1.9h33.84v-10.49Z"/>
        <polygon class="cls-10" points="168.84 626.4 168.84 405.79 117.07 405.79 117.07 626.4 0 626.4 0 657.78 117.07 657.78 118.15 657.78 167.53 657.78 168.84 657.78 327.35 657.78 327.35 626.4 168.84 626.4"/>
        <path class="cls-20" d="m706.13,461.84l12.07-.76c3.69-.23,6.91,2.6,7.15,6.28l6.69,100.2c.25,3.69-2.57,6.89-6.26,7.12l-12.07.76c-3.69.23-6.91-2.6-7.15-6.28l-6.69-100.2c-.25-3.69,2.57-6.89,6.26-7.12Z"/>
        <path class="cls-2" d="m726.5,571.14h73.5v21.56h-73.5c-2.73,0-4.96-2.23-4.96-4.96v-11.64c0-2.73,2.23-4.96,4.96-4.96Z"/>
        <path class="cls-13" d="m682.06,446.64h33.84c1.04,0,1.9.85,1.9,1.9v6.69c0,1.04-.85,1.9-1.9,1.9h-33.84v-10.49Z"/>
        <polygon class="cls-28" points="722.66 587.19 716.11 455.98 682.06 455.98 682.06 657.78 721.73 657.78 726.19 657.78 800 657.78 800 587.19 722.66 587.19"/>
        <path class="cls-18" d="m683.15,626.4v-220.05h.68c.59,0,1.07-.48,1.07-1.07v-2.24c0-.59-.48-1.07-1.07-1.07h-53.13c-.59,0-1.07.48-1.07,1.07v2.24c0,.59.48,1.07,1.07,1.07h.68v220.05h-158.73v31.39h327.35v-31.39h-116.85Z"/>
        <path class="cls-19" d="m630.22,401.96h53.6c.6,0,1.08.48,1.08,1.07v2.24c0,.59-.49,1.07-1.08,1.07h-53.6c-.6,0-1.08-.48-1.08-1.07v-2.24c0-.59.49-1.07,1.08-1.07Z"/>
        <rect class="cls-34" y="657.78" width="800" height="142.22"/>
        <rect class="cls-40" y="319.39" width="800" height="13.57"/>
        <g>
          <path class="cls-46" d="m40.95,350.3h84.82c1.98,0,3.58,1.6,3.58,3.58v22.24c0,1.98-1.6,3.58-3.58,3.58H40.95c-1.98,0-3.58-1.6-3.58-3.58v-22.24c0-1.98,1.6-3.58,3.58-3.58Z"/>
          <rect class="cls-45" x="164.02" y="350.3" width="91.98" height="29.4" rx="3.58" ry="3.58"/>
          <rect class="cls-51" x="290.68" y="350.3" width="91.98" height="29.4" rx="3.58" ry="3.58"/>
          <rect class="cls-38" x="417.34" y="350.3" width="91.98" height="29.4" rx="3.58" ry="3.58"/>
          <rect class="cls-44" x="544" y="350.3" width="91.98" height="29.4" rx="3.58" ry="3.58"/>
          <path class="cls-52" d="m674.24,350.3h84.82c1.98,0,3.58,1.6,3.58,3.58v22.24c0,1.98-1.6,3.58-3.58,3.58h-84.82c-1.98,0-3.58-1.6-3.58-3.58v-22.24c0-1.98,1.6-3.58,3.58-3.58Z"/>
        </g>
        <rect class="cls-36" y="387.99" width="800" height="5.46"/>
        <g class="cls-31">
          <polygon class="cls-8" points="576.75 588.74 576.62 587.74 575.75 587.74 575.62 586.74 574.75 586.74 574.62 585.74 573.75 585.74 573.62 584.74 572.75 584.74 572.62 583.74 571.75 583.74 571.62 582.74 570.75 582.74 570.62 581.74 569.75 581.74 569.62 580.74 568.75 580.74 568.62 579.74 567.75 579.74 567.62 578.74 566.75 578.74 566.62 577.74 565.75 577.74 565.62 576.74 564.75 576.74 564.62 575.74 563.75 575.74 563.62 574.74 562.75 574.74 562.62 573.74 561.75 573.74 561.62 572.74 560.75 572.74 560.62 571.74 559.75 571.74 559.62 570.74 558.75 570.74 558.62 569.74 557.75 569.74 557.62 568.74 556.75 568.74 556.62 567.74 555.75 567.74 555.62 566.74 554.75 566.74 554.62 565.74 553.75 565.74 553.62 564.74 552.75 564.74 552.62 563.74 551.75 563.74 551.62 562.74 550.75 562.74 550.62 561.74 549.75 561.74 549.62 560.74 548.75 560.74 548.62 559.74 547.75 559.74 547.62 558.74 546.75 558.74 546.62 557.74 545.75 557.74 545.62 556.74 544.75 556.74 544.62 555.74 543.75 555.74 543.62 554.74 542.75 554.74 542.62 553.74 541.75 553.74 541.62 552.74 540.75 552.74 540.62 551.74 539.75 551.74 539.62 550.74 538.75 550.74 538.62 549.74 537.75 549.74 537.62 548.74 536.75 548.74 536.62 547.74 535.75 547.74 535.62 546.74 534.75 546.74 534.62 545.74 533.75 545.74 533.62 544.74 532.75 544.74 532.62 543.74 531.75 543.74 531.62 542.74 530.75 542.74 530.62 541.74 529.75 541.74 529.62 540.74 528.75 540.74 528.62 539.74 527.75 539.74 527.62 538.74 526.75 538.74 526.62 537.74 525.75 537.74 525.62 536.74 524.75 536.74 524.62 535.74 523.75 535.74 523.62 534.74 522.75 534.74 522.62 533.74 521.75 533.74 521.62 532.74 520.75 532.74 520.62 531.74 519.75 531.74 519.62 530.74 518.75 530.74 518.62 529.74 517.75 529.74 517.62 528.74 516.75 528.74 516.62 527.74 515.75 527.74 515.62 526.74 514.75 526.74 514.62 525.74 513.75 525.74 513.62 524.74 512.75 524.74 512.62 523.74 511.75 523.74 511.62 522.74 510.75 522.74 510.62 521.74 509.75 521.74 509.62 520.74 508.75 520.74 508.62 519.74 507.75 519.74 507.62 518.74 506.75 518.74 506.62 517.74 505.75 517.74 505.62 516.74 504.75 516.74 504.62 515.74 503.75 515.74 503.62 514.74 502.75 514.74 502.62 513.74 501.75 513.74 501.62 512.74 500.75 512.74 500.62 511.74 499.75 511.74 499.62 510.74 498.75 510.74 498.62 509.74 497.75 509.74 497.62 508.74 496.75 508.74 496.62 507.74 495.75 507.74 495.62 506.74 494.75 506.74 494.62 505.74 493.75 505.74 493.62 504.74 492.75 504.74 492.62 503.74 491.75 503.74 491.62 502.74 490.75 502.74 490.62 501.74 489.75 501.74 489.62 500.74 488.75 500.74 488.62 499.74 487.75 499.74 487.62 498.74 486.75 498.74 486.62 497.74 485.75 497.74 485.62 496.74 484.75 496.74 484.62 495.74 483.75 495.74 483.62 494.74 482.75 494.74 482.62 493.74 481.75 493.74 481.62 492.74 480.75 492.74 480.62 491.74 479.75 491.74 479.62 490.74 478.75 490.74 478.62 489.74 477.75 489.74 477.62 488.74 476.75 488.74 476.62 487.74 475.75 487.74 475.62 486.74 474.75 486.74 474.62 485.74 473.75 485.74 473.62 484.74 472.75 484.74 472.62 483.74 471.75 483.74 471.62 482.74 470.75 482.74 470.62 481.74 469.75 481.74 469.62 480.74 468.75 480.74 468.62 479.74 467.75 479.74 467.62 478.74 466.75 478.74 466.62 477.74 465.75 477.74 465.62 476.74 464.75 476.74 464.62 475.74 463.75 475.74 463.62 474.74 462.75 474.74 462.62 473.74 461.75 473.74 461.62 472.74 460.75 472.74 460.62 471.74 459.75 471.74 459.62 470.74 458.75 470.74 458.62 469.74 457.75 469.74 457.62 468.74 456.75 468.74 456.62 467.74 455.75 467.74 455.62 466.74 454.75 466.74 454.62 465.74 453.75 465.74 453.62 464.74 452.75 464.74 452.62 463.74 451.75 463.74 451.62 462.74 450.75 462.74 450.62 461.74 449.75 461.74 449.62 460.74 448.75 460.74 448.62 459.74 447.75 459.74 447.62 458.74 446.75 458.74 446.62 457.74 445.75 457.74 445.62 456.74 444.75 456.74 444.62 455.74 443.75 455.74 443.62 454.74 442.75 454.74 442.62 453.74 441.75 453.74 441.62 452.74 440.75 452.74 440.62 451.74 439.75 451.74 439.62 450.74 438.75 450.74 438.62 449.74 437.75 449.74 437.62 448.74 436.75 448.74 436.62 447.74 435.75 447.74 435.62 446.74 434.75 446.74 434.62 445.74 433.75 445.74 433.62 444.74 432.75 444.74 432.62 443.74 431.75 443.74 431.62 442.74 430.75 442.74 430.62 441.74 429.75 441.74 429.62 440.74 428.75 440.74 428.62 439.74 427.75 439.74 427.62 438.74 426.75 438.74 426.62 437.74 425.75 437.74 425.62 436.74 424.75 436.74 424.62 435.74 423.75 435.74 423.62 434.74 422.75 434.74 422.62 433.74 421.75 433.74 421.62 432.74 420.75 432.74 420.62 431.74 419.75 431.74 419.62 430.74 418.75 430.74 418.62 429.74 417.75 429.74 417.62 428.74 416.75 428.74 416.62 427.74 415.75 427.74 415.62 426.74 414.75 426.74 414.62 425.74 413.75 425.74 413.62 424.74 412.75 424.74 412.62 423.74 411.75 423.74 411.62 422.74 410.75 422.74 410.62 421.74 409.75 421.74 409.62 420.74 408.75 420.74 408.62 419.74 407.75 419.74 407.62 418.74 406.75 418.74 406.62 417.74 405.75 417.74 405.62 416.74 404.75 416.74 404.62 415.74 403.75 415.74 403.62 414.74 402.75 414.74 402.62 413.74 401.75 413.74 401.62 412.74 400.75 412.74 400.62 411.74 399.75 411.74 399.62 410.74 398.75 410.74 398.62 409.74 397.75 409.74 397.62 408.74 396.75 408.74 396.62 407.74 395.75 407.74 395.62 406.74 394.75 406.74 394.62 405.74 393.75 405.74 393.62 404.74 392.75 404.74 392.62 403.74 391.75 403.74 391.62 402.74 390.75 402.74 390.62 401.74 389.75 401.74 389.62 400.74 388.75 400.74 388.62 399.74 387.75 399.74 387.62 398.74 386.75 398.74 386.62 397.74 385.75 397.74 385.62 396.74 384.75 396.74 384.62 395.74 383.75 395.74 383.62 394.74 382.75 394.74 382.62 393.74 381.75 393.74 381.62 392.74 380.75 392.74 380.62 391.74 379.75 391.74 379.62 390.74 378.75 390.74 378.62 389.74 377.75 389.74 377.62 388.74 376.75 388.74 376.62 387.74 375.75 387.74 375.62 386.74 374.75 386.74 374.62 385.74 373.75 385.74 373.62 384.74 372.75 384.74 372.62 383.74 371.75 383.74 371.62 382.74 370.75 382.74 370.62 381.74 369.75 381.74 369.62 380.74 368.75 380.74 368.62 379.74 367.75 379.74 367.62 378.74 366.75 378.74 366.62 377.74 365.75 377.74 365.62 376.74 364.75 376.74 364.62 375.74 363.75 375.74 363.62 374.74 362.75 374.74 362.62 373.74 361.75 373.74 361.62 372.74 360.75 372.74 360.62 371.74 359.75 371.74 359.62 370.74 358.75 370.74 358.62 369.74 357.75 369.74 357.62 368.74 356.75 368.74 356.62 367.74 355.75 367.74 355.62 366.74 354.75 366.74 354.62 365.74 353.75 365.74 353.62 364.74 352.75 364.74 352.62 363.74 351.75 363.74 351.62 362.74 350.75 362.74 350.62 361.74 349.75 361.74 349.62 360.74 348.75 360.74 348.62 359.74 347.75 359.74 347.62 358.74 346.75 358.74 346.62 357.74 345.75 357.74 345.62 356.74 344.75 356.74 344.62 355.74 343.75 355.74 343.62 354.74 342.75 354.74 342.62 353.74 341.75 353.74 341.62 352.74 340.75 352.74 340.62 351.74 339.75 351.74 339.62 350.74 338.75 350.74 338.62 349.74 337.75 349.74 337.62 348.74 336.75 348.74 336.62 347.74 335.75 347.74 335.62 346.74 334.75 346.74 334.62 345.74 333.75 345.74 333.62 344.74 332.75 344.74 332.62 343.74 331.75 343.74 331.62 342.74 330.75 342.74 330.62 341.74 329.75 341.74 329.62 340.74 328.75 340.74 328.62 339.74 327.75 339.74 327.62 338.74 326.43 338.74 324.45 338.74 323.89 338.74 321.91 338.74 321.35 338.74 319.37 338.74 318.81 338.74 316.83 338.74 316.27 338.74 314.29 338.74 314.08 338.74 313.73 338.74 311.76 338.74 311.19 338.74 309.22 338.74 308.65 338.74 306.68 338.74 306.12 338.74 304.14 338.74 303.58 338.74 301.6 338.74 300.54 338.74 292.93 395.03 294.07 395.03 293.93 396.03 295.07 396.03 294.93 397.03 296.07 397.03 295.93 398.03 297.07 398.03 296.93 399.03 298.07 399.03 297.93 400.03 299.07 400.03 298.93 401.03 300.07 401.03 299.93 402.03 301.07 402.03 300.93 403.03 302.07 403.03 301.93 404.03 303.07 404.03 302.93 405.03 304.07 405.03 303.97 405.79 303.35 405.79 303.35 424.66 304.35 424.66 304.35 425.66 305.35 425.66 305.35 426.66 306.35 426.66 306.35 427.66 307.35 427.66 307.35 428.66 308.35 428.66 308.35 429.66 309.35 429.66 309.35 430.66 310.35 430.66 310.35 431.66 311.35 431.66 311.35 432.66 312.35 432.66 312.35 433.66 313.35 433.66 313.35 434.66 314.35 434.66 314.35 435.66 315.35 435.66 315.35 436.66 316.35 436.66 316.35 437.66 317.35 437.66 317.35 438.66 318.35 438.66 318.35 439.66 319.35 439.66 319.35 440.66 320.35 440.66 320.35 441.66 321.35 441.66 321.35 442.66 322.35 442.66 322.35 443.66 323.35 443.66 323.35 444.66 324.35 444.66 324.35 445.66 325.35 445.66 325.35 446.66 326.35 446.66 326.35 447.66 327.35 447.66 327.35 448.66 328.35 448.66 328.35 449.66 329.35 449.66 329.35 450.66 330.35 450.66 330.35 451.66 331.35 451.66 331.35 452.66 332.35 452.66 332.35 453.66 333.35 453.66 333.35 454.66 334.35 454.66 334.35 455.66 335.35 455.66 335.35 456.66 336.35 456.66 336.35 457.66 337.35 457.66 337.35 458.66 338.35 458.66 338.35 459.66 339.35 459.66 339.35 460.66 340.35 460.66 340.35 461.66 341.35 461.66 341.35 462.66 342.35 462.66 342.35 463.66 343.35 463.66 343.35 464.66 344.35 464.66 344.35 465.66 345.35 465.66 345.35 466.66 346.35 466.66 346.35 467.66 347.35 467.66 347.35 468.66 348.35 468.66 348.35 469.66 349.35 469.66 349.35 470.66 350.35 470.66 350.35 471.66 351.35 471.66 351.35 472.66 352.35 472.66 352.35 473.66 353.35 473.66 353.35 474.66 354.35 474.66 354.35 475.66 355.35 475.66 355.35 476.66 356.35 476.66 356.35 477.66 357.35 477.66 357.35 478.66 358.35 478.66 358.35 479.66 359.35 479.66 359.35 480.66 360.35 480.66 360.35 481.66 361.35 481.66 361.35 482.66 362.35 482.66 362.35 483.66 363.35 483.66 363.35 484.66 364.35 484.66 364.35 485.66 365.35 485.66 365.35 486.66 366.35 486.66 366.35 487.66 367.35 487.66 367.35 488.66 368.35 488.66 368.35 489.66 369.35 489.66 369.35 490.66 370.35 490.66 370.35 491.66 371.35 491.66 371.35 492.66 372.35 492.66 372.35 493.66 373.35 493.66 373.35 494.66 374.35 494.66 374.35 495.66 375.35 495.66 375.35 496.66 376.35 496.66 376.35 497.66 377.35 497.66 377.35 498.66 378.35 498.66 378.35 499.66 379.35 499.66 379.35 500.66 380.35 500.66 380.35 501.66 381.35 501.66 381.35 502.66 382.35 502.66 382.35 503.66 383.35 503.66 383.35 504.66 384.35 504.66 384.35 505.66 385.35 505.66 385.35 506.66 386.35 506.66 386.35 507.66 387.35 507.66 387.35 508.66 388.35 508.66 388.35 509.66 389.35 509.66 389.35 510.66 390.35 510.66 390.35 511.66 391.35 511.66 391.35 512.66 392.35 512.66 392.35 513.66 393.35 513.66 393.35 514.66 394.35 514.66 394.35 515.66 395.35 515.66 395.35 516.66 396.35 516.66 396.35 517.66 397.35 517.66 397.35 518.66 398.35 518.66 398.35 519.66 399.35 519.66 399.35 520.66 400.35 520.66 400.35 521.66 401.35 521.66 401.35 522.66 402.35 522.66 402.35 523.66 403.35 523.66 403.35 524.66 404.35 524.66 404.35 525.66 405.35 525.66 405.35 526.66 406.35 526.66 406.35 527.66 407.35 527.66 407.35 528.66 408.35 528.66 408.35 529.66 409.35 529.66 409.35 530.66 410.35 530.66 410.35 531.66 411.35 531.66 411.35 532.66 412.35 532.66 412.35 533.66 413.35 533.66 413.35 534.66 414.35 534.66 414.35 535.66 415.35 535.66 415.35 536.66 416.35 536.66 416.35 537.66 417.35 537.66 417.35 538.66 418.35 538.66 418.35 539.66 419.35 539.66 419.35 540.66 420.35 540.66 420.35 541.66 421.35 541.66 421.35 542.66 422.35 542.66 422.35 543.66 423.35 543.66 423.35 544.66 424.35 544.66 424.35 545.66 425.35 545.66 425.35 546.66 426.35 546.66 426.35 547.66 427.35 547.66 427.35 548.66 428.35 548.66 428.35 549.66 429.35 549.66 429.35 550.66 430.35 550.66 430.35 551.66 431.35 551.66 431.35 552.66 432.35 552.66 432.35 553.66 433.35 553.66 433.35 554.66 434.35 554.66 434.35 555.66 435.35 555.66 435.35 556.66 436.35 556.66 436.35 557.66 437.35 557.66 437.35 558.66 438.35 558.66 438.35 559.66 439.35 559.66 439.35 560.66 440.35 560.66 440.35 561.66 441.35 561.66 441.35 562.66 442.35 562.66 442.35 563.66 443.35 563.66 443.35 564.66 444.35 564.66 444.35 565.66 445.35 565.66 445.35 566.66 446.35 566.66 446.35 567.66 447.35 567.66 447.35 568.66 448.35 568.66 448.35 569.66 449.35 569.66 449.35 570.66 450.35 570.66 450.35 571.66 451.35 571.66 451.35 572.66 452.35 572.66 452.35 573.66 453.35 573.66 453.35 574.66 454.35 574.66 454.35 575.66 455.35 575.66 455.35 576.66 456.35 576.66 456.35 577.66 457.35 577.66 457.35 578.66 458.35 578.66 458.35 579.66 459.35 579.66 459.35 580.66 460.35 580.66 460.35 581.66 461.35 581.66 461.35 582.66 462.35 582.66 462.35 583.66 463.35 583.66 463.35 584.66 464.35 584.66 464.35 585.66 465.35 585.66 465.35 586.66 466.35 586.66 466.35 587.66 467.35 587.66 467.35 588.66 468.35 588.66 468.35 589.66 469.35 589.66 469.35 590.66 470.35 590.66 470.35 591.66 471.35 591.66 471.35 592.66 472.35 592.66 472.35 593.66 473.35 593.66 473.35 594.66 474.35 594.66 474.35 595.66 475.35 595.66 475.35 596.66 476.35 596.66 476.35 597.66 477.35 597.66 477.35 598.66 478.35 598.66 478.35 599.66 479.35 599.66 479.35 600.66 480.35 600.66 480.35 601.66 481.35 601.66 481.35 602.66 482.35 602.66 482.35 603.66 483.35 603.66 483.35 604.66 484.35 604.66 484.35 605.66 485.35 605.66 485.35 606.66 486.35 606.66 486.35 607.66 487.35 607.66 487.35 608.66 488.35 608.66 488.35 609.66 489.35 609.66 489.35 610.66 490.35 610.66 490.35 611.66 491.35 611.66 491.35 612.66 492.35 612.66 492.35 613.66 493.35 613.66 493.35 614.66 494.35 614.66 494.35 615.66 495.35 615.66 495.35 616.66 496.35 616.66 496.35 617.66 497.35 617.66 497.35 618.66 498.35 618.66 498.35 619.66 499.35 619.66 499.35 620.66 500.35 620.66 500.35 621.66 501.35 621.66 501.35 622.66 502.35 622.66 502.35 623.66 503.35 623.66 503.35 624.66 504.35 624.66 504.35 625.66 505.35 625.66 505.35 626.66 506.35 626.66 506.35 627.66 507.35 627.66 507.35 628.66 508.35 628.66 508.35 629.66 509.35 629.66 509.35 630.66 510.35 630.66 510.35 631.66 511.35 631.66 511.35 632.66 512.35 632.66 512.35 633.66 513.35 633.66 513.35 634.66 514.35 634.66 514.35 635.66 515.35 635.66 515.35 636.66 516.35 636.66 516.35 637.66 517.35 637.66 517.35 638.66 518.35 638.66 518.35 639.66 519.35 639.66 519.35 640.66 520.35 640.66 520.35 641.66 521.35 641.66 521.35 642.66 522.35 642.66 522.35 643.66 523.35 643.66 523.35 644.66 524.35 644.66 524.35 645.66 525.35 645.66 525.35 646.66 526.35 646.66 526.35 647.66 527.35 647.66 527.35 648.66 528.35 648.66 528.35 649.66 529.35 649.66 529.35 650.66 530.35 650.66 530.35 651.66 531.35 651.66 531.35 652.66 532.35 652.66 532.35 653.66 533.35 653.66 533.35 654.66 534.35 654.66 534.35 655.66 535.35 655.66 535.35 656.66 536.35 656.66 536.35 657.66 537.35 657.66 537.35 658.66 538.35 658.66 538.35 659.66 539.35 659.66 539.35 660.66 540.35 660.66 540.35 661.66 541.35 661.66 541.35 662.66 542.35 662.66 542.35 663.66 543.35 663.66 543.35 664.66 544.35 664.66 544.35 665.66 545.35 665.66 545.35 666.66 546.35 666.66 546.35 667.66 547.35 667.66 547.35 668.66 548.35 668.66 548.35 669.66 549.35 669.66 549.35 670.66 550.35 670.66 550.35 671.66 551.35 671.66 551.35 672.66 552.35 672.66 552.35 673.66 553.35 673.66 553.35 674.66 574.8 674.66 574.8 655.79 573.8 655.79 573.8 654.79 572.8 654.79 572.8 653.79 571.8 653.79 571.8 652.79 570.8 652.79 570.8 651.79 569.8 651.79 569.8 650.79 568.8 650.79 568.8 649.79 567.8 649.79 567.8 648.79 566.8 648.79 566.8 647.79 565.8 647.79 565.8 646.79 565.63 646.79 565.63 645.03 567.77 645.03 568.67 645.03 571.83 645.03 572.72 645.03 575.88 645.03 576.77 645.03 579.93 645.03 580.83 645.03 583.99 645.03 585.22 645.03 577.62 588.74 576.75 588.74"/>
          <polygon class="cls-23" points="749.72 588.74 748.85 588.74 748.72 587.74 747.85 587.74 747.72 586.74 746.85 586.74 746.72 585.74 745.85 585.74 745.72 584.74 744.85 584.74 744.72 583.74 743.85 583.74 743.72 582.74 742.85 582.74 742.72 581.74 741.85 581.74 741.72 580.74 740.85 580.74 740.72 579.74 739.85 579.74 739.72 578.74 738.85 578.74 738.72 577.74 737.85 577.74 737.72 576.74 736.85 576.74 736.72 575.74 735.85 575.74 735.72 574.74 734.85 574.74 734.72 573.74 733.85 573.74 733.72 572.74 732.85 572.74 732.72 571.74 731.85 571.74 731.72 570.74 730.85 570.74 730.72 569.74 729.85 569.74 729.72 568.74 728.85 568.74 728.72 567.74 727.85 567.74 727.72 566.74 726.85 566.74 726.72 565.74 725.85 565.74 725.72 564.74 724.85 564.74 724.72 563.74 723.85 563.74 723.72 562.74 722.85 562.74 722.72 561.74 721.85 561.74 721.72 560.74 720.85 560.74 720.72 559.74 719.85 559.74 719.72 558.74 718.85 558.74 718.72 557.74 717.85 557.74 717.72 556.74 716.85 556.74 716.72 555.74 715.85 555.74 715.72 554.74 714.85 554.74 714.72 553.74 713.85 553.74 713.72 552.74 712.85 552.74 712.72 551.74 711.85 551.74 711.72 550.74 710.85 550.74 710.72 549.74 709.85 549.74 709.72 548.74 708.85 548.74 708.72 547.74 707.85 547.74 707.72 546.74 706.85 546.74 706.72 545.74 705.85 545.74 705.72 544.74 704.85 544.74 704.72 543.74 703.85 543.74 703.72 542.74 702.85 542.74 702.72 541.74 701.85 541.74 701.72 540.74 700.85 540.74 700.72 539.74 699.85 539.74 699.72 538.74 698.85 538.74 698.72 537.74 697.85 537.74 697.72 536.74 696.85 536.74 696.72 535.74 695.85 535.74 695.72 534.74 694.85 534.74 694.72 533.74 693.85 533.74 693.72 532.74 692.85 532.74 692.72 531.74 691.85 531.74 691.72 530.74 690.85 530.74 690.72 529.74 689.85 529.74 689.72 528.74 688.85 528.74 688.72 527.74 687.85 527.74 687.72 526.74 686.85 526.74 686.72 525.74 685.85 525.74 685.72 524.74 684.85 524.74 684.72 523.74 683.85 523.74 683.72 522.74 682.85 522.74 682.72 521.74 681.85 521.74 681.72 520.74 680.85 520.74 680.72 519.74 679.85 519.74 679.72 518.74 678.85 518.74 678.72 517.74 677.85 517.74 677.72 516.74 676.85 516.74 676.72 515.74 675.85 515.74 675.72 514.74 674.85 514.74 674.72 513.74 673.85 513.74 673.72 512.74 672.85 512.74 672.72 511.74 671.85 511.74 671.72 510.74 670.85 510.74 670.72 509.74 669.85 509.74 669.72 508.74 668.85 508.74 668.72 507.74 667.85 507.74 667.72 506.74 666.85 506.74 666.72 505.74 665.85 505.74 665.72 504.74 664.85 504.74 664.72 503.74 663.85 503.74 663.72 502.74 662.85 502.74 662.72 501.74 661.85 501.74 661.72 500.74 660.85 500.74 660.72 499.74 659.85 499.74 659.72 498.74 658.85 498.74 658.72 497.74 657.85 497.74 657.72 496.74 656.85 496.74 656.72 495.74 655.85 495.74 655.72 494.74 654.85 494.74 654.72 493.74 653.85 493.74 653.72 492.74 652.85 492.74 652.72 491.74 651.85 491.74 651.72 490.74 650.85 490.74 650.72 489.74 649.85 489.74 649.72 488.74 648.85 488.74 648.72 487.74 647.85 487.74 647.72 486.74 646.85 486.74 646.72 485.74 645.85 485.74 645.72 484.74 644.85 484.74 644.72 483.74 643.85 483.74 643.72 482.74 642.85 482.74 642.72 481.74 641.85 481.74 641.72 480.74 640.85 480.74 640.72 479.74 639.85 479.74 639.72 478.74 638.85 478.74 638.72 477.74 637.85 477.74 637.72 476.74 636.85 476.74 636.72 475.74 635.85 475.74 635.72 474.74 634.85 474.74 634.72 473.74 633.85 473.74 633.72 472.74 632.85 472.74 632.72 471.74 631.85 471.74 631.72 470.74 630.85 470.74 630.72 469.74 629.85 469.74 629.72 468.74 628.85 468.74 628.72 467.74 627.85 467.74 627.72 466.74 626.85 466.74 626.72 465.74 625.85 465.74 625.72 464.74 624.85 464.74 624.72 463.74 623.85 463.74 623.72 462.74 622.85 462.74 622.72 461.74 621.85 461.74 621.72 460.74 620.85 460.74 620.72 459.74 619.85 459.74 619.72 458.74 618.85 458.74 618.72 457.74 617.85 457.74 617.72 456.74 616.85 456.74 616.72 455.74 615.85 455.74 615.72 454.74 614.85 454.74 614.72 453.74 613.85 453.74 613.72 452.74 612.85 452.74 612.72 451.74 611.85 451.74 611.72 450.74 610.85 450.74 610.72 449.74 609.85 449.74 609.72 448.74 608.85 448.74 608.72 447.74 607.85 447.74 607.72 446.74 606.85 446.74 606.72 445.74 605.85 445.74 605.72 444.74 604.85 444.74 604.72 443.74 603.85 443.74 603.72 442.74 602.85 442.74 602.72 441.74 601.85 441.74 601.72 440.74 600.85 440.74 600.72 439.74 599.85 439.74 599.72 438.74 598.85 438.74 598.72 437.74 597.85 437.74 597.72 436.74 596.85 436.74 596.72 435.74 595.85 435.74 595.72 434.74 594.85 434.74 594.72 433.74 593.85 433.74 593.72 432.74 592.85 432.74 592.72 431.74 591.85 431.74 591.72 430.74 590.85 430.74 590.72 429.74 589.85 429.74 589.72 428.74 588.85 428.74 588.72 427.74 587.85 427.74 587.72 426.74 586.85 426.74 586.72 425.74 585.85 425.74 585.72 424.74 584.85 424.74 584.72 423.74 583.85 423.74 583.72 422.74 582.85 422.74 582.72 421.74 581.85 421.74 581.72 420.74 580.85 420.74 580.72 419.74 579.85 419.74 579.72 418.74 578.85 418.74 578.72 417.74 577.85 417.74 577.72 416.74 576.85 416.74 576.72 415.74 575.85 415.74 575.72 414.74 574.85 414.74 574.72 413.74 573.85 413.74 573.72 412.74 572.85 412.74 572.72 411.74 571.85 411.74 571.72 410.74 570.85 410.74 570.72 409.74 569.85 409.74 569.72 408.74 568.85 408.74 568.72 407.74 567.85 407.74 567.72 406.74 566.85 406.74 566.72 405.74 565.85 405.74 565.72 404.74 564.85 404.74 564.72 403.74 563.85 403.74 563.72 402.74 562.85 402.74 562.72 401.74 561.85 401.74 561.72 400.74 560.85 400.74 560.72 399.74 559.85 399.74 559.72 398.74 558.85 398.74 558.72 397.74 557.85 397.74 557.72 396.74 556.85 396.74 556.72 395.74 555.85 395.74 555.72 394.74 554.85 394.74 554.72 393.74 553.85 393.74 553.72 392.74 552.85 392.74 552.72 391.74 551.85 391.74 551.72 390.74 550.85 390.74 550.72 389.74 549.85 389.74 549.72 388.74 548.85 388.74 548.72 387.74 547.85 387.74 547.72 386.74 546.85 386.74 546.72 385.74 545.85 385.74 545.72 384.74 544.85 384.74 544.72 383.74 543.85 383.74 543.72 382.74 542.85 382.74 542.72 381.74 541.85 381.74 541.72 380.74 540.85 380.74 540.72 379.74 539.85 379.74 539.72 378.74 538.85 378.74 538.72 377.74 537.85 377.74 537.72 376.74 536.85 376.74 536.72 375.74 535.85 375.74 535.72 374.74 534.85 374.74 534.72 373.74 533.85 373.74 533.72 372.74 532.85 372.74 532.72 371.74 531.85 371.74 531.72 370.74 530.85 370.74 530.72 369.74 529.85 369.74 529.72 368.74 528.85 368.74 528.72 367.74 527.85 367.74 527.72 366.74 526.85 366.74 526.72 365.74 525.85 365.74 525.72 364.74 524.85 364.74 524.72 363.74 523.85 363.74 523.72 362.74 522.85 362.74 522.72 361.74 521.85 361.74 521.72 360.74 520.85 360.74 520.72 359.74 519.85 359.74 519.72 358.74 518.85 358.74 518.72 357.74 517.85 357.74 517.72 356.74 516.85 356.74 516.72 355.74 515.85 355.74 515.72 354.74 514.85 354.74 514.72 353.74 513.85 353.74 513.72 352.74 512.85 352.74 512.72 351.74 511.85 351.74 511.72 350.74 510.85 350.74 510.72 349.74 509.85 349.74 509.72 348.74 508.85 348.74 508.72 347.74 507.85 347.74 507.72 346.74 506.85 346.74 506.72 345.74 505.85 345.74 505.72 344.74 504.85 344.74 504.72 343.74 503.85 343.74 503.72 342.74 502.85 342.74 502.72 341.74 501.85 341.74 501.72 340.74 500.85 340.74 500.72 339.74 499.85 339.74 499.72 338.74 498.53 338.74 496.55 338.74 495.99 338.74 494.01 338.74 493.45 338.74 491.47 338.74 490.91 338.74 488.93 338.74 488.37 338.74 486.39 338.74 486.18 338.74 485.83 338.74 483.85 338.74 483.29 338.74 481.31 338.74 480.75 338.74 478.78 338.74 478.22 338.74 476.24 338.74 475.68 338.74 473.7 338.74 472.64 338.74 465.03 395.03 466.17 395.03 466.03 396.03 467.17 396.03 467.03 397.03 468.17 397.03 468.03 398.03 469.17 398.03 469.03 399.03 470.17 399.03 470.03 400.03 471.17 400.03 471.03 401.03 472.17 401.03 472.03 402.03 473.17 402.03 473.03 403.03 474.17 403.03 474.03 404.03 475.17 404.03 475.03 405.03 476.17 405.03 476.06 405.79 475.45 405.79 475.45 424.66 476.45 424.66 476.45 425.66 477.45 425.66 477.45 426.66 478.45 426.66 478.45 427.66 479.45 427.66 479.45 428.66 480.45 428.66 480.45 429.66 481.45 429.66 481.45 430.66 482.45 430.66 482.45 431.66 483.45 431.66 483.45 432.66 484.45 432.66 484.45 433.66 485.45 433.66 485.45 434.66 486.45 434.66 486.45 435.66 487.45 435.66 487.45 436.66 488.45 436.66 488.45 437.66 489.45 437.66 489.45 438.66 490.45 438.66 490.45 439.66 491.45 439.66 491.45 440.66 492.45 440.66 492.45 441.66 493.45 441.66 493.45 442.66 494.45 442.66 494.45 443.66 495.45 443.66 495.45 444.66 496.45 444.66 496.45 445.66 497.45 445.66 497.45 446.66 498.45 446.66 498.45 447.66 499.45 447.66 499.45 448.66 500.45 448.66 500.45 449.66 501.45 449.66 501.45 450.66 502.45 450.66 502.45 451.66 503.45 451.66 503.45 452.66 504.45 452.66 504.45 453.66 505.45 453.66 505.45 454.66 506.45 454.66 506.45 455.66 507.45 455.66 507.45 456.66 508.45 456.66 508.45 457.66 509.45 457.66 509.45 458.66 510.45 458.66 510.45 459.66 511.45 459.66 511.45 460.66 512.45 460.66 512.45 461.66 513.45 461.66 513.45 462.66 514.45 462.66 514.45 463.66 515.45 463.66 515.45 464.66 516.45 464.66 516.45 465.66 517.45 465.66 517.45 466.66 518.45 466.66 518.45 467.66 519.45 467.66 519.45 468.66 520.45 468.66 520.45 469.66 521.45 469.66 521.45 470.66 522.45 470.66 522.45 471.66 523.45 471.66 523.45 472.66 524.45 472.66 524.45 473.66 525.45 473.66 525.45 474.66 526.45 474.66 526.45 475.66 527.45 475.66 527.45 476.66 528.45 476.66 528.45 477.66 529.45 477.66 529.45 478.66 530.45 478.66 530.45 479.66 531.45 479.66 531.45 480.66 532.45 480.66 532.45 481.66 533.45 481.66 533.45 482.66 534.45 482.66 534.45 483.66 535.45 483.66 535.45 484.66 536.45 484.66 536.45 485.66 537.45 485.66 537.45 486.66 538.45 486.66 538.45 487.66 539.45 487.66 539.45 488.66 540.45 488.66 540.45 489.66 541.45 489.66 541.45 490.66 542.45 490.66 542.45 491.66 543.45 491.66 543.45 492.66 544.45 492.66 544.45 493.66 545.45 493.66 545.45 494.66 546.45 494.66 546.45 495.66 547.45 495.66 547.45 496.66 548.45 496.66 548.45 497.66 549.45 497.66 549.45 498.66 550.45 498.66 550.45 499.66 551.45 499.66 551.45 500.66 552.45 500.66 552.45 501.66 553.45 501.66 553.45 502.66 554.45 502.66 554.45 503.66 555.45 503.66 555.45 504.66 556.45 504.66 556.45 505.66 557.45 505.66 557.45 506.66 558.45 506.66 558.45 507.66 559.45 507.66 559.45 508.66 560.45 508.66 560.45 509.66 561.45 509.66 561.45 510.66 562.45 510.66 562.45 511.66 563.45 511.66 563.45 512.66 564.45 512.66 564.45 513.66 565.45 513.66 565.45 514.66 566.45 514.66 566.45 515.66 567.45 515.66 567.45 516.66 568.45 516.66 568.45 517.66 569.45 517.66 569.45 518.66 570.45 518.66 570.45 519.66 571.45 519.66 571.45 520.66 572.45 520.66 572.45 521.66 573.45 521.66 573.45 522.66 574.45 522.66 574.45 523.66 575.45 523.66 575.45 524.66 576.45 524.66 576.45 525.66 577.45 525.66 577.45 526.66 578.45 526.66 578.45 527.66 579.45 527.66 579.45 528.66 580.45 528.66 580.45 529.66 581.45 529.66 581.45 530.66 582.45 530.66 582.45 531.66 583.45 531.66 583.45 532.66 584.45 532.66 584.45 533.66 585.45 533.66 585.45 534.66 586.45 534.66 586.45 535.66 587.45 535.66 587.45 536.66 588.45 536.66 588.45 537.66 589.45 537.66 589.45 538.66 590.45 538.66 590.45 539.66 591.45 539.66 591.45 540.66 592.45 540.66 592.45 541.66 593.45 541.66 593.45 542.66 594.45 542.66 594.45 543.66 595.45 543.66 595.45 544.66 596.45 544.66 596.45 545.66 597.45 545.66 597.45 546.66 598.45 546.66 598.45 547.66 599.45 547.66 599.45 548.66 600.45 548.66 600.45 549.66 601.45 549.66 601.45 550.66 602.45 550.66 602.45 551.66 603.45 551.66 603.45 552.66 604.45 552.66 604.45 553.66 605.45 553.66 605.45 554.66 606.45 554.66 606.45 555.66 607.45 555.66 607.45 556.66 608.45 556.66 608.45 557.66 609.45 557.66 609.45 558.66 610.45 558.66 610.45 559.66 611.45 559.66 611.45 560.66 612.45 560.66 612.45 561.66 613.45 561.66 613.45 562.66 614.45 562.66 614.45 563.66 615.45 563.66 615.45 564.66 616.45 564.66 616.45 565.66 617.45 565.66 617.45 566.66 618.45 566.66 618.45 567.66 619.45 567.66 619.45 568.66 620.45 568.66 620.45 569.66 621.45 569.66 621.45 570.66 622.45 570.66 622.45 571.66 623.45 571.66 623.45 572.66 624.45 572.66 624.45 573.66 625.45 573.66 625.45 574.66 626.45 574.66 626.45 575.66 627.45 575.66 627.45 576.66 628.45 576.66 628.45 577.66 629.45 577.66 629.45 578.66 630.45 578.66 630.45 579.66 631.45 579.66 631.45 580.66 632.45 580.66 632.45 581.66 633.45 581.66 633.45 582.66 634.45 582.66 634.45 583.66 635.45 583.66 635.45 584.66 636.45 584.66 636.45 585.66 637.45 585.66 637.45 586.66 638.45 586.66 638.45 587.66 639.45 587.66 639.45 588.66 640.45 588.66 640.45 589.66 641.45 589.66 641.45 590.66 642.45 590.66 642.45 591.66 643.45 591.66 643.45 592.66 644.45 592.66 644.45 593.66 645.45 593.66 645.45 594.66 646.45 594.66 646.45 595.66 647.45 595.66 647.45 596.66 648.45 596.66 648.45 597.66 649.45 597.66 649.45 598.66 650.45 598.66 650.45 599.66 651.45 599.66 651.45 600.66 652.45 600.66 652.45 601.66 653.45 601.66 653.45 602.66 654.45 602.66 654.45 603.66 655.45 603.66 655.45 604.66 656.45 604.66 656.45 605.66 657.45 605.66 657.45 606.66 658.45 606.66 658.45 607.66 659.45 607.66 659.45 608.66 660.45 608.66 660.45 609.66 661.45 609.66 661.45 610.66 662.45 610.66 662.45 611.66 663.45 611.66 663.45 612.66 664.45 612.66 664.45 613.66 665.45 613.66 665.45 614.66 666.45 614.66 666.45 615.66 667.45 615.66 667.45 616.66 668.45 616.66 668.45 617.66 669.45 617.66 669.45 618.66 670.45 618.66 670.45 619.66 671.45 619.66 671.45 620.66 672.45 620.66 672.45 621.66 673.45 621.66 673.45 622.66 674.45 622.66 674.45 623.66 675.45 623.66 675.45 624.66 676.45 624.66 676.45 625.66 677.45 625.66 677.45 626.66 678.45 626.66 678.45 627.66 679.45 627.66 679.45 628.66 680.45 628.66 680.45 629.66 681.45 629.66 681.45 630.66 682.45 630.66 682.45 631.66 683.45 631.66 683.45 632.66 684.45 632.66 684.45 633.66 685.45 633.66 685.45 634.66 686.45 634.66 686.45 635.66 687.45 635.66 687.45 636.66 688.45 636.66 688.45 637.66 689.45 637.66 689.45 638.66 690.45 638.66 690.45 639.66 691.45 639.66 691.45 640.66 692.45 640.66 692.45 641.66 693.45 641.66 693.45 642.66 694.45 642.66 694.45 643.66 695.45 643.66 695.45 644.66 696.45 644.66 696.45 645.66 697.45 645.66 697.45 646.66 698.45 646.66 698.45 647.66 699.45 647.66 699.45 648.66 700.45 648.66 700.45 649.66 701.45 649.66 701.45 650.66 702.45 650.66 702.45 651.66 703.45 651.66 703.45 652.66 704.45 652.66 704.45 653.66 705.45 653.66 705.45 654.66 706.45 654.66 706.45 655.66 707.45 655.66 707.45 656.66 708.45 656.66 708.45 657.66 709.45 657.66 709.45 658.66 710.45 658.66 710.45 659.66 711.45 659.66 711.45 660.66 712.45 660.66 712.45 661.66 713.45 661.66 713.45 662.66 714.45 662.66 714.45 663.66 715.45 663.66 715.45 664.66 716.45 664.66 716.45 665.66 717.45 665.66 717.45 666.66 718.45 666.66 718.45 667.66 719.45 667.66 719.45 668.66 720.45 668.66 720.45 669.66 721.45 669.66 721.45 670.66 722.45 670.66 722.45 671.66 723.45 671.66 723.45 672.66 724.45 672.66 724.45 673.66 725.45 673.66 725.45 674.66 746.9 674.66 746.9 655.79 745.9 655.79 745.9 654.79 744.9 654.79 744.9 653.79 743.9 653.79 743.9 652.79 742.9 652.79 742.9 651.79 741.9 651.79 741.9 650.79 740.9 650.79 740.9 649.79 739.9 649.79 739.9 648.79 738.9 648.79 738.9 647.79 737.9 647.79 737.9 646.79 737.73 646.79 737.73 645.03 739.87 645.03 740.77 645.03 743.93 645.03 744.82 645.03 747.98 645.03 748.87 645.03 752.03 645.03 752.93 645.03 756.09 645.03 757.32 645.03 749.72 588.74"/>
        </g>
        <g>
          <g>
            <g>
              <rect class="cls-41" x="303.35" y="405.79" width="21.45" height="18.86"/>
              <rect class="cls-37" x="304.27" y="406.71" width="19.62" height="17.04"/>
              <rect class="cls-43" x="312.52" y="387.54" width="3.11" height="27.68"/>
            </g>
            <g>
              <polygon class="cls-16" points="300.54 338.74 314.08 338.74 327.62 338.74 335.22 395.03 314.08 395.03 292.93 395.03 300.54 338.74"/>
              <g>
                <path class="cls-6" d="m303.58,338.74h-1.97c-.81,6.28-1.73,13.44-2.79,21.69-1.24,9.63-2.7,21-4.45,34.6h3.15c1.47-13.6,2.69-24.97,3.73-34.59.89-8.25,1.66-15.42,2.34-21.69Z"/>
                <path class="cls-6" d="m306.12,338.74h-1.98c-.64,6.28-1.37,13.44-2.21,21.69-.98,9.63-2.14,20.99-3.52,34.59h3.16c1.1-13.6,2.02-24.97,2.8-34.59.67-8.25,1.25-15.42,1.75-21.69Z"/>
                <path class="cls-6" d="m308.65,338.74h-1.98c-.47,6.28-1.01,13.44-1.62,21.69-.72,9.63-1.57,20.99-2.59,34.59h3.15c.73-13.6,1.35-24.97,1.87-34.59.45-8.25.83-15.42,1.17-21.69Z"/>
                <path class="cls-6" d="m311.19,338.74h-1.98c-.3,6.28-.65,13.44-1.04,21.69-.46,9.63-1.01,20.99-1.66,34.59h3.16c.37-13.6.68-24.97.94-34.59.22-8.25.42-15.42.59-21.69Z"/>
                <path class="cls-6" d="m313.73,338.74h-1.98c-.13,6.28-.28,13.44-.46,21.69-.2,9.63-.44,20.99-.73,34.59h3.16c0-13.6,0-24.97,0-34.59,0-8.25,0-15.42,0-21.69Z"/>
                <path class="cls-6" d="m316.27,338.74h-1.98c.04,6.28.08,13.44.12,21.69.05,9.63.12,20.99.2,34.59h3.16c-.36-13.6-.67-24.97-.92-34.59-.22-8.25-.41-15.42-.58-21.69Z"/>
                <path class="cls-6" d="m318.81,338.74h-1.98c.2,6.28.44,13.44.71,21.69.31,9.63.68,20.99,1.13,34.59h3.16c-.73-13.6-1.34-24.97-1.85-34.59-.44-8.25-.83-15.42-1.16-21.69Z"/>
                <path class="cls-6" d="m321.35,338.74h-1.98c.37,6.28.8,13.45,1.29,21.69.57,9.63,1.25,20.99,2.06,34.59h3.15c-1.1-13.6-2.01-24.97-2.78-34.59-.66-8.25-1.24-15.42-1.75-21.69Z"/>
                <path class="cls-6" d="m323.89,338.74h-1.98c.54,6.28,1.16,13.45,1.87,21.69.83,9.63,1.81,20.99,2.99,34.59h3.16c-1.46-13.6-2.68-24.97-3.71-34.59-.89-8.25-1.65-15.42-2.33-21.69Z"/>
                <path class="cls-6" d="m326.43,338.74h-1.98c.71,6.28,1.52,13.45,2.46,21.69,1.09,9.63,2.38,20.99,3.92,34.59h3.16c-1.83-13.6-3.35-24.97-4.65-34.59-1.11-8.25-2.07-15.42-2.91-21.69Z"/>
              </g>
            </g>
          </g>
          <g>
            <g>
              <rect class="cls-41" x="475.45" y="405.79" width="21.45" height="18.86"/>
              <rect class="cls-37" x="476.36" y="406.71" width="19.62" height="17.04"/>
              <rect class="cls-43" x="484.62" y="387.54" width="3.11" height="27.68"/>
            </g>
            <g>
              <polygon class="cls-16" points="472.64 338.74 486.18 338.74 499.72 338.74 507.32 395.03 486.18 395.03 465.03 395.03 472.64 338.74"/>
              <g>
                <path class="cls-6" d="m475.68,338.74h-1.97c-.81,6.28-1.73,13.44-2.79,21.69-1.24,9.63-2.7,21-4.45,34.6h3.15c1.47-13.6,2.69-24.97,3.73-34.59.89-8.25,1.66-15.42,2.34-21.69Z"/>
                <path class="cls-6" d="m478.22,338.74h-1.98c-.64,6.28-1.37,13.44-2.21,21.69-.98,9.63-2.14,20.99-3.52,34.59h3.16c1.1-13.6,2.02-24.97,2.8-34.59.67-8.25,1.25-15.42,1.75-21.69Z"/>
                <path class="cls-6" d="m480.75,338.74h-1.98c-.47,6.28-1.01,13.44-1.62,21.69-.72,9.63-1.57,20.99-2.59,34.59h3.15c.73-13.6,1.35-24.97,1.87-34.59.45-8.25.83-15.42,1.17-21.69Z"/>
                <path class="cls-6" d="m483.29,338.74h-1.98c-.3,6.28-.65,13.44-1.04,21.69-.46,9.63-1.01,20.99-1.66,34.59h3.16c.37-13.6.68-24.97.94-34.59.22-8.25.42-15.42.59-21.69Z"/>
                <path class="cls-6" d="m485.83,338.74h-1.98c-.13,6.28-.28,13.44-.46,21.69-.2,9.63-.44,20.99-.73,34.59h3.16c0-13.6,0-24.97,0-34.59,0-8.25,0-15.42,0-21.69Z"/>
                <path class="cls-6" d="m488.37,338.74h-1.98c.04,6.28.08,13.44.12,21.69.05,9.63.12,20.99.2,34.59h3.16c-.36-13.6-.67-24.97-.92-34.59-.22-8.25-.41-15.42-.58-21.69Z"/>
                <path class="cls-6" d="m490.91,338.74h-1.98c.2,6.28.44,13.44.71,21.69.31,9.63.68,20.99,1.13,34.59h3.16c-.73-13.6-1.34-24.97-1.85-34.59-.44-8.25-.83-15.42-1.16-21.69Z"/>
                <path class="cls-6" d="m493.45,338.74h-1.98c.37,6.28.8,13.45,1.29,21.69.57,9.63,1.25,20.99,2.06,34.59h3.15c-1.09-13.6-2.01-24.97-2.78-34.59-.66-8.25-1.24-15.42-1.75-21.69Z"/>
                <path class="cls-6" d="m495.99,338.74h-1.98c.54,6.28,1.16,13.45,1.87,21.69.83,9.63,1.81,20.99,2.99,34.59h3.16c-1.46-13.6-2.68-24.97-3.71-34.59-.89-8.25-1.65-15.42-2.33-21.69Z"/>
                <path class="cls-6" d="m498.53,338.74h-1.98c.71,6.28,1.52,13.45,2.46,21.69,1.09,9.63,2.38,20.99,3.92,34.59h3.16c-1.83-13.6-3.35-24.97-4.65-34.59-1.11-8.25-2.07-15.42-2.91-21.69Z"/>
              </g>
            </g>
          </g>
        </g>
        <g>
          <path class="cls-5" d="m352.34,514.4c-.14.62-.25,1.27-.31,1.92h-2.82c-1.29,0-2.35,1.06-2.35,2.35v5.86c0,1.29,1.06,2.35,2.35,2.35h4.36c.4,0,.78-.1,1.12-.28.85,1.16,1.86,2.15,2.99,2.91h10.97c3.41-2.28,5.73-6.65,5.73-11.63h0c0-1.2-.14-2.36-.39-3.47h-21.65Zm-.38,2.95c0,.17,0,.34,0,.52h0c0,2.93.8,5.65,2.16,7.86-.16.07-.35.12-.54.12h-4.36c-.72,0-1.31-.59-1.31-1.31v-5.86c0-.72.59-1.31,1.31-1.31h2.75Z"/>
          <path class="cls-7" d="m348.77,528.68s0,.09,0,.13h0c0,1.02.49,1.86,1.09,1.86h25.31c.6,0,1.09-.84,1.09-1.86h0s0-.09,0-.13h-27.48Z"/>
        </g>
        <g>
          <path class="cls-5" d="m445.98,514.4c.14.62.25,1.27.31,1.92h2.82c1.29,0,2.35,1.06,2.35,2.35v5.86c0,1.29-1.06,2.35-2.35,2.35h-4.36c-.4,0-.78-.1-1.12-.28-.85,1.16-1.86,2.15-2.99,2.91h-10.97c-3.41-2.28-5.73-6.65-5.73-11.63h0c0-1.2.14-2.36.39-3.47h21.65Zm.38,2.95c0,.17,0,.34,0,.52h0c0,2.93-.8,5.65-2.16,7.86.16.07.35.12.54.12h4.36c.72,0,1.31-.59,1.31-1.31v-5.86c0-.72-.59-1.31-1.31-1.31h-2.75Z"/>
          <path class="cls-7" d="m449.55,528.68s0,.09,0,.13h0c0,1.02-.49,1.86-1.09,1.86h-25.31c-.6,0-1.09-.84-1.09-1.86h0s0-.09,0-.13h27.48Z"/>
        </g>
        <rect class="cls-47" x="392.2" y="548.02" width="7.8" height="103.6" rx="2.22" ry="2.22"/>
      </g>
    </g>
  </g>
</svg>